<?xml version="1.0" encoding="UTF-8"?>
<svg width="500px" height="188px" viewBox="0 0 500 188" version="1.1" xmlns="http://www.w3.org/2000/svg" xmlns:xlink="http://www.w3.org/1999/xlink">
    <!-- Generator: Sketch 40.1 (33804) - http://www.bohemiancoding.com/sketch -->
    <title>horizontal-black</title>
    <desc>Created with Sketch.</desc>
    <defs>
        <polygon id="path-1" points="12.9944167 0.175208333 0 0.175208333 0 36.0820417 25.9888333 36.0820417 25.9888333 0.175208333 12.9944167 0.175208333"></polygon>
    </defs>
    <g id="logos" stroke="none" stroke-width="1" fill="none" fill-rule="evenodd">
        <g id="horizontal-black">
            <g id="group" transform="translate(33.000000, 52.000000)">
                <g id="Group-3">
                    <mask id="mask-2" fill="white">
                        <use xlink:href="#path-1"></use>
                    </mask>
                    <g id="Clip-2"></g>
                    <path d="M12.995625,36.0820417 C9.12533333,36.0820417 5.95345833,34.6936667 3.47516667,32.215375 C-0.0966666667,28.64475 -1.19533832e-14,24.2295 -1.19533832e-14,18.1298333 C-1.19533832e-14,12.02775 -0.0966666667,7.616125 3.47516667,4.04429167 C5.95345833,1.56358333 9.12533333,0.175208333 12.995625,0.175208333 C19.5907083,0.175208333 24.7490833,3.94520833 25.9888333,11.3329583 L18.995,11.3329583 C18.3014167,8.50666667 16.5167083,6.32683333 13.0451667,6.32683333 C11.1625833,6.32683333 9.624375,7.018 8.631125,8.16108333 C7.29229167,9.64854167 6.89716667,11.3329583 6.89716667,18.1298333 C6.89716667,24.9242917 7.29229167,26.611125 8.631125,28.0961667 C9.624375,29.23925 11.1625833,29.9340417 13.0451667,29.9340417 C16.5167083,29.9340417 18.3014167,27.7505833 18.995,24.9242917 L25.9888333,24.9242917 C24.7490833,32.3156667 19.5435833,36.0820417 12.995625,36.0820417" id="Fill-1" fill="#000000" mask="url(#mask-2)"></path>
                </g>
                <path d="M52.1975833,32.2141667 C49.7192917,34.6960833 46.6924167,36.0808333 42.6759167,36.0808333 C38.657,36.0808333 35.583,34.6960833 33.1022917,32.2141667 C29.5304583,28.6435417 29.63075,24.2282917 29.63075,18.128625 C29.63075,12.0301667 29.5304583,7.61491667 33.1022917,4.04308333 C35.583,1.56479167 38.657,0.176416667 42.6759167,0.176416667 C46.6924167,0.176416667 49.7192917,1.56479167 52.1975833,4.04308333 C55.7682083,7.61491667 55.7186667,12.0301667 55.7186667,18.128625 C55.7186667,24.2282917 55.7682083,28.6435417 52.1975833,32.2141667 M47.0875417,8.20941667 C46.0979167,7.06995833 44.5597083,6.325625 42.6759167,6.325625 C40.7897083,6.325625 39.204375,7.06995833 38.211125,8.20941667 C36.8722917,9.69808333 36.5230833,11.335375 36.5230833,18.128625 C36.5230833,24.9230833 36.8722917,26.560375 38.211125,28.0490417 C39.204375,29.1885 40.7897083,29.9328333 42.6759167,29.9328333 C44.5597083,29.9328333 46.0979167,29.1885 47.0875417,28.0490417 C48.426375,26.560375 48.825125,24.9230833 48.825125,18.128625 C48.825125,11.335375 48.426375,9.69808333 47.0875417,8.20941667" id="Fill-4" fill="#000000"></path>
                <path d="M79.2267917,35.7847917 L72.33325,21.69925 L67.3730417,21.69925 L67.3730417,35.7847917 L60.4795,35.7847917 L60.4795,0.472458333 L74.316125,0.472458333 C81.508125,0.472458333 85.771125,5.38191667 85.771125,11.284625 C85.771125,16.2448333 82.747875,19.317625 79.325875,20.5597917 L87.2126667,35.7847917 L79.2267917,35.7847917 L79.2267917,35.7847917 Z M73.8678333,6.62166667 L67.3730417,6.62166667 L67.3730417,15.946375 L73.8678333,15.946375 C76.8947083,15.946375 78.8775833,14.0130417 78.8775833,11.284625 C78.8775833,8.55741667 76.8947083,6.62166667 73.8678333,6.62166667 L73.8678333,6.62166667 Z" id="Fill-5" fill="#000000"></path>
                <polyline id="Fill-6" fill="#000000" points="118.599125 0.472458333 111.705583 0.472458333 111.705583 22.0955833 97.7203333 0.472458333 91.571125 0.472458333 91.571125 35.786 98.4634583 35.786 98.4634583 14.1097083 112.446292 35.786 118.599125 35.786 118.599125 0.472458333"></polyline>
                <polyline id="Fill-7" fill="#000000" points="148.065542 29.634375 131.697458 29.634375 131.697458 21.054 145.636792 21.054 145.636792 14.9072083 131.697458 14.9072083 131.697458 6.622875 148.065542 6.622875 148.065542 0.473666667 124.803917 0.473666667 124.803917 35.7835833 148.065542 35.7835833 148.065542 29.634375"></polyline>
                <polyline id="Fill-8" fill="#000000" points="176.456542 29.634375 160.437667 29.634375 160.437667 0.473666667 153.544125 0.473666667 153.544125 35.7835833 176.456542 35.7835833 176.456542 29.634375"></polyline>
                <polyline id="Fill-9" fill="#000000" points="203.319 29.634375 187.300125 29.634375 187.300125 0.473666667 180.406583 0.473666667 180.406583 35.7835833 203.319 35.7835833 203.319 29.634375"></polyline>
                <polyline id="Fill-10" fill="#000000" points="112.549 47.7654167 87.2017917 47.7654167 87.2017917 53.914625 96.4274167 53.914625 96.4274167 83.0789583 103.323375 83.0789583 103.323375 53.914625 112.549 53.914625 112.549 47.7654167"></polyline>
                <polyline id="Fill-11" fill="#000000" points="140.357583 76.9273333 123.9895 76.9273333 123.9895 68.3469583 137.928833 68.3469583 137.928833 62.19775 123.9895 62.19775 123.9895 53.9122083 140.357583 53.9122083 140.357583 47.766625 117.097167 47.766625 117.097167 83.0765417 140.357583 83.0765417 140.357583 76.9273333"></polyline>
                <path d="M157.247667,83.375 C153.377375,83.375 150.204292,81.986625 147.726,79.5083333 C144.155375,75.9365 144.252042,71.5224583 144.252042,65.4227917 C144.252042,59.3195 144.155375,54.907875 147.726,51.33725 C150.204292,48.8553333 153.377375,47.4669583 157.247667,47.4669583 C163.841542,47.4669583 169.001125,51.2369583 170.240875,58.6259167 L163.247042,58.6259167 C162.553458,55.7984167 160.76875,53.6161667 157.297208,53.6161667 C155.413417,53.6161667 153.875208,54.3109583 152.883167,55.4528333 C151.544333,56.9415 151.148,58.6259167 151.148,65.4227917 C151.148,72.2160417 151.544333,73.9040833 152.883167,75.389125 C153.875208,76.531 155.413417,77.2257917 157.297208,77.2257917 C160.76875,77.2257917 162.553458,75.0435417 163.247042,72.2160417 L170.240875,72.2160417 C169.001125,79.6074167 163.795625,83.375 157.247667,83.375" id="Fill-12" fill="#000000"></path>
                <polyline id="Fill-13" fill="#000000" points="200.741625 47.7654167 193.848083 47.7654167 193.848083 62.1965417 181.89525 62.1965417 181.89525 47.7654167 175.001708 47.7654167 175.001708 83.0789583 181.89525 83.0789583 181.89525 68.2962083 193.848083 68.2962083 193.848083 83.0789583 200.741625 83.0789583 200.741625 47.7654167"></polyline>
                <polyline id="Fill-14" fill="#000000" points="243.23025 24.0132083 243.23025 17.6078333 236.568708 17.6078333 236.568708 24.0132083 235.070375 24.0132083 235.070375 9.979625 236.568708 9.979625 236.568708 16.2665833 243.23025 16.2665833 243.23025 9.979625 244.728583 9.979625 244.728583 24.0132083 243.23025 24.0132083"></polyline>
                <path d="M255.486375,12.18725 C254.836292,11.5371667 254.007375,11.2024583 253.062458,11.2024583 C252.116333,11.2024583 251.287417,11.5371667 250.637333,12.18725 C249.750417,13.0935 249.652542,14.119375 249.652542,16.9964167 C249.652542,19.8746667 249.750417,20.8993333 250.637333,21.8055833 C251.287417,22.4556667 252.116333,22.7915833 253.062458,22.7915833 C254.007375,22.7915833 254.836292,22.4556667 255.486375,21.8055833 C256.373292,20.8993333 256.472375,19.8746667 256.472375,16.9964167 C256.472375,14.119375 256.373292,13.0935 255.486375,12.18725 L255.486375,12.18725 Z M256.550917,22.7517083 C255.683333,23.6192917 254.520917,24.131625 253.062458,24.131625 C251.602792,24.131625 250.421042,23.6192917 249.553458,22.7517083 C248.23275,21.431 248.154208,20.209375 248.154208,16.9964167 C248.154208,13.7834583 248.23275,12.5618333 249.553458,11.241125 C250.421042,10.37475 251.602792,9.86120833 253.062458,9.86120833 C254.520917,9.86120833 255.683333,10.37475 256.550917,11.241125 C257.871625,12.5618333 257.970708,13.7834583 257.970708,16.9964167 C257.970708,20.209375 257.871625,21.431 256.550917,22.7517083 L256.550917,22.7517083 Z" id="Fill-15" fill="#000000"></path>
                <polyline id="Fill-16" fill="#000000" points="271.923333 24.0132083 271.923333 13.3496667 268.079625 21.8055833 266.797583 21.8055833 262.895875 13.3496667 262.895875 24.0132083 261.397542 24.0132083 261.397542 9.979625 262.895875 9.979625 267.468208 19.933875 271.923333 9.979625 273.420458 9.979625 273.420458 24.0132083 271.923333 24.0132083"></polyline>
                <polyline id="Fill-17" fill="#000000" points="277.378958 24.0132083 277.378958 9.979625 286.091042 9.979625 286.091042 11.3196667 278.877292 11.3196667 278.877292 16.2665833 285.0265 16.2665833 285.0265 17.6078333 278.877292 17.6078333 278.877292 22.6731667 286.091042 22.6731667 286.091042 24.0132083 277.378958 24.0132083"></polyline>
                <path d="M300.711875,12.18725 C300.061792,11.5371667 299.232875,11.2024583 298.287958,11.2024583 C297.341833,11.2024583 296.512917,11.5371667 295.862833,12.18725 C294.975917,13.0935 294.878042,14.119375 294.878042,16.9964167 C294.878042,19.8746667 294.975917,20.8993333 295.862833,21.8055833 C296.512917,22.4556667 297.341833,22.7915833 298.287958,22.7915833 C299.232875,22.7915833 300.061792,22.4556667 300.711875,21.8055833 C301.598792,20.8993333 301.696667,19.8746667 301.696667,16.9964167 C301.696667,14.119375 301.598792,13.0935 300.711875,12.18725 L300.711875,12.18725 Z M301.776417,22.7517083 C300.908833,23.6192917 299.746417,24.131625 298.287958,24.131625 C296.828292,24.131625 295.645333,23.6192917 294.778958,22.7517083 C293.45825,21.431 293.3785,20.209375 293.3785,16.9964167 C293.3785,13.7834583 293.45825,12.5618333 294.778958,11.241125 C295.645333,10.37475 296.828292,9.86120833 298.287958,9.86120833 C299.746417,9.86120833 300.908833,10.37475 301.776417,11.241125 C303.095917,12.5618333 303.195,13.7834583 303.195,16.9964167 C303.195,20.209375 303.095917,21.431 301.776417,22.7517083 L301.776417,22.7517083 Z" id="Fill-18" fill="#000000"></path>
                <polyline id="Fill-19" fill="#000000" points="308.121375 11.3196667 308.121375 16.4840833 314.270583 16.4840833 314.270583 17.824125 308.121375 17.824125 308.121375 24.0132083 306.621833 24.0132083 306.621833 9.979625 315.333917 9.979625 315.333917 11.3196667 308.121375 11.3196667"></polyline>
                <polyline id="Fill-20" fill="#000000" points="326.38775 11.3196667 326.38775 24.0132083 324.890625 24.0132083 324.890625 11.3196667 320.829417 11.3196667 320.829417 9.979625 330.44775 9.979625 330.44775 11.3196667 326.38775 11.3196667"></polyline>
                <polyline id="Fill-21" fill="#000000" points="341.129417 24.0132083 341.129417 17.6078333 334.466667 17.6078333 334.466667 24.0132083 332.968333 24.0132083 332.968333 9.979625 334.466667 9.979625 334.466667 16.2665833 341.129417 16.2665833 341.129417 9.979625 342.626542 9.979625 342.626542 24.0132083 341.129417 24.0132083"></polyline>
                <polyline id="Fill-22" fill="#000000" points="346.585042 24.0132083 346.585042 9.979625 355.297125 9.979625 355.297125 11.3196667 348.083375 11.3196667 348.083375 16.2665833 354.232583 16.2665833 354.232583 17.6078333 348.083375 17.6078333 348.083375 22.6731667 355.297125 22.6731667 355.297125 24.0132083 346.585042 24.0132083"></polyline>
                <path d="M364.670167,24.13525 C363.110208,24.13525 362.037208,23.72925 360.963,22.65625 L362.82625,20.8123333 C363.292667,21.2775417 363.738542,21.6219167 364.670167,21.6219167 C366.048875,21.6219167 366.939417,20.8123333 366.939417,19.150875 L366.939417,9.58570833 L369.756042,9.58570833 L369.756042,19.2717083 C369.756042,22.45325 367.345417,24.13525 364.670167,24.13525" id="Fill-23" fill="#000000"></path>
                <path d="M377.863958,13.8414583 L376.041792,19.08925 L379.626917,19.08925 L377.863958,13.8414583 L377.863958,13.8414583 Z M381.229167,24.0132083 L380.377292,21.46 L375.250333,21.46 L374.380333,24.0132083 L371.441667,24.0132083 L376.689458,9.58570833 L378.898292,9.58570833 L384.166625,24.0132083 L381.229167,24.0132083 L381.229167,24.0132083 Z" id="Fill-24" fill="#000000"></path>
                <path d="M390.8765,24.13525 C389.215042,24.13525 387.999458,23.587875 387.007417,22.6151667 C385.567083,21.1760417 385.54775,19.5556667 385.54775,16.7994583 C385.54775,14.0444583 385.567083,12.422875 387.007417,10.98375 C387.999458,10.0110417 389.215042,9.464875 390.8765,9.464875 C393.571083,9.464875 395.638542,11.0042917 396.165375,14.0239167 L393.288333,14.0239167 C393.004375,12.8482083 392.274542,11.977 390.8765,11.977 C390.106792,11.977 389.478458,12.2609583 389.073667,12.727375 C388.546833,13.3351667 388.364375,14.0444583 388.364375,16.7994583 C388.364375,19.5556667 388.546833,20.2649583 389.073667,20.87275 C389.478458,21.3391667 390.106792,21.6219167 390.8765,21.6219167 C392.274542,21.6219167 393.024917,20.7507083 393.308875,19.5762083 L396.165375,19.5762083 C395.638542,22.594625 393.55175,24.13525 390.8765,24.13525" id="Fill-25" fill="#000000"></path>
                <path d="M405.329375,12.7467083 C404.923375,12.2815 404.295042,11.977 403.525333,11.977 C402.755625,11.977 402.126083,12.2815 401.701958,12.7467083 C401.173917,13.3545 401.013208,14.0444583 401.013208,16.7994583 C401.013208,19.5556667 401.173917,20.223875 401.701958,20.8316667 C402.126083,21.2980833 402.755625,21.6219167 403.525333,21.6219167 C404.295042,21.6219167 404.923375,21.2980833 405.329375,20.8316667 C405.855,20.223875 406.038667,19.5556667 406.038667,16.7994583 C406.038667,14.0444583 405.855,13.3545 405.329375,12.7467083 L405.329375,12.7467083 Z M407.375083,22.6151667 C406.403583,23.587875 405.186792,24.13525 403.525333,24.13525 C401.863875,24.13525 400.62775,23.587875 399.65625,22.6151667 C398.215917,21.1760417 398.196583,19.5556667 398.196583,16.7994583 C398.196583,14.0444583 398.215917,12.422875 399.65625,10.98375 C400.62775,10.0110417 401.863875,9.464875 403.525333,9.464875 C405.186792,9.464875 406.403583,10.0110417 407.375083,10.98375 C408.814208,12.422875 408.855292,14.0444583 408.855292,16.7994583 C408.855292,19.5556667 408.814208,21.1760417 407.375083,22.6151667 L407.375083,22.6151667 Z" id="Fill-26" fill="#000000"></path>
                <path d="M417.572208,17.954625 L414.633542,17.954625 L414.633542,21.499875 L417.572208,21.499875 C418.848208,21.499875 419.456,20.6902917 419.456,19.7175833 C419.456,18.744875 418.848208,17.954625 417.572208,17.954625 L417.572208,17.954625 Z M417.38975,12.0990417 L414.633542,12.0990417 L414.633542,15.4219583 L417.38975,15.4219583 C418.586,15.4219583 419.253,14.7525417 419.253,13.7605 C419.253,12.76725 418.586,12.0990417 417.38975,12.0990417 L417.38975,12.0990417 Z M417.854958,24.0132083 L411.816917,24.0132083 L411.816917,9.58570833 L417.612083,9.58570833 C420.428708,9.58570833 422.069625,11.1662083 422.069625,13.6384583 C422.069625,15.2395 421.015958,16.272625 420.287333,16.6182083 C421.158542,17.023 422.272625,17.9340833 422.272625,19.8601667 C422.272625,22.55475 420.428708,24.0132083 417.854958,24.0132083 L417.854958,24.0132083 Z" id="Fill-27" fill="#000000"></path>
                <path d="M429.20725,24.13525 C427.01775,24.13525 425.356292,23.6688333 423.937708,22.2297083 L425.762292,20.4063333 C426.673375,21.318625 427.9095,21.6219167 429.226583,21.6219167 C430.908583,21.6219167 431.800333,20.9730417 431.800333,19.8190833 C431.800333,19.3333333 431.658958,18.9273333 431.354458,18.6240417 C431.071708,18.3594167 430.786542,18.2385833 430.057917,18.1370833 L428.336042,17.8736667 C427.058833,17.6912083 426.187625,17.30575 425.53875,16.678625 C424.85,16.0092083 424.505625,15.0570417 424.505625,13.8414583 C424.505625,11.2677083 426.409958,9.464875 429.531083,9.464875 C431.517583,9.464875 432.9555,9.950625 434.191625,11.146875 L432.408125,12.9098333 C431.517583,12.0374167 430.402292,11.9165833 429.450125,11.9165833 C427.950583,11.9165833 427.241292,12.7467083 427.241292,13.7399583 C427.241292,14.1242083 427.342792,14.489125 427.647292,14.7730833 C427.930042,15.0365 428.356583,15.2395 428.963167,15.3204583 L430.68625,15.583875 C432.003333,15.7663333 432.814125,16.1107083 433.442458,16.7185 C434.210958,17.4277917 434.555333,18.4609167 434.555333,19.7586667 C434.555333,22.55475 432.246208,24.13525 429.20725,24.13525" id="Fill-28" fill="#000000"></path>
                <polyline id="Fill-29" fill="#000000" points="240.233583 36.8722917 240.233583 48.7876667 237.416958 48.7876667 237.416958 36.8722917 233.648167 36.8722917 233.648167 34.3601667 244.002375 34.3601667 244.002375 36.8722917 240.233583 36.8722917"></polyline>
                <polyline id="Fill-30" fill="#000000" points="246.37675 48.7876667 246.37675 34.3601667 255.880292 34.3601667 255.880292 36.8722917 249.193375 36.8722917 249.193375 40.255625 254.887042 40.255625 254.887042 42.7689583 249.193375 42.7689583 249.193375 46.2743333 255.880292 46.2743333 255.880292 48.7876667 246.37675 48.7876667"></polyline>
                <path d="M263.562875,48.9085 C261.901417,48.9085 260.685833,48.3623333 259.693792,47.3884167 C258.253458,45.9505 258.234125,44.3289167 258.234125,41.5739167 C258.234125,38.8177083 258.253458,37.196125 259.693792,35.7582083 C260.685833,34.7855 261.901417,34.238125 263.562875,34.238125 C266.257458,34.238125 268.324917,35.7775417 268.85175,38.7971667 L265.974708,38.7971667 C265.689542,37.6226667 264.960917,36.7514583 263.562875,36.7514583 C262.793167,36.7514583 262.163625,37.0342083 261.758833,37.500625 C261.233208,38.1084167 261.05075,38.8177083 261.05075,41.5739167 C261.05075,44.3289167 261.233208,45.0382083 261.758833,45.646 C262.163625,46.1124167 262.793167,46.396375 263.562875,46.396375 C264.960917,46.396375 265.711292,45.5251667 265.994042,44.3494583 L268.85175,44.3494583 C268.324917,47.3690833 266.238125,48.9085 263.562875,48.9085" id="Fill-31" fill="#000000"></path>
                <polyline id="Fill-32" fill="#000000" points="279.069417 48.7876667 279.069417 42.7484167 274.185333 42.7484167 274.185333 48.7876667 271.368708 48.7876667 271.368708 34.3601667 274.185333 34.3601667 274.185333 40.255625 279.069417 40.255625 279.069417 34.3601667 281.884833 34.3601667 281.884833 48.7876667 279.069417 48.7876667"></polyline>
                <polyline id="Fill-33" fill="#000000" points="293.865458 48.7876667 288.150042 39.9317917 288.150042 48.7876667 285.333417 48.7876667 285.333417 34.3601667 287.84675 34.3601667 293.560958 43.1942917 293.560958 34.3601667 296.377583 34.3601667 296.377583 48.7876667 293.865458 48.7876667"></polyline>
                <polygon id="Fill-34" fill="#000000" points="299.826167 48.7876667 302.642792 48.7876667 302.642792 34.3601667 299.826167 34.3601667"></polygon>
                <path d="M312.736,37.5211667 C312.33,37.05475 311.702875,36.7514583 310.931958,36.7514583 C310.16225,36.7514583 309.533917,37.05475 309.108583,37.5211667 C308.58175,38.1289583 308.419833,38.8177083 308.419833,41.5739167 C308.419833,44.3289167 308.58175,44.9983333 309.108583,45.606125 C309.533917,46.0713333 310.16225,46.396375 310.931958,46.396375 C311.702875,46.396375 312.33,46.0713333 312.736,45.606125 C313.262833,44.9983333 313.445292,44.3289167 313.445292,41.5739167 C313.445292,38.8177083 313.262833,38.1289583 312.736,37.5211667 L312.736,37.5211667 Z M314.781708,47.3884167 C313.810208,48.3623333 312.593417,48.9085 310.931958,48.9085 C309.2705,48.9085 308.034375,48.3623333 307.062875,47.3884167 C305.622542,45.9505 305.603208,44.3289167 305.603208,41.5739167 C305.603208,38.8177083 305.622542,37.196125 307.062875,35.7582083 C308.034375,34.7855 309.2705,34.238125 310.931958,34.238125 C312.593417,34.238125 313.810208,34.7855 314.781708,35.7582083 C316.220833,37.196125 316.261917,38.8177083 316.261917,41.5739167 C316.261917,44.3289167 316.220833,45.9505 314.781708,47.3884167 L314.781708,47.3884167 Z" id="Fill-35" fill="#000000"></path>
                <polyline id="Fill-36" fill="#000000" points="327.755583 48.7876667 322.040167 39.9317917 322.040167 48.7876667 319.223542 48.7876667 319.223542 34.3601667 321.736875 34.3601667 327.451083 43.1942917 327.451083 34.3601667 330.267708 34.3601667 330.267708 48.7876667 327.755583 48.7876667"></polyline>
                <polygon id="Fill-37" fill="#000000" points="333.230542 42.8100417 339.471583 42.8100417 339.471583 40.3583333 333.230542 40.3583333"></polygon>
                <path d="M347.781292,48.9085 C346.119833,48.9085 344.90425,48.3623333 343.912208,47.3884167 C342.471875,45.9505 342.452542,44.3289167 342.452542,41.5739167 C342.452542,38.8177083 342.471875,37.196125 343.912208,35.7582083 C344.90425,34.7855 346.119833,34.238125 347.781292,34.238125 C350.475875,34.238125 352.543333,35.7775417 353.070167,38.7971667 L350.193125,38.7971667 C349.909167,37.6226667 349.179333,36.7514583 347.781292,36.7514583 C347.011583,36.7514583 346.38325,37.0342083 345.978458,37.500625 C345.451625,38.1084167 345.269167,38.8177083 345.269167,41.5739167 C345.269167,44.3289167 345.451625,45.0382083 345.978458,45.646 C346.38325,46.1124167 347.011583,46.396375 347.781292,46.396375 C349.179333,46.396375 349.929708,45.5251667 350.213667,44.3494583 L353.070167,44.3494583 C352.543333,47.3690833 350.456542,48.9085 347.781292,48.9085" id="Fill-38" fill="#000000"></path>
                <path d="M362.234167,37.5211667 C361.828167,37.05475 361.199833,36.7514583 360.430125,36.7514583 C359.660417,36.7514583 359.030875,37.05475 358.60675,37.5211667 C358.078708,38.1289583 357.918,38.8177083 357.918,41.5739167 C357.918,44.3289167 358.078708,44.9983333 358.60675,45.606125 C359.030875,46.0713333 359.660417,46.396375 360.430125,46.396375 C361.199833,46.396375 361.828167,46.0713333 362.234167,45.606125 C362.759792,44.9983333 362.943458,44.3289167 362.943458,41.5739167 C362.943458,38.8177083 362.759792,38.1289583 362.234167,37.5211667 L362.234167,37.5211667 Z M364.279875,47.3884167 C363.308375,48.3623333 362.091583,48.9085 360.430125,48.9085 C358.768667,48.9085 357.532542,48.3623333 356.561042,47.3884167 C355.120708,45.9505 355.101375,44.3289167 355.101375,41.5739167 C355.101375,38.8177083 355.120708,37.196125 356.561042,35.7582083 C357.532542,34.7855 358.768667,34.238125 360.430125,34.238125 C362.091583,34.238125 363.308375,34.7855 364.279875,35.7582083 C365.719,37.196125 365.760083,38.8177083 365.760083,41.5739167 C365.760083,44.3289167 365.719,45.9505 364.279875,47.3884167 L364.279875,47.3884167 Z" id="Fill-39" fill="#000000"></path>
                <path d="M374.191833,36.8722917 L371.537125,36.8722917 L371.537125,40.6821667 L374.191833,40.6821667 C375.427958,40.6821667 376.23875,39.8919167 376.23875,38.776625 C376.23875,37.6625417 375.427958,36.8722917 374.191833,36.8722917 L374.191833,36.8722917 Z M376.380125,48.7876667 L373.5635,43.032375 L371.537125,43.032375 L371.537125,48.7876667 L368.7205,48.7876667 L368.7205,34.3601667 L374.374292,34.3601667 C377.31175,34.3601667 379.055375,36.366 379.055375,38.776625 C379.055375,40.8042083 377.818042,42.0596667 376.421208,42.5659583 L379.642625,48.7876667 L376.380125,48.7876667 L376.380125,48.7876667 Z" id="Fill-40" fill="#000000"></path>
                <polyline id="Fill-41" fill="#000000" points="390.590125 48.7876667 384.874708 39.9317917 384.874708 48.7876667 382.058083 48.7876667 382.058083 34.3601667 384.571417 34.3601667 390.285625 43.1942917 390.285625 34.3601667 393.10225 34.3601667 393.10225 48.7876667 390.590125 48.7876667"></polyline>
                <polyline id="Fill-42" fill="#000000" points="396.550833 48.7876667 396.550833 34.3601667 406.054375 34.3601667 406.054375 36.8722917 399.367458 36.8722917 399.367458 40.255625 405.061125 40.255625 405.061125 42.7689583 399.367458 42.7689583 399.367458 46.2743333 406.054375 46.2743333 406.054375 48.7876667 396.550833 48.7876667"></polyline>
                <polyline id="Fill-43" fill="#000000" points="408.893958 48.7876667 408.893958 34.3601667 411.710583 34.3601667 411.710583 46.2743333 418.256125 46.2743333 418.256125 48.7876667 408.893958 48.7876667"></polyline>
                <polyline id="Fill-44" fill="#000000" points="420.6305 48.7876667 420.6305 34.3601667 423.447125 34.3601667 423.447125 46.2743333 429.992667 46.2743333 429.992667 48.7876667 420.6305 48.7876667"></polyline>
                <polygon id="Fill-45" fill="#000000" points="234.722375 73.5609167 237.539 73.5609167 237.539 59.1334167 234.722375 59.1334167"></polygon>
                <polyline id="Fill-46" fill="#000000" points="249.517208 73.5609167 243.801792 64.7050417 243.801792 73.5609167 240.985167 73.5609167 240.985167 59.1334167 243.4985 59.1334167 249.212708 67.9675417 249.212708 59.1334167 252.029333 59.1334167 252.029333 73.5609167 249.517208 73.5609167"></polyline>
                <path d="M259.4485,73.68175 C257.260208,73.68175 255.59875,73.2153333 254.180167,71.7774167 L256.00475,69.9540417 C256.915833,70.865125 258.151958,71.1684167 259.469042,71.1684167 C261.151042,71.1684167 262.042792,70.52075 262.042792,69.3655833 C262.042792,68.8798333 261.901417,68.4738333 261.596917,68.1705417 C261.312958,67.907125 261.029,67.7850833 260.299167,67.6835833 L258.5785,67.421375 C257.301292,67.2389167 256.428875,66.8534583 255.781208,66.225125 C255.092458,65.5557083 254.748083,64.6035417 254.748083,63.3879583 C254.748083,60.8154167 256.652417,59.011375 259.773542,59.011375 C261.758833,59.011375 263.197958,59.497125 264.432875,60.693375 L262.650583,62.4563333 C261.758833,61.585125 260.64475,61.4630833 259.692583,61.4630833 C258.191833,61.4630833 257.482542,62.2944167 257.482542,63.2876667 C257.482542,63.6719167 257.584042,64.0368333 257.888542,64.3195833 C258.1725,64.5842083 258.597833,64.786 259.205625,64.8681667 L260.9275,65.130375 C262.245792,65.3128333 263.056583,65.6572083 263.683708,66.265 C264.453417,66.9742917 264.797792,68.008625 264.797792,69.3051667 C264.797792,72.10125 262.488667,73.68175 259.4485,73.68175" id="Fill-47" fill="#000000"></path>
                <polyline id="Fill-48" fill="#000000" points="272.542 61.6455417 272.542 73.5609167 269.725375 73.5609167 269.725375 61.6455417 265.956583 61.6455417 265.956583 59.1334167 276.310792 59.1334167 276.310792 61.6455417 272.542 61.6455417"></polyline>
                <polygon id="Fill-49" fill="#000000" points="278.683958 73.5609167 281.500583 73.5609167 281.500583 59.1334167 278.683958 59.1334167"></polygon>
                <polyline id="Fill-50" fill="#000000" points="290.459167 61.6455417 290.459167 73.5609167 287.642542 73.5609167 287.642542 61.6455417 283.87375 61.6455417 283.87375 59.1334167 294.229167 59.1334167 294.229167 61.6455417 290.459167 61.6455417"></polyline>
                <path d="M301.688208,73.68175 C298.730208,73.68175 296.38,71.6759167 296.38,68.6164167 L296.38,59.1334167 L299.196625,59.1334167 L299.196625,68.5149167 C299.196625,70.176375 300.170542,71.1684167 301.688208,71.1684167 C303.208292,71.1684167 304.201542,70.176375 304.201542,68.5149167 L304.201542,59.1334167 L306.997625,59.1334167 L306.997625,68.6164167 C306.997625,71.6759167 304.647417,73.68175 301.688208,73.68175" id="Fill-51" fill="#000000"></path>
                <polyline id="Fill-52" fill="#000000" points="315.735083 61.6455417 315.735083 73.5609167 312.918458 73.5609167 312.918458 61.6455417 309.149667 61.6455417 309.149667 59.1334167 319.505083 59.1334167 319.505083 61.6455417 315.735083 61.6455417"></polyline>
                <polyline id="Fill-53" fill="#000000" points="321.877042 73.5609167 321.877042 59.1334167 331.381792 59.1334167 331.381792 61.6455417 324.693667 61.6455417 324.693667 65.0300833 330.387333 65.0300833 330.387333 67.5422083 324.693667 67.5422083 324.693667 71.0475833 331.381792 71.0475833 331.381792 73.5609167 321.877042 73.5609167"></polyline>
                <path d="M219,0.470041667 L219,83.074125" id="Stroke-54" stroke="#000000" stroke-width="1.0250001"></path>
            </g>
        </g>
    </g>
</svg>