<?xml version="1.0" encoding="UTF-8"?>
<svg width="500px" height="188px" viewBox="0 0 500 188" version="1.1" xmlns="http://www.w3.org/2000/svg" xmlns:xlink="http://www.w3.org/1999/xlink">
    <!-- Generator: Sketch 40.1 (33804) - http://www.bohemiancoding.com/sketch -->
    <title>johnson-white</title>
    <desc>Created with Sketch.</desc>
    <defs>
        <polygon id="path-1" points="77.8610837 78.9332394 0.0665024631 78.9332394 0.0665024631 0.836732394 38.9637931 0.836732394 77.8610837 0.836732394"></polygon>
    </defs>
    <g id="logos" stroke="none" stroke-width="1" fill="none" fill-rule="evenodd">
        <g id="johnson-white">
            <g id="JohnsonCornellTech_Horizontal_Black" transform="translate(25.000000, 55.000000)">
                <g id="Group-3">
                    <mask id="mask-2" fill="white">
                        <use xlink:href="#path-1"></use>
                    </mask>
                    <g id="Clip-2"></g>
                    <path d="M77.8610837,39.9217042 C77.8610837,18.369169 60.3997537,0.836732394 38.9305419,0.836732394 C17.4624384,0.836732394 0,18.369169 0,39.9217042 C0,61.4675634 17.4624384,79 38.9305419,79 C60.3997537,79 77.8610837,61.4675634 77.8610837,39.9217042 L77.8610837,39.9217042 Z M76.8435961,39.9217042 C76.8435961,60.9112254 59.8355911,77.9819014 38.9305419,77.9819014 C18.0254926,77.9819014 1.01748768,60.9112254 1.01748768,39.9217042 C1.01748768,18.9344085 18.0254926,1.85816901 38.9305419,1.85816901 C59.8355911,1.85816901 76.8435961,18.9344085 76.8435961,39.9217042 L76.8435961,39.9217042 Z M74.9493842,39.2908169 L72.8878079,38.2671549 L74.8230296,37.0443239 L74.7288177,35.3608451 L71.4181034,37.5984366 L69.2002463,37.7219437 L69.282266,39.1584085 L71.5001232,39.0326761 L75.0314039,40.8519014 L74.9493842,39.2908169 L74.9493842,39.2908169 Z M73.2103448,33.6973944 L74.3918719,33.4058732 L73.3389163,29.109831 L72.1507389,29.4013521 L72.5087438,30.8500563 L68.2093596,31.9104366 L68.5496305,33.3112958 L72.8523399,32.2453521 L73.2103448,33.6973944 L73.2103448,33.6973944 Z M67.2594828,28.9863239 L72.4887931,26.8455352 L71.9456897,25.5147746 L66.7197044,27.6589014 L67.2594828,28.9863239 L67.2594828,28.9863239 Z M69.379803,23.4340704 L70.5524631,22.9010986 L70.5236453,22.7442113 C70.4383005,22.3414225 70.2775862,21.9408592 70.0304187,21.5169296 C69.4152709,20.4776901 68.4055419,20.141662 67.4612069,20.701338 C66.4935961,21.2754789 66.6343596,22.1967746 66.7374384,22.868831 C66.825,23.3984648 66.860468,23.7100141 66.6133005,23.854662 C66.3350985,24.019338 65.9892857,23.7400563 65.8307882,23.4752394 C65.6545567,23.1714789 65.5525862,22.7942817 65.5403941,22.3881549 L65.528202,22.0910704 L64.2380542,22.6919155 L64.3289409,22.9800986 C64.4552956,23.418493 64.5339901,23.6833099 64.8099754,24.1495211 C65.267734,24.929507 65.880665,25.359 66.529064,25.359 C66.8305419,25.359 67.1331281,25.2710986 67.4357143,25.0852817 C68.435468,24.493338 68.2802956,23.5509014 68.1650246,22.8621549 C68.08633,22.3770282 68.0486453,22.0732676 68.2503695,21.9530986 C68.3501232,21.8963521 68.444335,21.8674225 68.5318966,21.8674225 C68.7934729,21.8674225 68.9630542,22.1144366 69.0273399,22.2179155 C69.1913793,22.4971972 69.2977833,22.8298873 69.344335,23.1681408 L69.379803,23.4340704 L69.379803,23.4340704 Z M66.0447044,18.5605493 C67.2594828,17.4857042 66.2885468,16.3730282 65.5791872,15.5607746 L64.6492611,14.5003944 L60.4019704,18.2400986 L61.3496305,19.317169 L62.9889163,17.8718028 L63.079803,17.977507 C63.2915025,18.2189577 63.2970443,18.3224366 63.1241379,18.6584648 L62.2352217,20.3386056 L63.2826355,21.5313944 L64.4109606,19.2737746 C64.4497537,19.1914366 64.5317734,19.0145211 64.5583744,18.8142394 C65.0416256,19.0256479 65.6224138,18.9288451 66.0447044,18.5605493 L66.0447044,18.5605493 Z M65.1624384,17.2153239 C65.1591133,17.3154648 65.1036946,17.4100423 64.9950739,17.503507 C64.8897783,17.5980845 64.7900246,17.6448169 64.6836207,17.6448169 C64.4442118,17.6448169 64.1915025,17.3944648 64.0008621,17.177493 L63.9066502,17.0684507 L64.6725369,16.387493 L64.7722906,16.4998732 C64.971798,16.7357606 65.1823892,16.9972394 65.1624384,17.2153239 L65.1624384,17.2153239 Z M61.7253695,13.426662 L62.479064,12.4630845 L59.7602217,10.3289718 L56.2810345,14.7952535 L59.012069,16.9382676 L59.7657635,15.9758028 L58.1586207,14.7184789 L58.8269704,13.8561549 L60.282266,15.0010986 L61.0359606,14.0386338 L59.5784483,12.8936901 L60.1326355,12.1782394 L61.7253695,13.426662 L61.7253695,13.426662 Z M53.3748768,13.0439014 L57.5988916,8.83353521 L56.3076355,8.17928169 L53.5832512,10.9643099 L54.1873153,7.10777465 L52.8240148,6.41012676 L51.9849754,12.3429155 L53.3748768,13.0439014 L53.3748768,13.0439014 Z M48.8261084,11.0555493 L50.5185961,5.64683099 L49.1541872,5.21177465 L47.4594828,10.6260563 L48.8261084,11.0555493 L48.8261084,11.0555493 Z M45.520936,10.0519155 L46.2779557,4.43178873 L44.9046798,4.24597183 L44.4591133,7.5606338 L43.2387931,4.02232394 L41.6671182,3.80757746 L40.9100985,9.43104225 L42.2833744,9.61574648 L42.7289409,6.29774648 L43.9492611,9.84050704 L45.520936,10.0519155 L45.520936,10.0519155 Z M38.9305419,11.3448451 C23.2337438,11.3448451 10.4674877,24.1606479 10.4674877,39.9183662 C10.4674877,55.6783099 23.2337438,68.4985634 38.9305419,68.4985634 C54.6273399,68.4985634 67.3935961,55.6783099 67.3935961,39.9183662 C67.3935961,24.1606479 54.6273399,11.3448451 38.9305419,11.3448451 L38.9305419,11.3448451 Z M66.4115764,39.9183662 C66.4115764,55.1286479 54.0820197,67.5060563 38.9305419,67.5060563 C23.7768473,67.5060563 11.4495074,55.1286479 11.4495074,39.9183662 C11.4495074,24.7114225 23.7768473,12.3340141 38.9305419,12.3340141 C54.0820197,12.3340141 66.4115764,24.7114225 66.4115764,39.9183662 L66.4115764,39.9183662 Z M57.4924877,45.3126197 L57.4869458,20.6301268 L20.655665,20.6334648 L20.655665,44.8853521 C20.655665,50.5088169 23.805665,55.976507 29.7687192,60.7020423 C34.2033251,64.2114225 38.5725369,66.0695915 38.7576355,66.1452535 L39.0945813,66.2865634 L39.4326355,66.1430282 C39.6199507,66.0606901 43.9725369,64.1791549 48.3916256,60.7076056 C54.3458128,56.0321408 57.4924877,50.7090986 57.4924877,45.3126197 L57.4924877,45.3126197 Z M39.7485222,41.5584507 C39.833867,41.519507 39.9336207,41.478338 40.0721675,41.4460704 C40.0799261,41.4438451 40.7903941,41.2991972 41.5729064,41.3937746 C42.0428571,41.4316056 42.4762315,41.4761127 42.8807882,41.5228451 C43.614532,41.5996197 44.2485222,41.667493 44.8259852,41.6852958 C45.4089901,41.6964225 45.8900246,41.6964225 46.2979064,41.6964225 L46.6470443,41.6964225 L46.6503695,53.3027465 C46.3156404,53.3083099 45.8756158,53.3149859 45.3857143,53.3027465 C44.3183498,53.2793803 43.5912562,53.211507 42.8896552,53.1491972 C42.1714286,53.0824366 41.5263547,53.0201268 40.5731527,53.0234648 C40.2362069,53.0234648 39.9724138,53.0969014 39.7485222,53.1937042 L39.7485222,41.5584507 L39.7485222,41.5584507 Z M22.3980296,36.6504366 L38.2566502,36.6504366 L38.2566502,40.1420141 C37.998399,40.0952817 37.270197,39.9884648 36.4732759,40.0830423 C36.0011084,40.1242113 35.5644089,40.1720563 35.1498768,40.2154507 C34.4438424,40.2922254 33.8331281,40.3567606 33.308867,40.369 C32.6394089,40.3868028 32.1084975,40.3868028 31.6684729,40.3868028 C31.3525862,40.3868028 31.0821429,40.3868028 30.8482759,40.3890282 L30.2087438,40.4046056 L30.2087438,43.7782394 L28.6426108,43.7782394 L28.6426108,45.6097042 L30.2087438,45.6097042 L30.2087438,48.9811127 L28.6426108,48.9811127 L28.6426108,50.8092394 L30.2087438,50.8092394 L30.2087438,54.5600704 L30.8238916,54.592338 C30.8626847,54.5956761 31.7128079,54.6390704 32.8123153,54.6157042 C33.9240148,54.592338 34.7043103,54.5189014 35.3937192,54.4565915 C36.1030788,54.3920563 36.7160099,54.3364225 37.5550493,54.3364225 C37.8831281,54.3308592 37.9917488,54.4332254 38.1713054,54.6602113 C38.1945813,54.6891408 38.2267241,54.7247465 38.2566502,54.7570141 L38.2566502,63.9788732 C34.4116995,62.0828732 22.3980296,55.3133521 22.3980296,44.8853521 L22.3980296,36.6504366 L22.3980296,36.6504366 Z M37.5960591,53.0234648 L37.5550493,53.0234648 C36.657266,53.0234648 35.9889163,53.084662 35.2762315,53.1469718 C34.5757389,53.211507 33.8475369,53.2793803 32.7801724,53.3027465 C32.2902709,53.3149859 31.8502463,53.3083099 31.5166256,53.3027465 L31.5166256,41.6964225 L31.6684729,41.6964225 C32.1118227,41.6997606 32.6571429,41.6964225 33.3410099,41.6852958 C33.9184729,41.667493 34.5524631,41.5996197 35.2884236,41.519507 C35.6929803,41.4761127 36.1241379,41.4316056 36.6051724,41.3904366 C37.3710591,41.3047606 38.0748768,41.4438451 38.0748768,41.4438451 C38.1480296,41.4616479 38.1979064,41.4816761 38.2566502,41.5028169 L38.2566502,53.1380704 C38.0660099,53.0701972 37.8576355,53.0234648 37.5960591,53.0234648 L37.5960591,53.0234648 Z M55.7445813,34.8957465 L22.4013547,34.8957465 L22.4013547,22.3859296 L55.7445813,22.3825915 L55.7445813,34.8957465 L55.7445813,34.8957465 Z M55.7479064,45.3126197 C55.7479064,55.416831 43.3884236,62.2653521 39.7485222,64.0612113 L39.7485222,54.8693944 C39.8194581,54.8015211 39.8815271,54.7369859 39.9314039,54.6780141 C40.112069,54.465493 40.2273399,54.3364225 40.5764778,54.3364225 C41.417734,54.3475493 42.0517241,54.3887183 42.7732759,54.4565915 C43.4615764,54.5189014 44.2418719,54.592338 45.3535714,54.6157042 C46.4508621,54.6424085 47.3043103,54.5956761 47.33867,54.592338 L47.9582512,54.5600704 L47.9582512,51.1274648 L49.4068966,51.1274648 L49.4068966,49.292662 L47.9582512,49.292662 L47.9582512,45.9690986 L49.4068966,45.9690986 L49.4068966,44.1398592 L47.9549261,44.1398592 L47.9549261,40.4046056 L47.3187192,40.3890282 C47.0837438,40.3834648 46.8144089,40.3834648 46.4974138,40.3868028 C46.054064,40.3801268 45.5264778,40.3868028 44.8581281,40.369 C44.3360837,40.3567606 43.7264778,40.2922254 43.019335,40.2154507 C42.6081281,40.1720563 42.1658867,40.1242113 41.704803,40.0830423 C40.7172414,39.9717746 39.842734,40.1509155 39.7906404,40.1631549 C39.7751232,40.1687183 39.7640394,40.1720563 39.7485222,40.1776197 L39.7485222,36.6504366 L55.7479064,36.6504366 L55.7479064,45.3126197 L55.7479064,45.3126197 Z M27.0144089,24.2930563 C27.0121921,26.3337042 27.008867,29.7841127 27.0232759,29.9432254 C27.0676108,30.6497746 27.5331281,31.2884507 28.4453202,31.8981972 C29.5692118,32.6548169 31.2439655,33.6417606 31.3137931,33.6829296 L31.6341133,33.8709718 L31.9566502,33.6907183 C32.0331281,33.6495493 33.8397783,32.6603803 34.9681034,31.8981972 C36.2881773,31.0147324 36.3114532,30.2113803 36.3203202,29.9432254 C36.3325123,29.7963521 36.3291872,26.7899014 36.3203202,24.2930563 L36.3203202,23.6399155 L27.0144089,23.6399155 L27.0144089,24.2930563 L27.0144089,24.2930563 Z M35.0179803,26.6519296 L28.3222906,26.6519296 C28.3222906,26.0800141 28.3256158,25.4969718 28.3256158,24.9495352 L35.0157635,24.9495352 C35.0179803,25.4947465 35.0179803,26.0800141 35.0179803,26.6519296 L35.0179803,26.6519296 Z M28.3222906,27.9648873 L35.0179803,27.9648873 C35.0179803,28.9863239 35.0179803,29.7807746 35.0124384,29.9053944 C35.0035714,30.2314085 34.5868227,30.576338 34.2410099,30.8088873 C33.4374384,31.3507606 32.2293103,32.039507 31.6573892,32.3599577 C31.112069,32.0339437 29.9793103,31.3507606 29.1757389,30.8055493 C28.6514778,30.4583944 28.3433498,30.1112394 28.3256158,29.8553239 C28.3222906,29.7607465 28.3222906,28.9807606 28.3222906,27.9648873 L28.3222906,27.9648873 Z M42.6435961,24.016 C42.6402709,26.5807183 42.6402709,29.6639437 42.6524631,29.8230563 C42.705665,30.535169 43.1800493,31.1883099 44.1077586,31.8102958 C45.2571429,32.5847183 46.9729064,33.5939155 47.0460591,33.6384225 L47.3652709,33.8264648 L47.6878079,33.6473239 C47.7642857,33.6061549 49.6208128,32.5936197 50.7823892,31.8102958 C52.1346059,30.9034648 52.1545567,30.0811972 52.1578818,29.8074789 C52.1700739,29.6639437 52.1667488,26.578493 52.1612069,24.016 L52.1578818,23.3595211 L42.6435961,23.3595211 L42.6435961,24.016 L42.6435961,24.016 Z M43.954803,29.3813239 L47.2511084,26.9901831 L50.8555419,29.4013521 C50.8555419,29.6016338 50.8533251,29.7340423 50.85,29.7807746 C50.8444581,30.1201408 50.4155172,30.4761972 50.0552956,30.7232113 C49.2251232,31.2773239 47.9726601,31.9860986 47.3885468,32.3165634 C46.8321429,31.9838732 45.6650246,31.2773239 44.837069,30.7232113 C44.5821429,30.5496338 43.9836207,30.1079014 43.9581281,29.7251408 C43.954803,29.6906479 43.954803,29.5660282 43.954803,29.3813239 L43.954803,29.3813239 Z M43.9514778,24.6724789 L50.85,24.6724789 C50.8555419,25.7005915 50.858867,26.8666761 50.858867,27.8269155 L47.2222906,25.3890423 L43.9492611,27.7612676 C43.9492611,26.8199437 43.9492611,25.6827887 43.9514778,24.6724789 L43.9514778,24.6724789 Z M36.9687192,47.7671831 L37.0274631,46.4542254 C36.8922414,46.448662 36.737069,46.4542254 36.5697044,46.4698028 L35.9279557,46.534338 C35.5488916,46.575507 35.2174877,46.613338 34.9304187,46.6189014 L33.0096059,46.6689718 L33.0384236,47.9852676 L34.9592365,47.9329718 C35.2817734,47.9262958 35.6464286,47.8851268 36.0687192,47.8383944 L36.6816502,47.7760845 C36.7814039,47.7671831 36.8778325,47.7616197 36.9687192,47.7671831 L36.9687192,47.7671831 Z M36.9809113,44.1287324 L36.9975369,42.8157746 C36.8634236,42.8157746 36.7137931,42.821338 36.5608374,42.8358028 C36.3291872,42.8536056 36.1152709,42.8803099 35.9157635,42.9036761 C35.5378079,42.941507 35.2119458,42.9804507 34.9215517,42.9837887 L32.9974138,43.0338592 L33.0295567,44.3490423 L34.9503695,44.2989718 C35.2673645,44.2934085 35.6342365,44.2522394 36.0565271,44.205507 C36.2527094,44.1843662 36.4610837,44.164338 36.6816502,44.1398592 C36.7836207,44.1342958 36.8900246,44.1253944 36.9809113,44.1287324 L36.9809113,44.1287324 Z M34.8683498,50.2529014 C34.2587438,50.2673662 33.2966749,50.2996338 33.0118227,50.3051972 L33.0350985,51.6159296 C33.3199507,51.6103662 34.2908867,51.583662 34.9625616,51.5658592 C35.2817734,51.5569577 35.6464286,51.5157887 36.070936,51.4712817 L36.7049261,51.4067465 C36.8013547,51.394507 36.8977833,51.394507 36.9864532,51.394507 L37.0064039,50.0848873 C36.8689655,50.0815493 36.7160099,50.0848873 36.5730296,50.0993521 L35.9279557,50.1638873 C35.5488916,50.2083944 35.2208128,50.2462254 34.8683498,50.2529014 L34.8683498,50.2529014 Z M41.5729064,42.8536056 C41.4033251,42.8358028 41.2392857,42.8335775 41.0918719,42.8391408 L41.148399,44.1487606 C41.2392857,44.1431972 41.3390394,44.1487606 41.4476601,44.157662 L42.0683498,44.2233099 C42.4917488,44.2700423 42.8575123,44.3056479 43.1778325,44.3145493 L45.1008621,44.3701831 L45.1307882,43.0538873 L43.2066502,43.0004789 C42.9195813,42.9949155 42.5903941,42.9593099 42.2091133,42.9181408 L41.5729064,42.8536056 L41.5729064,42.8536056 Z M45.1108374,47.997507 L45.1429803,46.6901127 L44.6408867,46.6723099 C44.2064039,46.6634085 43.6178571,46.6456056 43.2188424,46.6400423 C42.9428571,46.6311408 42.6291872,46.5955352 42.2711823,46.5577042 C42.0539409,46.534338 41.8222906,46.5109718 41.5906404,46.489831 C41.4232759,46.4720282 41.2647783,46.4698028 41.1184729,46.4720282 L41.139532,47.7849859 C41.2326355,47.7827606 41.3390394,47.7849859 41.4587438,47.7972254 C41.6992611,47.8205915 41.9220443,47.8417324 42.1304187,47.8650986 C42.5327586,47.9062676 42.8807882,47.9440986 43.1889163,47.953 C43.587931,47.956338 44.1742611,47.9763662 44.6087438,47.9852676 L45.1108374,47.997507 L45.1108374,47.997507 Z M41.5939655,50.120493 C41.417734,50.1026901 41.2592365,50.0971268 41.112931,50.1026901 L41.1506158,51.4123099 C41.2392857,51.4123099 41.3412562,51.4123099 41.4587438,51.4278873 C41.6903941,51.4479155 41.9109606,51.4746197 42.1126847,51.4924225 C42.5205665,51.5391549 42.8752463,51.5747606 43.1866995,51.5858873 L43.7286946,51.5981268 C44.2828818,51.6125915 44.8991379,51.6270563 45.1130542,51.6337324 L45.1396552,50.3174366 C44.9224138,50.3140986 44.3094828,50.3029718 43.7641626,50.285169 L43.2188424,50.2729296 C42.939532,50.2640282 42.6203202,50.2295352 42.2534483,50.1883662 C42.039532,50.1638873 41.8167488,50.1405211 41.5939655,50.120493 L41.5939655,50.120493 Z M38.3176108,8.93590141 C38.6545567,8.53533803 38.7964286,7.979 38.7343596,7.29025352 L38.4439655,3.73080282 L37.0152709,3.84874648 L37.2823892,7.08440845 C37.376601,8.22712676 36.9188424,8.40960563 36.5109606,8.44743662 C36.4754926,8.44743662 36.441133,8.453 36.4089901,8.453 C36.0742611,8.453 35.6165025,8.32615493 35.5256158,7.22905634 L35.2618227,3.99561972 L33.8331281,4.11356338 L34.1268473,7.67301408 C34.235468,8.98597183 34.9714286,9.68361972 36.2615764,9.68361972 C36.3757389,9.68361972 36.4910099,9.67805634 36.6084975,9.6658169 C37.3910099,9.59905634 37.962931,9.35426761 38.3176108,8.93590141 L38.3176108,8.93590141 Z M27.3336207,11.8010423 L30.5778325,10.6227183 L30.158867,9.46887324 L28.270197,10.1576197 L26.7628079,5.9806338 L25.416133,6.47132394 L27.3336207,11.8010423 L27.3336207,11.8010423 Z M25.8350985,12.4452817 L25.2310345,11.3737746 L23.4831281,12.3629437 L21.3096059,8.49194366 L20.060468,9.20071831 L22.8291872,14.1387746 L25.8350985,12.4452817 L25.8350985,12.4452817 Z M18.1130542,14.7485211 L19.5528325,13.5757606 L18.7758621,12.6255352 L17.3449507,13.7971831 L16.7763547,13.0928592 L18.3424877,11.815507 L17.5710591,10.864169 L14.8954433,13.0516901 L18.458867,17.4512113 L21.1455665,15.2570141 L20.3774631,14.3034507 L18.7991379,15.5930423 L18.1130542,14.7485211 L18.1130542,14.7485211 Z M16.945936,18.8576338 L12.6,15.2369859 L11.7166256,16.3140563 L14.2769704,18.4459437 L10.6492611,17.6036479 L9.62844828,18.8376056 L13.9777094,22.4560282 L14.8633005,21.3845211 L12.3007389,19.2526338 L15.9339901,20.0826901 L16.945936,18.8576338 L16.945936,18.8576338 Z M9.37684729,22.1767465 C9.0953202,22.0287606 8.82155172,21.9530986 8.56995074,21.9530986 C7.6544335,21.9530986 7.17118227,22.8743944 6.74224138,23.6922113 L6.08830049,24.922831 L11.0748768,27.5910282 L11.7487685,26.3192394 L9.82241379,25.2822254 L9.88337438,25.1642817 C10.0651478,24.8171268 10.2036946,24.847169 10.5029557,24.885 L12.3827586,25.1264507 L13.1242611,23.7189155 L10.6259852,23.4574366 C10.4586207,23.4451972 10.2768473,23.4507606 10.1383005,23.4830282 C10.1593596,22.951169 9.88337438,22.4471268 9.37684729,22.1767465 L9.37684729,22.1767465 Z M9.01551724,23.7990282 C9.0864532,24.0282394 8.93017241,24.3553662 8.81268473,24.5823521 L8.73953202,24.7114225 L7.8362069,24.2251831 L7.90381773,24.0994507 C8.13325123,23.6744085 8.37598522,23.3250282 8.76280788,23.5308732 C8.90135468,23.6043099 8.98004926,23.6922113 9.01551724,23.7990282 L9.01551724,23.7990282 Z M6.60480296,28.2508451 C5.35566502,28.2508451 4.43460591,28.9774225 4.07660099,30.2436479 C3.61330049,31.874831 4.39692118,33.1911268 6.11490148,33.6851549 C6.47623153,33.7852958 6.83091133,33.8387042 7.16231527,33.8387042 C8.40258621,33.8387042 9.32364532,33.1110141 9.683867,31.8425634 C9.89778325,31.0859437 9.83682266,30.3671549 9.50541872,29.7752113 C9.14519704,29.1187324 8.48793103,28.6480704 7.61342365,28.3977183 C7.26428571,28.2998028 6.92401478,28.2508451 6.60480296,28.2508451 L6.60480296,28.2508451 Z M6.51391626,29.7229155 C6.73337438,29.7229155 6.97389163,29.7574085 7.21219212,29.8230563 C7.7841133,29.9877324 8.2296798,30.2881549 8.42918719,30.6497746 C8.57216749,30.9034648 8.59655172,31.1916479 8.5112069,31.5065352 C8.30615764,32.2164225 7.71871921,32.3666338 7.25874384,32.3666338 C7.0270936,32.3666338 6.77770936,32.3276901 6.51724138,32.2542535 C5.77241379,32.039507 4.99433498,31.4742676 5.24926108,30.576338 C5.44655172,29.8697887 6.04729064,29.7229155 6.51391626,29.7229155 L6.51391626,29.7229155 Z M4.5432266,35.7135634 L3.21206897,35.5199577 L3.15,35.6523662 C2.97931034,36.0139859 2.86514778,36.4768592 2.8385468,36.8829859 C2.72438424,38.7901127 3.77179803,40.0007042 5.64827586,40.1219859 C5.73362069,40.1242113 5.81896552,40.1275493 5.90098522,40.1275493 C7.53472906,40.1275493 8.53780788,39.0794085 8.66083744,37.253507 C8.67857143,36.8941127 8.65197044,36.5002254 8.56440887,36.0117606 L8.53115764,35.8493099 L7.18226601,35.8381831 L7.30862069,36.1174648 C7.40504926,36.3322113 7.4637931,36.7917465 7.44051724,37.174507 C7.37955665,38.1247324 6.66908867,38.7055493 5.66600985,38.634338 C4.64852217,38.5698028 4.00012315,37.9077606 4.05665025,36.9831268 C4.07438424,36.6827042 4.12647783,36.3500141 4.37586207,35.9761549 L4.5432266,35.7135634 L4.5432266,35.7135634 Z M9.3203202,46.6689718 L3.88928571,48.2411831 L4.29384236,49.6286901 L6.50837438,48.9866761 L7.00049261,50.7001972 L8.17093596,50.3619437 L7.68103448,48.6506479 L8.54334975,48.4002958 L9.06539409,50.199493 L10.2358374,49.8556761 L9.3203202,46.6689718 L9.3203202,46.6689718 Z M6.38756158,53.7767465 C6.16477833,54.4243239 6.24125616,55.1520141 6.59593596,55.8763662 C7.09470443,56.8922394 7.92487685,57.4508028 8.94236453,57.4508028 C9.42672414,57.4508028 9.93325123,57.3217324 10.4408867,57.0713803 C11.2444581,56.6741549 11.7931034,56.1000141 12.0302956,55.4023662 C12.2508621,54.7481127 12.1832512,54.0215352 11.8219212,53.2971831 C11.3231527,52.2757465 10.4963054,51.7127324 9.5020936,51.7127324 C9.02438424,51.7127324 8.52007389,51.8395775 8.00689655,52.0921549 C7.18226601,52.4993944 6.61921182,53.0824366 6.38756158,53.7767465 L6.38756158,53.7767465 Z M7.61342365,54.4632676 C7.7453202,54.073831 8.12660099,53.6977465 8.66416256,53.4351549 C8.99778325,53.2704789 9.34137931,53.1825775 9.65172414,53.1825775 C10.1538177,53.1825775 10.5206897,53.4028873 10.729064,53.8390563 C10.8753695,54.1361408 10.8986453,54.431 10.8022167,54.7158451 C10.6669951,55.1108451 10.2945813,55.4847042 9.78362069,55.7317183 C9.42672414,55.9086338 9.07093596,56.0032113 8.75504926,56.0032113 C8.26514778,56.0032113 7.91046798,55.7762254 7.68990148,55.3367183 C7.54359606,55.0374085 7.51699507,54.7425493 7.61342365,54.4632676 L7.61342365,54.4632676 Z M11.1358374,59.4769859 C10.5550493,59.9387465 10.2469212,60.4572535 10.2236453,61.0191549 C10.1981527,61.541 10.4176108,62.1006761 10.8809113,62.6770423 C11.4295567,63.3724648 12.0158867,63.7196197 12.6343596,63.7196197 C13.0921182,63.7196197 13.562069,63.5282394 14.0397783,63.1510423 L16.8229064,60.9279155 L15.9229064,59.7952113 L13.3947044,61.8147183 C12.7141626,62.3621549 12.2242611,62.4122254 11.8341133,61.9148592 C11.6722906,61.7112394 11.6057882,61.5142958 11.629064,61.3195775 C11.6634236,61.0369577 11.8839901,60.7343099 12.2918719,60.4105211 L14.8167488,58.3932394 L13.9167488,57.2594225 L11.1358374,59.4769859 L11.1358374,59.4769859 Z M18.171798,62.3087465 L14.5906404,66.6993662 L15.6757389,67.582831 L17.7905172,64.9914085 L16.9958128,68.6688028 L18.2272167,69.6846761 L21.8083744,65.295169 L20.726601,64.4083662 L18.6151478,66.9964507 L19.420936,63.3312958 L18.171798,62.3087465 L18.171798,62.3087465 Z M23.4454433,66.3577746 L20.9050493,71.4271268 L22.3603448,72.1548169 C23.0586207,72.5108732 23.6715517,72.6788873 24.2312808,72.6788873 C25.2077586,72.6788873 25.9758621,72.1425775 26.5100985,71.0799718 C27.3491379,69.3987183 26.8093596,68.056831 24.8996305,67.0910282 L23.4454433,66.3577746 L23.4454433,66.3577746 Z M22.7438424,70.983169 L24.1847291,68.1002254 L24.5327586,68.2771408 C24.8974138,68.4629577 25.1756158,68.7811831 25.3019704,69.1606056 C25.4283251,69.554493 25.3873153,69.9850986 25.1789409,70.4034648 C24.8852217,70.9920704 24.3809113,71.3247606 23.787931,71.3247606 C23.5474138,71.3247606 23.3068966,71.2657887 23.0929803,71.1534085 L22.7438424,70.983169 L22.7438424,70.983169 Z M29.4694581,69.0927324 L28.0141626,74.5748873 L31.3958128,75.4761549 L31.7094828,74.2956056 L29.7210591,73.7626338 L30.0003695,72.7111549 L31.8036946,73.1940563 L32.1240148,72.013507 L30.3173645,71.5272676 L30.5456897,70.6504789 L32.5163793,71.1767746 L32.8366995,69.9962254 L29.4694581,69.0927324 L29.4694581,69.0927324 Z M34.7165025,70.3411549 L34.4028325,76.0057887 L36.0243842,76.1003662 C36.1507389,76.1059296 36.2737685,76.1081549 36.396798,76.1081549 C38.2887931,76.1081549 39.3007389,75.2135634 39.4027094,73.4499718 C39.4492611,72.5754085 39.2530788,71.8810986 38.8075123,71.3837324 C38.2976601,70.8118169 37.4907635,70.5002676 36.3502463,70.4357324 L34.7165025,70.3411549 L34.7165025,70.3411549 Z M35.9102217,74.8664085 L36.0942118,71.6507746 L36.4754926,71.6719155 C37.2380542,71.7130845 37.9751232,72.3105915 37.9185961,73.3620704 C37.8543103,74.4536056 37.0330049,74.9253803 36.2970443,74.8842113 L35.9102217,74.8664085 L35.9102217,74.8664085 Z M44.3737685,70.0084648 L43.4150246,76.0113521 L44.8935961,75.6909014 L45.0864532,74.4191127 L46.9019704,74.0218873 L47.5913793,75.1134225 L49.1397783,74.775169 L45.7969212,69.7024789 L44.3737685,70.0084648 L44.3737685,70.0084648 Z M45.2660099,73.1261831 L45.4444581,71.6452113 L46.2158867,72.920338 L45.2660099,73.1261831 L45.2660099,73.1261831 Z M51.0960591,72.443 L49.7438424,72.9381408 L50.2337438,74.301169 L51.5915025,73.8093662 L51.0960591,72.443 L51.0960591,72.443 Z M51.0605911,67.9767183 L53.7561576,72.9648451 L55.1848522,72.1837465 C57.0646552,71.1656479 57.5634236,69.8081831 56.6711823,68.1536338 C55.7889163,66.5102113 54.3690887,66.1752958 52.4948276,67.2000704 L51.0605911,67.9767183 L51.0605911,67.9767183 Z M52.9149015,68.3683803 L53.2573892,68.1825634 C53.4834975,68.056831 53.7384236,67.9889577 53.9966749,67.9889577 C54.5652709,67.9889577 55.0673645,68.3127465 55.3633005,68.8601831 C55.862069,69.7870423 55.4486453,70.6471408 54.7825123,71.0098732 L54.4422414,71.1945775 L52.9149015,68.3683803 L52.9149015,68.3683803 Z M58.9389163,68.1569718 L57.7485222,68.9870282 L58.5775862,70.1787042 L59.7624384,69.3519859 L58.9389163,68.1569718 L58.9389163,68.1569718 Z M59.7535714,63.952169 L60.9916256,64.1224085 L61.0947044,63.1955493 L63.7924877,65.9394085 L64.8188424,64.9201972 L60.8541872,60.8811831 L60.0029557,61.7257042 L59.7535714,63.952169 L59.7535714,63.952169 Z M64.6692118,60.6252676 C64.6337438,61.2439155 64.8332512,61.7090141 65.2710591,62.0294648 C65.5869458,62.2653521 65.916133,62.3832958 66.2564039,62.3832958 C66.8216749,62.3832958 67.3880542,62.0350282 67.8602217,61.4019155 C68.2536946,60.8633803 68.426601,60.3192817 68.3534483,59.8330423 C68.2891626,59.4146761 68.0564039,59.0563944 67.6584975,58.7581972 C67.18633,58.4110423 66.6576355,58.3520704 66.0713054,58.5812817 C66.0801724,58.0227183 65.7931034,57.5453803 65.4495074,57.2861268 C64.7456897,56.7676197 63.8046798,57.0624789 63.1185961,57.9960141 C62.4347291,58.9206479 62.4956897,59.8597465 63.2826355,60.4450141 C63.6727833,60.7343099 64.1793103,60.8021831 64.6692118,60.6252676 L64.6692118,60.6252676 Z M65.8773399,60.0711549 C66.2852217,59.8041127 66.5789409,59.7629437 66.833867,59.9509859 C66.9546798,60.0388873 67.0189655,60.1479296 67.0389163,60.2747746 C67.0599754,60.4105211 67.0123153,60.5607324 66.9103448,60.7020423 C66.7197044,60.9612958 66.3583744,61.0369577 66.1156404,60.8544789 C65.8928571,60.6864648 65.8197044,60.4572535 65.8773399,60.0711549 L65.8773399,60.0711549 Z M64.971798,59.171 C64.7722906,59.3000704 64.5605911,59.4091127 64.376601,59.4091127 C64.2857143,59.4091127 64.2092365,59.3857465 64.1383005,59.3356761 C63.8600985,59.126493 63.9975369,58.7815634 64.1238916,58.614662 C64.2181034,58.4822535 64.3355911,58.4199437 64.4674877,58.4199437 C64.5605911,58.4199437 64.6669951,58.4555493 64.7667488,58.5289859 C64.93633,58.6580563 65.0094828,58.9529155 64.971798,59.171 L64.971798,59.171 Z M67.9743842,56.4772113 C68.6050493,56.797662 69.1415025,56.9512113 69.61367,56.9512113 C70.3296798,56.9512113 70.8694581,56.5940423 71.2219212,55.887493 C71.7694581,54.7892817 71.4003695,53.8123521 70.2188424,53.211507 C69.2390394,52.7230423 68.3091133,53.0145634 67.8402709,53.9592254 C67.7083744,54.2240423 67.6518473,54.4832958 67.6784483,54.7369859 C67.3259852,54.4476901 67.0100985,53.998169 67.2849754,53.4440563 C67.4235222,53.1614366 67.6086207,52.9733944 67.8336207,52.775338 L68.0242611,52.610662 L66.9868227,51.8629437 L66.869335,51.9775493 C66.5789409,52.260169 66.3528325,52.5750563 66.1743842,52.9344507 C65.8950739,53.4996901 65.8396552,54.0482394 66.0181034,54.5745352 C66.3206897,55.4902676 67.2528325,56.1178169 67.9743842,56.4772113 L67.9743842,56.4772113 Z M68.7513547,55.0196056 C68.7169951,54.9161268 68.7280788,54.8137606 68.7846059,54.6958169 C68.8688424,54.5278028 69.0073892,54.4454648 69.2091133,54.4454648 C69.362069,54.4454648 69.5405172,54.4921972 69.7222906,54.5834366 C69.9628079,54.7069437 70.1390394,54.8749577 70.1944581,55.0485352 C70.2299261,55.1520141 70.2188424,55.2543803 70.1689655,55.3611972 C70.0780788,55.5459014 69.9362069,55.6371408 69.7344828,55.6371408 C69.5970443,55.6371408 69.4385468,55.5937465 69.2745074,55.5080704 C68.995197,55.3700986 68.8078818,55.1954085 68.7513547,55.0196056 L68.7513547,55.0196056 Z M71.7495074,50.8704366 L71.5699507,51.0918592 L72.8878079,51.5269155 L72.9698276,51.3833803 C73.1859606,51.0006197 73.376601,50.5588873 73.4763547,50.2083944 C73.6758621,49.5430141 73.6503695,48.9332676 73.403202,48.4414648 C73.1715517,47.9852676 72.7525862,47.6470141 72.2183498,47.4879014 C71.0900246,47.1496479 70.1800493,47.6592535 69.8608374,48.7507887 C69.8286946,48.8542676 69.8043103,48.945507 69.7932266,49.0278451 L69.1337438,48.8153239 L69.7078818,46.8670282 L68.5817734,46.534338 L67.6141626,49.8056056 L70.7431034,50.8059014 L70.7431034,50.5321831 C70.7408867,50.2261972 70.7818966,49.9380141 70.866133,49.646493 C70.945936,49.375 71.23633,48.7040563 71.8403941,48.8831972 C72.4821429,49.0812535 72.3358374,49.7722254 72.2770936,49.9814085 C72.162931,50.364169 71.9368227,50.6412254 71.7495074,50.8704366 L71.7495074,50.8704366 Z" id="Fill-1" fill="#FFFFFF" mask="url(#mask-2)"></path>
                </g>
                <path d="M333.21835,36.4501549 C330.853079,36.4501549 328.913424,35.5978451 327.398276,34.0768169 C325.214778,31.8848451 325.273522,29.1754789 325.273522,25.4324366 C325.273522,21.687169 325.214778,18.9789155 327.398276,16.7869437 C328.913424,15.2648028 330.853079,14.4113803 333.21835,14.4113803 C337.250616,14.4113803 340.403941,16.7257465 341.162069,21.2610141 L336.887069,21.2610141 C336.462562,19.5252394 335.371921,18.1878028 333.249384,18.1878028 C332.097783,18.1878028 331.156773,18.6117324 330.550493,19.313831 C329.731404,20.227338 329.489778,21.2610141 329.489778,25.4324366 C329.489778,29.6016338 329.731404,30.6375352 330.550493,31.5488169 C331.156773,32.2498028 332.097783,32.6759577 333.249384,32.6759577 C335.371921,32.6759577 336.462562,31.3374085 336.887069,29.6016338 L341.162069,29.6016338 C340.403941,34.1380141 337.221798,36.4501549 333.21835,36.4501549" id="Fill-4" fill="#FFFFFF"></path>
                <path d="M357.184729,34.0768169 C355.669581,35.5989577 353.819704,36.4490423 351.364655,36.4490423 C348.906281,36.4490423 347.027586,35.5989577 345.51133,34.0768169 C343.327833,31.8848451 343.388793,29.1743662 343.388793,25.4313239 C343.388793,21.6882817 343.327833,18.9778028 345.51133,16.7869437 C347.027586,15.2659155 348.906281,14.4136056 351.364655,14.4136056 C353.819704,14.4136056 355.669581,15.2659155 357.184729,16.7869437 C359.368227,18.9778028 359.3383,21.6882817 359.3383,25.4313239 C359.3383,29.1743662 359.368227,31.8848451 357.184729,34.0768169 M354.06133,19.3427606 C353.456158,18.644 352.516256,18.1866901 351.364655,18.1866901 C350.210837,18.1866901 349.242118,18.644 348.634729,19.3427606 C347.81564,20.2562676 347.602833,21.2621268 347.602833,25.4313239 C347.602833,29.6005211 347.81564,30.6063803 348.634729,31.5198873 C349.242118,32.2186479 350.210837,32.6759577 351.364655,32.6759577 C352.516256,32.6759577 353.456158,32.2186479 354.06133,31.5198873 C354.880419,30.6063803 355.123153,29.6005211 355.123153,25.4313239 C355.123153,21.2621268 354.880419,20.2562676 354.06133,19.3427606" id="Fill-5" fill="#FFFFFF"></path>
                <path d="M373.710591,36.2676761 L369.495443,27.6232958 L366.462931,27.6232958 L366.462931,36.2676761 L362.248892,36.2676761 L362.248892,14.5949718 L370.708005,14.5949718 C375.104926,14.5949718 377.710714,17.6080986 377.710714,21.2309718 C377.710714,24.2752535 375.863054,26.1612394 373.770443,26.9234225 L378.59298,36.2676761 L373.710591,36.2676761 L373.710591,36.2676761 Z M370.434236,18.3680563 L366.462931,18.3680563 L366.462931,24.091662 L370.434236,24.091662 C372.284113,24.091662 373.496675,22.9044366 373.496675,21.2309718 C373.496675,19.557507 372.284113,18.3680563 370.434236,18.3680563 L370.434236,18.3680563 Z" id="Fill-6" fill="#FFFFFF"></path>
                <polyline id="Fill-7" fill="#FFFFFF" points="397.781158 14.5949718 393.567118 14.5949718 393.567118 27.8658592 385.017118 14.5949718 381.257512 14.5949718 381.257512 36.2676761 385.471552 36.2676761 385.471552 22.9645211 394.020443 36.2676761 397.781158 36.2676761 397.781158 14.5949718"></polyline>
                <polyline id="Fill-8" fill="#FFFFFF" points="415.796675 32.4923662 405.789163 32.4923662 405.789163 27.2260704 414.311453 27.2260704 414.311453 23.4540986 405.789163 23.4540986 405.789163 18.369169 415.796675 18.369169 415.796675 14.5949718 401.575123 14.5949718 401.575123 36.2665634 415.796675 36.2665634 415.796675 32.4923662"></polyline>
                <polyline id="Fill-9" fill="#FFFFFF" points="433.153818 32.4923662 423.360222 32.4923662 423.360222 14.5949718 419.146182 14.5949718 419.146182 36.2665634 433.153818 36.2665634 433.153818 32.4923662"></polyline>
                <polyline id="Fill-10" fill="#FFFFFF" points="449.576601 32.4923662 439.783005 32.4923662 439.783005 14.5949718 435.568966 14.5949718 435.568966 36.2665634 449.576601 36.2665634 449.576601 32.4923662"></polyline>
                <polyline id="Fill-11" fill="#FFFFFF" points="341.164286 44.3902113 325.666995 44.3902113 325.666995 48.1644085 331.307512 48.1644085 331.307512 66.0640282 335.523768 66.0640282 335.523768 48.1644085 341.164286 48.1644085 341.164286 44.3902113"></polyline>
                <polyline id="Fill-12" fill="#FFFFFF" points="358.16564 62.2887183 348.159236 62.2887183 348.159236 57.0224225 356.680419 57.0224225 356.680419 53.2482254 348.159236 53.2482254 348.159236 48.1632958 358.16564 48.1632958 358.16564 44.3913239 343.944089 44.3913239 343.944089 66.0629155 358.16564 66.0629155 358.16564 62.2887183"></polyline>
                <path d="M368.491256,66.2453944 C366.125985,66.2453944 364.185222,65.3930845 362.670074,63.8720563 C360.487685,61.6800845 360.546429,58.9707183 360.546429,55.2276761 C360.546429,51.4824085 360.487685,48.7741549 362.670074,46.5821831 C364.185222,45.0600423 366.125985,44.2077324 368.491256,44.2077324 C372.523522,44.2077324 375.676847,46.5209859 376.434975,51.0562535 L372.159975,51.0562535 C371.735468,49.3204789 370.644828,47.9808169 368.522291,47.9808169 C367.37069,47.9808169 366.42968,48.4069718 365.822291,49.1090704 C365.00431,50.0225775 364.762685,51.0562535 364.762685,55.2276761 C364.762685,59.3968732 365.00431,60.4327746 365.822291,61.3440563 C366.42968,62.0450423 367.37069,62.4711972 368.522291,62.4711972 C370.644828,62.4711972 371.735468,61.1315352 372.159975,59.3968732 L376.434975,59.3968732 C375.676847,63.9332535 372.494704,66.2453944 368.491256,66.2453944" id="Fill-13" fill="#FFFFFF"></path>
                <polyline id="Fill-14" fill="#FFFFFF" points="395.082266 44.3902113 390.868227 44.3902113 390.868227 53.2471127 383.560714 53.2471127 383.560714 44.3902113 379.345567 44.3902113 379.345567 66.0640282 383.560714 66.0640282 383.560714 56.9912676 390.868227 56.9912676 390.868227 66.0640282 395.082266 66.0640282 395.082266 44.3902113"></polyline>
                <path d="M103.110961,32.273169 C103.110961,37.796493 103.110961,39.9105775 102.089039,42.3373239 C101.377463,44.0397183 99.8811576,45.6408592 97.1301724,47.5568873 C96.6901478,47.8606479 96.1470443,48.2356197 95.8078818,48.4058592 C95.7402709,48.4403521 95.6715517,48.4737324 95.5695813,48.4737324 C95.4687192,48.4737324 95.3334975,48.4058592 95.3334975,48.269 C95.3334975,48.0653803 95.5030788,47.9641268 95.8078818,47.7582817 C96.2146552,47.520169 96.6901478,47.1118169 96.9938424,46.805831 C99.2028325,44.5504366 100.259113,42.7456761 100.259113,33.9455211 L100.259113,24.0849859 C100.259113,18.7663944 100.259113,17.8139437 100.191502,16.7190704 C100.123892,15.5585493 99.846798,15.0122254 98.7284483,14.7741127 C98.4568966,14.7062394 97.8805419,14.6717465 97.5713054,14.6717465 C97.4360837,14.6717465 97.3008621,14.6038732 97.3008621,14.4681268 C97.3008621,14.2633944 97.469335,14.1955211 97.8472906,14.1955211 C99.3735222,14.1955211 101.512685,14.2978873 101.683374,14.2978873 C101.852956,14.2978873 103.993227,14.1955211 105.015148,14.1955211 C105.38867,14.1955211 105.557143,14.2633944 105.557143,14.4681268 C105.557143,14.6038732 105.42303,14.6717465 105.2867,14.6717465 C105.049507,14.6717465 104.845567,14.7062394 104.43436,14.7741127 C103.517734,14.9443521 103.247291,15.5240563 103.17968,16.7190704 C103.110961,17.8139437 103.110961,18.7663944 103.110961,24.0849859 L103.110961,32.273169" id="Fill-15" fill="#FFFFFF"></path>
                <path d="M124.886084,39.1628592 C127.946305,39.1628592 134.262931,37.3881408 134.262931,27.4641831 C134.262931,19.276 129.302956,14.8764789 123.936207,14.8764789 C118.260222,14.8764789 114.012931,18.6295352 114.012931,26.0978169 C114.012931,34.0478873 118.773399,39.1628592 124.886084,39.1628592 L124.886084,39.1628592 Z M124.173399,13.7192958 C131.816749,13.7192958 137.525985,18.5627746 137.525985,26.5072817 C137.525985,34.1502535 132.154803,40.4557887 123.969458,40.4557887 C114.66133,40.4557887 110.786453,33.1922394 110.786453,27.052493 C110.786453,21.5269437 114.796552,13.7192958 124.173399,13.7192958 L124.173399,13.7192958 Z" id="Fill-16" fill="#FFFFFF"></path>
                <path d="M166.603079,30.0900986 C166.603079,33.3624789 166.603079,36.0551549 166.771552,37.490507 C166.874631,38.476338 167.077463,39.2318451 168.094951,39.3675915 C168.570443,39.4365775 169.326355,39.5022254 169.630049,39.5022254 C169.83399,39.5022254 169.902709,39.6057042 169.902709,39.7069577 C169.902709,39.8771972 169.73202,39.9795634 169.358498,39.9795634 C167.483128,39.9795634 165.349507,39.8771972 165.178818,39.8771972 C165.010345,39.8771972 162.862315,39.9795634 161.845936,39.9795634 C161.472414,39.9795634 161.303941,39.9105775 161.303941,39.7069577 C161.303941,39.6057042 161.371552,39.5022254 161.575493,39.5022254 C161.880296,39.5022254 162.287069,39.4365775 162.59298,39.3675915 C163.271305,39.2318451 163.439778,38.476338 163.576108,37.490507 C163.74569,36.0551549 163.74569,33.3624789 163.74569,30.0900986 L163.74569,26.5072817 C163.74569,26.3704225 163.642611,26.3025493 163.541749,26.3025493 L149.138424,26.3025493 C149.035345,26.3025493 148.935591,26.3359296 148.935591,26.5072817 L148.935591,30.0900986 C148.935591,33.3624789 148.935591,36.0551549 149.105172,37.490507 C149.204926,38.476338 149.409975,39.2318451 150.43633,39.3675915 C150.910714,39.4365775 151.65665,39.5022254 151.961453,39.5022254 C152.163177,39.5022254 152.233005,39.6057042 152.233005,39.7069577 C152.233005,39.8771972 152.063424,39.9795634 151.689901,39.9795634 C149.81564,39.9795634 147.679803,39.8771972 147.510222,39.8771972 C147.341749,39.8771972 145.195936,39.9795634 144.178448,39.9795634 C143.804926,39.9795634 143.636453,39.9105775 143.636453,39.7069577 C143.636453,39.6057042 143.704064,39.5022254 143.906897,39.5022254 C144.212808,39.5022254 144.619581,39.4365775 144.924384,39.3675915 C145.601601,39.2318451 145.782266,38.476338 145.917488,37.490507 C146.085961,36.0551549 146.085961,33.3624789 146.085961,30.0900986 L146.085961,24.0849859 C146.085961,18.7663944 146.085961,17.8139437 146.01835,16.7190704 C145.951847,15.5585493 145.67032,15.0122254 144.550862,14.7741127 C144.280419,14.7062394 143.704064,14.6717465 143.398153,14.6717465 C143.262931,14.6717465 143.126601,14.6038732 143.126601,14.4681268 C143.126601,14.2633944 143.297291,14.1955211 143.669704,14.1955211 C145.195936,14.1955211 147.341749,14.2978873 147.510222,14.2978873 C147.679803,14.2978873 149.81564,14.1955211 150.841995,14.1955211 C151.215517,14.1955211 151.386207,14.2633944 151.386207,14.4681268 C151.386207,14.6038732 151.249877,14.6717465 151.112438,14.6717465 C150.876355,14.6717465 150.674631,14.7062394 150.268966,14.7741127 C149.342365,14.9443521 149.069704,15.5240563 149.002094,16.7190704 C148.935591,17.8139437 148.935591,18.7663944 148.935591,24.0849859 L148.935591,24.8048873 C148.935591,24.9751268 149.035345,25.0096197 149.138424,25.0096197 L163.541749,25.0096197 C163.642611,25.0096197 163.74569,24.9751268 163.74569,24.8048873 L163.74569,24.0849859 C163.74569,18.7663944 163.74569,17.8139437 163.679187,16.7190704 C163.60936,15.5585493 163.338916,15.0122254 162.220567,14.7741127 C161.947906,14.7062394 161.371552,14.6717465 161.066749,14.6717465 C160.931527,14.6717465 160.795197,14.6038732 160.795197,14.4681268 C160.795197,14.2633944 160.964778,14.1955211 161.3383,14.1955211 C162.862315,14.1955211 165.010345,14.2978873 165.178818,14.2978873 C165.349507,14.2978873 167.483128,14.1955211 168.500616,14.1955211 C168.884113,14.1955211 169.053695,14.2633944 169.053695,14.4681268 C169.053695,14.6038732 168.917365,14.6717465 168.783251,14.6717465 C168.534975,14.6717465 168.332143,14.7062394 167.926478,14.7741127 C167.009852,14.9443521 166.739409,15.5240563 166.67069,16.7190704 C166.603079,17.8139437 166.603079,18.7663944 166.603079,24.0849859 L166.603079,30.0900986" id="Fill-17" fill="#FFFFFF"></path>
                <path d="M179.95234,35.3408169 C180.022167,38.1369718 180.359113,39.026 181.276847,39.297493 C181.918596,39.4699577 182.66564,39.5022254 182.971552,39.5022254 C183.140025,39.5022254 183.250862,39.5700986 183.250862,39.7069577 C183.250862,39.9105775 183.038054,39.9795634 182.629064,39.9795634 C180.699384,39.9795634 179.341626,39.8771972 179.036823,39.8771972 C178.73202,39.8771972 177.298892,39.9795634 175.771552,39.9795634 C175.434606,39.9795634 175.229557,39.9450704 175.229557,39.7069577 C175.229557,39.5700986 175.332635,39.5022254 175.503325,39.5022254 C175.771552,39.5022254 176.383374,39.4699577 176.89101,39.297493 C177.740025,39.0616056 177.908498,38.0690986 177.908498,34.9658451 L177.943966,15.4205775 C177.943966,14.0931549 178.043719,13.7192958 178.317488,13.7192958 C178.585714,13.7192958 179.173153,14.4681268 179.511207,14.807493 C180.022167,15.3871972 185.07968,20.8804789 190.311207,26.5072817 C193.679557,30.1234789 197.383744,34.286 198.468842,35.4086901 L198.096429,18.0854366 C198.062069,15.8678732 197.824877,15.1145915 196.764163,14.8419859 C196.153448,14.7062394 195.374261,14.6717465 195.103818,14.6717465 C194.865517,14.6717465 194.830049,14.5693803 194.830049,14.4325211 C194.830049,14.2300141 195.103818,14.1955211 195.509483,14.1955211 C197.046798,14.1955211 198.672783,14.2978873 199.045197,14.2978873 C199.418719,14.2978873 200.537069,14.1955211 201.935837,14.1955211 C202.308251,14.1955211 202.546552,14.2300141 202.546552,14.4325211 C202.546552,14.5693803 202.412438,14.6717465 202.174138,14.6717465 C202.004557,14.6717465 201.768473,14.6717465 201.349507,14.7741127 C200.233374,15.0122254 200.095936,15.765507 200.095936,17.8139437 L200.028325,37.796493 C200.028325,40.0463239 199.961823,40.2199014 199.722414,40.2199014 C199.453079,40.2199014 199.045197,39.8460423 197.249631,38.0346056 C196.866133,37.6941268 191.974877,32.6815211 188.37931,28.7927183 C184.436823,24.527831 180.595197,20.2340141 179.511207,19.004507 L179.95234,35.3408169" id="Fill-18" fill="#FFFFFF"></path>
                <path d="M209.367488,39.5367183 C208.891995,39.297493 208.858744,39.1628592 208.858744,38.239338 C208.858744,36.5369437 208.995074,35.1705775 209.028325,34.6264789 C209.062685,34.2526197 209.130296,34.0779296 209.299877,34.0779296 C209.502709,34.0779296 209.537069,34.1836338 209.537069,34.4562394 C209.537069,34.7622254 209.537069,35.2395634 209.640148,35.7146761 C210.146675,38.239338 212.394458,39.1973521 214.665517,39.1973521 C217.930788,39.1973521 219.524631,36.8429296 219.524631,34.6598592 C219.524631,32.3065493 218.540394,30.9412958 215.615394,28.519 L214.088054,27.2605634 C210.486946,24.2897183 209.672291,22.1745211 209.672291,19.8557042 C209.672291,16.2083521 212.394458,13.7192958 216.710468,13.7192958 C218.03165,13.7192958 219.014778,13.8561549 219.861576,14.0597746 C220.507759,14.1955211 220.788177,14.2300141 221.059729,14.2300141 C221.331281,14.2300141 221.397783,14.2978873 221.397783,14.4681268 C221.397783,14.6383662 221.262562,15.765507 221.262562,18.0854366 C221.262562,18.6295352 221.193842,18.8676479 221.026478,18.8676479 C220.821429,18.8676479 220.788177,18.6974085 220.754926,18.4259155 C220.710591,18.0164507 220.507759,17.0929296 220.303818,16.7190704 C220.100985,16.3440986 219.18436,14.9098592 216.066502,14.9098592 C213.71564,14.9098592 211.884606,16.3785915 211.884606,18.8676479 C211.884606,20.8137183 212.76798,22.037662 216.022167,24.5957042 L216.98202,25.3489859 C220.99101,28.519 221.940887,30.6341972 221.940887,33.3624789 C221.940887,34.7622254 221.397783,37.3536479 219.049138,39.026 C217.591626,40.0463239 215.750616,40.4557887 213.918473,40.4557887 C212.326847,40.4557887 210.758498,40.2199014 209.367488,39.5367183" id="Fill-19" fill="#FFFFFF"></path>
                <path d="M241.471552,39.1628592 C244.532882,39.1628592 250.849507,37.3881408 250.849507,27.4641831 C250.849507,19.276 245.888424,14.8764789 240.522783,14.8764789 C234.851232,14.8764789 230.603941,18.6295352 230.603941,26.0978169 C230.603941,34.0478873 235.359975,39.1628592 241.471552,39.1628592 L241.471552,39.1628592 Z M240.759975,13.7192958 C248.398892,13.7192958 254.111453,18.5627746 254.111453,26.5072817 C254.111453,34.1502535 248.736946,40.4557887 240.556034,40.4557887 C231.247906,40.4557887 227.370813,33.1922394 227.370813,27.052493 C227.370813,21.5269437 231.383128,13.7192958 240.759975,13.7192958 L240.759975,13.7192958 Z" id="Fill-20" fill="#FFFFFF"></path>
                <path d="M263.588054,35.3408169 C263.653448,38.1369718 263.995936,39.026 264.910345,39.297493 C265.55431,39.4699577 266.299138,39.5022254 266.606158,39.5022254 C266.775739,39.5022254 266.875493,39.5700986 266.875493,39.7069577 C266.875493,39.9105775 266.67266,39.9795634 266.265887,39.9795634 C264.33399,39.9795634 262.967365,39.8771972 262.664778,39.8771972 C262.35665,39.8771972 260.933498,39.9795634 259.407266,39.9795634 C259.068103,39.9795634 258.866379,39.9450704 258.866379,39.7069577 C258.866379,39.5700986 258.966133,39.5022254 259.136823,39.5022254 C259.407266,39.5022254 260.019089,39.4699577 260.527833,39.297493 C261.373522,39.0616056 261.54532,38.0690986 261.54532,34.9658451 L261.576355,15.4205775 C261.576355,14.0931549 261.679433,13.7192958 261.949877,13.7192958 C262.221429,13.7192958 262.797783,14.4681268 263.136946,14.807493 C263.653448,15.3871972 268.716502,20.8804789 273.94803,26.5072817 C277.313054,30.1234789 281.010591,34.286 282.104557,35.4086901 L281.731034,18.0854366 C281.6867,15.8678732 281.450616,15.1145915 280.398768,14.8419859 C279.789163,14.7062394 279.008867,14.6717465 278.737315,14.6717465 C278.500123,14.6717465 278.466872,14.5693803 278.466872,14.4325211 C278.466872,14.2300141 278.737315,14.1955211 279.145197,14.1955211 C280.669212,14.1955211 282.307389,14.2978873 282.680911,14.2978873 C283.053325,14.2978873 284.172783,14.1955211 285.562685,14.1955211 C285.93399,14.1955211 286.172291,14.2300141 286.172291,14.4325211 C286.172291,14.5693803 286.035961,14.6717465 285.799877,14.6717465 C285.630296,14.6717465 285.391995,14.6717465 284.985222,14.7741127 C283.865764,15.0122254 283.73165,15.765507 283.73165,17.8139437 L283.664039,37.796493 C283.664039,40.0463239 283.59532,40.2199014 283.358128,40.2199014 C283.087685,40.2199014 282.680911,39.8460423 280.874261,38.0346056 C280.499631,37.6941268 275.608374,32.6815211 272.005049,28.7927183 C268.072537,24.527831 264.230911,20.2340141 263.136946,19.004507 L263.588054,35.3408169" id="Fill-21" fill="#FFFFFF"></path>
                <path d="M110.408498,63.9087746 L109.955172,64.9925211 C109.048522,65.446493 108.160714,65.7802958 107.295074,65.9850282 C106.430542,66.1908732 105.485099,66.2932394 104.462069,66.2932394 C103.263916,66.2932394 102.148892,66.1463662 101.119212,65.8426056 C100.089532,65.5399577 99.1873153,65.1049014 98.4203202,64.5352113 C97.6488916,63.9777606 97.0215517,63.3435352 96.5327586,62.650338 C96.0450739,61.9471268 95.6737685,61.1816056 95.4188424,60.3637887 C95.1594828,59.5448592 95.0342365,58.6424789 95.0342365,57.6599859 C95.0342365,55.183169 95.8954433,53.1236056 97.6167488,51.4979859 C99.3380542,49.8690282 101.692241,49.055662 104.669335,49.055662 C105.374261,49.055662 106.028202,49.0946056 106.625616,49.1813944 C107.228571,49.2603944 107.956773,49.4183944 108.824631,49.649831 C109.686946,49.8712535 110.212315,50.0058873 110.408498,50.0437183 C110.234483,50.4754366 110.110345,50.8904648 110.025,51.3110563 C109.897537,51.9653099 109.8133,52.7352817 109.770074,53.5987183 L109.035222,53.5987183 L109.026355,52.2290141 C108.94766,51.463493 108.527586,50.9027042 107.766133,50.5310704 C107.003571,50.1583239 105.884113,49.9647183 104.414409,49.9647183 C103.31601,49.9769577 102.384975,50.1260563 101.615764,50.3975493 C100.852094,50.6645915 100.177094,51.0829577 99.5907635,51.6615493 C99.008867,52.2401408 98.5289409,52.9767324 98.1565271,53.8635352 C97.7852217,54.7514507 97.5979064,55.8685775 97.5857143,57.2138028 C97.5857143,59.5749014 98.3050493,61.4675634 99.737069,62.8984648 C101.170197,64.3293662 103.061084,65.0537183 105.411946,65.0537183 C106.47266,65.0537183 107.459113,64.9012817 108.362438,64.6142113 C108.98202,64.4139296 109.599384,64.0912535 110.210099,63.6673239 L110.408498,63.9087746" id="Fill-22" fill="#FFFFFF"></path>
                <path d="M113.777956,59.7251127 C113.777956,60.6886901 113.937562,61.654493 114.255665,62.650338 C114.574877,63.6339437 115.032635,64.3560704 115.630049,64.8055915 C116.231897,65.2662394 116.884729,65.4965634 117.585222,65.4965634 C118.487438,65.4965634 119.235591,65.133831 119.840764,64.419493 C120.444828,63.7051549 120.747414,62.6002676 120.747414,61.1126197 C120.747414,59.8797746 120.564532,58.8093803 120.207635,57.9159014 C119.845197,57.0124085 119.38633,56.3759577 118.829926,56.0154507 C118.272414,55.6449296 117.655049,55.4557746 116.985591,55.4557746 C116.031281,55.4557746 115.257635,55.7984789 114.666872,56.4972394 C114.073892,57.1848732 113.777956,58.264169 113.777956,59.7251127 L113.777956,59.7251127 Z M111.583374,60.5918873 C111.583374,58.8460986 112.135345,57.4240986 113.242611,56.327 C114.342118,55.2232254 115.757512,54.6735634 117.482143,54.6735634 C119.110345,54.6735634 120.431527,55.1853944 121.455665,56.2179577 C122.474261,57.2427324 122.988547,58.5668169 122.988547,60.1935493 C122.988547,61.3329296 122.723645,62.365493 122.198276,63.3090423 C121.674015,64.2514789 120.925862,64.9902958 119.970443,65.5165915 C119.009483,66.0506761 117.950985,66.3199437 116.800493,66.3199437 C115.898276,66.3199437 115.137931,66.1719577 114.515025,65.8681972 C113.892118,65.5644366 113.3867,65.178338 112.999877,64.7232535 C112.611946,64.2581549 112.319335,63.7886056 112.118719,63.3090423 C111.762931,62.4600704 111.583374,61.5532394 111.583374,60.5918873 L111.583374,60.5918873 Z" id="Fill-23" fill="#FFFFFF"></path>
                <path d="M123.956158,65.9549859 L123.956158,65.2962817 C124.835099,65.2762535 125.309483,65.2662394 125.378202,65.2428732 C125.511207,65.2272958 125.610961,65.1928028 125.678571,65.1349437 C125.743966,65.0893239 125.797167,65.0214507 125.839286,64.9235352 C125.913547,64.738831 125.961207,64.460662 125.976724,64.0823521 C126.014409,62.0105493 126.033251,60.9245775 126.033251,60.8311127 L126.033251,59.4436056 C126.033251,58.8249577 126.024384,58.1540141 125.998892,57.4407887 C125.983374,56.9779155 125.949015,56.7064225 125.89803,56.6263099 C125.848153,56.5361831 125.760591,56.4705352 125.636453,56.4304789 C125.506773,56.3904225 125.001355,56.368169 124.120197,56.3726197 L124.120197,55.7150282 C125.680788,55.492493 126.823522,55.2120986 127.545074,54.8649437 C127.69803,54.781493 127.802217,54.7447746 127.855419,54.7447746 C127.913054,54.7447746 127.952956,54.7670282 127.985099,54.8048592 C128.017241,54.8415775 128.032759,54.9027746 128.032759,54.9784366 C128.032759,55.0362958 128.025,55.0897042 128.020567,55.1687042 C127.982882,55.6438169 127.956281,56.3703944 127.950739,57.3718028 C128.300985,56.9667887 128.621305,56.5651127 128.913916,56.165662 C129.205419,55.7673239 129.420443,55.5158592 129.55234,55.3945775 C129.787315,55.2020845 130.048892,55.0374085 130.351478,54.9127887 C130.654064,54.7970704 130.969951,54.7347606 131.293596,54.7347606 C131.617241,54.7347606 131.941995,54.8048592 132.256773,54.9439437 L132.325493,55.107507 C132.213547,56.1367324 132.147044,57.0480141 132.130419,57.8302254 L131.609483,57.8302254 C131.428818,57.4574789 131.22266,57.1848732 130.986576,57.0157465 C130.750493,56.845507 130.45234,56.7642817 130.09766,56.7642817 C129.502463,56.7642817 128.995936,57.0079577 128.57697,57.5053239 C128.158005,57.9926761 127.950739,58.7359437 127.950739,59.7217746 L127.950739,60.9245775 C127.950739,61.4397465 127.969581,62.3677183 128.006158,63.7351972 C128.017241,64.2136479 128.034975,64.5240845 128.067118,64.6542676 C128.099261,64.7889014 128.138054,64.8834789 128.187931,64.9357746 C128.238916,64.9980845 128.322044,65.0425915 128.438424,65.0882113 C128.672291,65.1583099 129.298522,65.2272958 130.31601,65.2962817 L130.31601,65.9549859 C128.958251,65.9071408 127.796675,65.8770986 126.836823,65.8770986 C125.844828,65.8770986 124.884975,65.9071408 123.956158,65.9549859" id="Fill-24" fill="#FFFFFF"></path>
                <path d="M133.603448,65.9549859 L133.603448,65.2962817 L134.708498,65.2784789 C134.873645,65.2740282 135.003325,65.2428732 135.09532,65.1961408 C135.179557,65.1416197 135.247167,65.0759718 135.299261,65.0025352 C135.380172,64.8523239 135.440025,64.5674789 135.464409,64.1780423 C135.464409,64.0767887 135.481034,62.9607746 135.514286,60.8311127 L135.514286,59.4436056 C135.514286,58.8249577 135.508744,58.1540141 135.482143,57.4407887 C135.464409,56.9779155 135.428941,56.7064225 135.374631,56.6263099 C135.329187,56.5361831 135.237192,56.4705352 135.110837,56.4304789 C134.99335,56.3904225 134.489039,56.368169 133.603448,56.3726197 L133.603448,55.7150282 C135.168473,55.492493 136.30899,55.2120986 137.028325,54.8649437 C137.186823,54.781493 137.289901,54.7447746 137.33867,54.7447746 C137.397414,54.7447746 137.436207,54.7670282 137.466133,54.8048592 C137.500493,54.8415775 137.521552,54.9027746 137.521552,54.9784366 C137.521552,55.0362958 137.507143,55.0897042 137.503818,55.1687042 C137.484975,55.4468732 137.460591,56.0332535 137.43399,56.9378592 L139.594212,55.0819155 C140.22931,54.8482535 140.828941,54.7347606 141.399754,54.7347606 C142.020443,54.7347606 142.617857,54.8649437 143.172044,55.1175211 C143.739532,55.3767746 144.164039,55.6938873 144.441133,56.0877746 C144.721552,56.4727606 144.9133,56.9667887 145.009729,57.5542817 C145.057389,57.8992113 145.086207,58.8761408 145.086207,60.4839577 L145.086207,62.5490845 C145.086207,63.550493 145.116133,64.2436901 145.163793,64.6019718 C145.210345,64.8356338 145.262438,64.9991972 145.35,65.092662 C145.427586,65.1761127 145.553941,65.2361972 145.725739,65.2617887 L146.969335,65.2962817 L146.969335,65.9549859 C146.205665,65.9071408 145.58165,65.8770986 145.078448,65.8770986 C144.642857,65.8770986 143.926847,65.9071408 142.919335,65.9549859 C143.024631,64.0422958 143.074507,62.8283662 143.074507,62.3209859 L143.074507,60.3626761 C143.074507,59.1431831 143.031281,58.3387183 142.935961,57.9615211 C142.802956,57.4441268 142.512562,57.0179718 142.045936,56.7030845 C141.578202,56.3881972 141.015148,56.2268592 140.361207,56.2268592 C139.782635,56.2268592 139.250616,56.3637183 138.772906,56.6385493 C138.294089,56.9122676 137.944951,57.2360563 137.739901,57.591 C137.535961,57.9548451 137.43399,58.5645915 137.43399,59.4157887 L137.43399,60.8311127 C137.471675,62.8539577 137.493842,63.945493 137.493842,64.1079437 C137.504926,64.4929296 137.560345,64.7722113 137.632389,64.9591408 C137.66564,65.0270141 137.707759,65.0893239 137.772044,65.1349437 C137.83633,65.1928028 137.934975,65.2295211 138.066872,65.2617887 C138.10899,65.2673521 138.541256,65.2762535 139.350369,65.2962817 L139.350369,65.9549859 C138.407143,65.9071408 137.553695,65.8770986 136.785591,65.8770986 C136.1383,65.8770986 135.074261,65.9071408 133.603448,65.9549859" id="Fill-25" fill="#FFFFFF"></path>
                <path d="M149.796798,59.3824085 C150.009606,59.4091127 150.416379,59.4347042 151.023768,59.4513944 C152.175369,59.490338 152.972291,59.5137042 153.406773,59.5137042 C154.43202,59.5137042 155.10702,59.490338 155.437315,59.4513944 C155.441749,59.2700282 155.443966,59.1287183 155.443966,59.0285775 C155.443966,57.7912817 155.200123,56.8978028 154.702463,56.3225493 C154.21367,55.7472958 153.547537,55.4557746 152.717365,55.4557746 C151.839532,55.4557746 151.144581,55.7673239 150.609236,56.4004366 C150.073892,57.0335493 149.803448,58.0249437 149.796798,59.3824085 L149.796798,59.3824085 Z M157.232882,64.1502254 L156.862685,64.9902958 C156.326232,65.3274366 155.939409,65.5444085 155.685591,65.6512254 C155.330911,65.8159014 154.907512,65.9527606 154.437562,66.0729296 C153.978695,66.1819718 153.479926,66.2420563 152.966749,66.2420563 C151.938177,66.2420563 151.018227,66.0206338 150.184729,65.6011549 C149.362315,65.1694366 148.717241,64.5296479 148.252833,63.6795634 C147.789532,62.8294789 147.55899,61.8269577 147.55899,60.6920282 C147.55899,59.7918732 147.684236,58.9951972 147.925862,58.2686197 C148.176355,57.5520563 148.451232,57.0179718 148.75936,56.677493 C148.986576,56.4315915 149.332389,56.1511972 149.805665,55.8240704 C150.277833,55.499169 150.746675,55.2454789 151.212192,55.066338 C151.824015,54.8048592 152.479064,54.6735634 153.189532,54.6735634 C154.060714,54.6735634 154.842118,54.8738451 155.544828,55.2721831 C156.246429,55.6616197 156.756281,56.2023803 157.086576,56.8944648 C157.405788,57.5765352 157.569828,58.3520704 157.569828,59.208831 C157.569828,59.4224648 157.555419,59.6883944 157.518842,59.9966056 C156.956897,60.1145493 156.45702,60.1824225 156.016995,60.2146901 C155.180172,60.2692113 154.351108,60.3003662 153.514286,60.3003662 L149.796798,60.3003662 C149.807882,61.4152676 150.001847,62.3209859 150.370936,63.0063944 C150.740025,63.7029296 151.246552,64.2114225 151.890517,64.5318732 C152.535591,64.862338 153.208374,65.0270141 153.897783,65.0270141 C154.371059,65.0270141 154.842118,64.9535775 155.309852,64.7944648 C155.780911,64.6475915 156.358374,64.3594085 157.052217,63.9499437 L157.232882,64.1502254 L157.232882,64.1502254 Z" id="Fill-26" fill="#FFFFFF"></path>
                <path d="M158.781281,65.9549859 L158.781281,65.2962817 L159.868596,65.2784789 C160.048153,65.2740282 160.170074,65.2428732 160.263177,65.1972535 C160.355172,65.1416197 160.421675,65.0759718 160.462685,65.0025352 C160.55468,64.8523239 160.601232,64.5685915 160.621182,64.1791549 C160.625616,64.0779014 160.655542,62.9618873 160.698768,60.8344507 L160.698768,55.9965352 C160.698768,54.7047183 160.676601,53.3606056 160.637808,51.9864507 C160.606773,51.0484648 160.565764,50.5321831 160.50702,50.4175775 C160.470443,50.3408028 160.406158,50.2929577 160.325246,50.2606901 C160.204433,50.2039437 159.666872,50.1739014 158.711453,50.1739014 L158.711453,49.4896056 C160.462685,49.2659577 161.677463,48.9944648 162.356897,48.6751268 C162.45665,48.6217183 162.530911,48.6061408 162.589655,48.6061408 C162.648399,48.6061408 162.6883,48.6172676 162.719335,48.6528732 C162.750369,48.6873662 162.76367,48.7418873 162.76367,48.8041972 C162.76367,48.8520423 162.75702,48.9377183 162.745936,49.0289577 L162.728202,49.4183944 C162.690517,50.8092394 162.666133,51.9942394 162.658374,52.9733944 L162.631773,54.7837183 L162.631773,60.833338 C162.667241,62.8550704 162.689409,63.945493 162.693842,64.110169 C162.698276,64.4929296 162.750369,64.7722113 162.832389,64.9591408 C162.862315,65.0270141 162.916626,65.0893239 162.972044,65.1349437 C163.034113,65.1928028 163.130542,65.2295211 163.259113,65.2617887 C163.306773,65.2673521 163.740148,65.2762535 164.550369,65.2962817 L164.550369,65.9549859 C163.499631,65.9071408 162.578571,65.8770986 161.778325,65.8770986 C161.015764,65.8770986 160.02266,65.9071408 158.781281,65.9549859" id="Fill-27" fill="#FFFFFF"></path>
                <path d="M166.023399,65.9549859 L166.023399,65.2962817 L167.114039,65.2784789 C167.285837,65.2740282 167.415517,65.2428732 167.506404,65.1972535 C167.589532,65.1416197 167.657143,65.0759718 167.709236,65.0025352 C167.790148,64.8523239 167.845567,64.5685915 167.85665,64.1791549 C167.862192,64.0779014 167.889901,62.9618873 167.943103,60.8344507 L167.943103,55.9965352 C167.943103,54.7047183 167.918719,53.3606056 167.882143,51.9864507 C167.85,51.0484648 167.810099,50.5321831 167.752463,50.4175775 C167.714778,50.3408028 167.651601,50.2929577 167.57069,50.2606901 C167.448768,50.2039437 166.911207,50.1739014 165.955788,50.1739014 L165.955788,49.4896056 C167.70702,49.2659577 168.92069,48.9944648 169.60234,48.6751268 C169.702094,48.6217183 169.775246,48.6061408 169.83399,48.6061408 C169.882759,48.6061408 169.931527,48.6172676 169.964778,48.6528732 C169.986946,48.6873662 170.008005,48.7418873 170.008005,48.8041972 C170.008005,48.8520423 170.001355,48.9377183 169.980296,49.0289577 L169.971429,49.4183944 C169.934852,50.8092394 169.90936,51.9942394 169.903818,52.9733944 L169.877217,54.7837183 L169.877217,60.833338 C169.90936,62.8550704 169.934852,63.945493 169.938177,64.110169 C169.943719,64.4929296 169.986946,64.7722113 170.076724,64.9591408 C170.108867,65.0270141 170.150985,65.0893239 170.216379,65.1349437 C170.279557,65.1928028 170.374877,65.2295211 170.503448,65.2617887 C170.551108,65.2673521 170.984483,65.2762535 171.794704,65.2962817 L171.794704,65.9549859 C170.745074,65.9071408 169.814039,65.8770986 169.023768,65.8770986 C168.25899,65.8770986 167.265887,65.9071408 166.023399,65.9549859" id="Fill-28" fill="#FFFFFF"></path>
                <path d="M178.88165,50.1583239 L178.88165,49.4117183 C180.138547,49.4595634 181.313424,49.4896056 182.396305,49.4896056 C183.49803,49.4896056 184.587562,49.4595634 185.669335,49.4117183 L185.669335,50.1583239 C184.770443,50.168338 184.211823,50.2072817 184.010099,50.2729296 C183.808374,50.3396901 183.675369,50.4342676 183.605542,50.5466479 C183.505788,50.7057606 183.441502,51.0818451 183.424877,51.6826901 C183.407143,51.8317887 183.394951,52.9389014 183.363916,54.9851127 L183.363916,59.3000704 C183.363916,60.9657465 183.468103,62.0628451 183.679803,62.5980423 C183.898153,63.1310141 184.237315,63.5716338 184.703941,63.9176761 C185.054187,64.1836056 185.530788,64.3939014 186.135961,64.5563521 C186.740025,64.7165775 187.415025,64.7933521 188.157635,64.7933521 C189.026601,64.7933521 189.799138,64.6876479 190.470813,64.4784648 C191.146921,64.2559296 191.65234,63.993338 191.989286,63.6884648 C192.326232,63.3824789 192.573399,63.0397746 192.739655,62.6614648 C192.905911,62.2842676 193.021182,61.7557465 193.103202,61.0981549 C193.175246,60.4305493 193.209606,59.5871408 193.209606,58.5701549 L193.209606,54.9851127 C193.209606,53.9302958 193.187438,52.9021831 193.150862,51.8907606 C193.139778,51.150831 193.081034,50.7124366 192.999015,50.5766901 C192.908128,50.4420563 192.767365,50.3396901 192.564532,50.2729296 C192.365025,50.2072817 191.805296,50.168338 190.896429,50.1583239 L190.896429,49.4117183 C192.169951,49.4595634 193.106527,49.4896056 193.69064,49.4896056 C194.224877,49.4896056 195.190271,49.4595634 196.577956,49.4117183 L196.577956,50.1583239 C195.664655,50.168338 195.103818,50.2072817 194.905419,50.2729296 C194.70702,50.3396901 194.571798,50.4342676 194.496429,50.5466479 C194.401108,50.7057606 194.350123,51.0818451 194.324631,51.6826901 C194.320197,51.8317887 194.300246,52.9400141 194.281404,54.9851127 L194.281404,58.892831 C194.281404,60.8055211 194.149507,62.1485211 193.877956,62.9051408 C193.613054,63.670662 193.117611,64.343831 192.407143,64.9235352 C191.871798,65.3608169 191.187931,65.6990704 190.347783,65.9382958 C189.505419,66.1786338 188.582143,66.2932394 187.552463,66.2932394 C186.364286,66.2932394 185.326847,66.1519296 184.45234,65.8737606 C183.576724,65.5844648 182.917241,65.2106056 182.457266,64.7544085 C182.005049,64.2904225 181.685837,63.8186479 181.515148,63.3390845 C181.301232,62.7015211 181.195936,61.6366901 181.195936,60.1323521 L181.195936,54.9851127 C181.195936,53.9314085 181.17931,52.9021831 181.161576,51.8907606 C181.136084,51.150831 181.076232,50.7124366 180.994212,50.5766901 C180.902217,50.4420563 180.761453,50.3396901 180.560837,50.2729296 C180.362438,50.2072817 179.798276,50.168338 178.88165,50.1583239" id="Fill-29" fill="#FFFFFF"></path>
                <path d="M196.589039,65.9549859 L196.589039,65.2962817 L197.698522,65.2784789 C197.864778,65.2740282 197.994458,65.2428732 198.077586,65.1961408 C198.17069,65.1416197 198.237192,65.0759718 198.282635,65.0025352 C198.373522,64.8523239 198.428941,64.5674789 198.446675,64.1780423 C198.446675,64.0767887 198.469951,62.9607746 198.507635,60.8311127 L198.507635,59.4436056 C198.507635,58.8249577 198.499877,58.1540141 198.473276,57.4407887 C198.446675,56.9779155 198.411207,56.7064225 198.364655,56.6263099 C198.310345,56.5361831 198.229433,56.4705352 198.10197,56.4304789 C197.974507,56.3904225 197.471305,56.368169 196.589039,56.3726197 L196.589039,55.7150282 C198.161823,55.492493 199.292365,55.2120986 200.019458,54.8649437 C200.16798,54.781493 200.272167,54.7447746 200.329803,54.7447746 C200.388547,54.7447746 200.428448,54.7670282 200.459483,54.8048592 C200.491626,54.8415775 200.502709,54.9027746 200.502709,54.9784366 C200.502709,55.0362958 200.500493,55.0897042 200.494951,55.1687042 C200.467241,55.4468732 200.451724,56.0332535 200.426232,56.9378592 L202.583128,55.0819155 C203.219335,54.8482535 203.812315,54.7347606 204.380911,54.7347606 C205.011576,54.7347606 205.600123,54.8649437 206.164286,55.1175211 C206.729557,55.3767746 207.145197,55.6938873 207.434483,56.0877746 C207.713793,56.4727606 207.905542,56.9667887 207.990887,57.5542817 C208.049631,57.8992113 208.078448,58.8761408 208.078448,60.4839577 L208.078448,62.5490845 C208.078448,63.550493 208.107266,64.2436901 208.154926,64.6019718 C208.193719,64.8356338 208.25468,64.9991972 208.333374,65.092662 C208.419828,65.1761127 208.547291,65.2361972 208.71798,65.2617887 L209.962685,65.2962817 L209.962685,65.9549859 C209.196798,65.9071408 208.565025,65.8770986 208.059606,65.8770986 C207.626232,65.8770986 206.909113,65.9071408 205.901601,65.9549859 C206.01798,64.0422958 206.06564,62.8283662 206.06564,62.3209859 L206.06564,60.3626761 C206.06564,59.1431831 206.022414,58.3387183 205.928202,57.9615211 C205.796305,57.4441268 205.494828,57.0179718 205.028202,56.7030845 C204.570443,56.3881972 204.006281,56.2268592 203.355665,56.2268592 C202.76601,56.2268592 202.242857,56.3637183 201.755172,56.6385493 C201.277463,56.9122676 200.934975,57.2360563 200.732143,57.591 C200.527094,57.9548451 200.426232,58.5645915 200.426232,59.4157887 L200.426232,60.8311127 C200.4617,62.8539577 200.486084,63.945493 200.486084,64.1079437 C200.497167,64.4929296 200.541502,64.7722113 200.624631,64.9591408 C200.656773,65.0270141 200.698892,65.0893239 200.762069,65.1349437 C200.827463,65.1928028 200.925,65.2295211 201.059113,65.2617887 C201.101232,65.2673521 201.532389,65.2762535 202.343719,65.2962817 L202.343719,65.9549859 C201.399384,65.9071408 200.537069,65.8770986 199.776724,65.8770986 C199.121675,65.8770986 198.063177,65.9071408 196.589039,65.9549859" id="Fill-30" fill="#FFFFFF"></path>
                <path d="M214.02266,49.5496901 C214.387315,49.5496901 214.693227,49.6709718 214.942611,49.9324507 C215.197537,50.1928169 215.327217,50.5010282 215.327217,50.8693239 C215.327217,51.2220423 215.196429,51.5258028 214.937069,51.7872817 C214.686576,52.0387465 214.381773,52.1678169 214.02266,52.1678169 C213.655788,52.1678169 213.34766,52.0387465 213.098276,51.7872817 C212.838916,51.5258028 212.709236,51.2220423 212.709236,50.8693239 C212.709236,50.5010282 212.838916,50.1928169 213.098276,49.9324507 C213.34766,49.6709718 213.655788,49.5496901 214.02266,49.5496901 L214.02266,49.5496901 Z M211.187438,56.3659437 L211.187438,55.698338 C212.693719,55.5269859 213.952833,55.2054225 214.97032,54.7158451 L215.230788,54.9094507 C215.167611,56.5651127 215.136576,57.828 215.136576,58.7059014 L215.136576,60.8311127 C215.172044,62.8539577 215.199754,63.945493 215.20197,64.1079437 C215.209729,64.4929296 215.258498,64.7722113 215.333867,64.9591408 C215.371552,65.0270141 215.428079,65.0893239 215.481281,65.1349437 C215.54335,65.1928028 215.640887,65.2295211 215.766133,65.2617887 C215.80936,65.2673521 216.241626,65.2762535 217.052956,65.2962817 L217.052956,65.9549859 C215.874754,65.9071408 214.933744,65.8770986 214.228818,65.8770986 C213.612562,65.8770986 212.598399,65.9071408 211.187438,65.9549859 L211.187438,65.2962817 L212.299138,65.2784789 C212.464286,65.2740282 212.591749,65.2428732 212.674877,65.1961408 C212.771305,65.1416197 212.8367,65.0759718 212.881034,65.0025352 C212.970813,64.8523239 213.018473,64.5674789 213.045074,64.1780423 C213.045074,64.0767887 213.069458,62.9607746 213.106034,60.8311127 L213.106034,58.776 C213.106034,57.6188169 213.069458,56.9345211 212.985222,56.7119859 C212.941995,56.6007183 212.862192,56.5083662 212.738054,56.4571831 C212.615025,56.3959859 212.100739,56.3659437 211.187438,56.3659437 L211.187438,56.3659437 Z" id="Fill-31" fill="#FFFFFF"></path>
                <path d="M223.035961,66.0773803 C222.733374,65.2784789 222.526108,64.7521831 222.414163,64.4829155 L221.464286,62.252 L219.080172,56.6952958 C218.920567,56.3381268 218.798645,56.1044648 218.681158,55.9931972 C218.574754,55.8797042 218.4617,55.7984789 218.329803,55.7673239 C218.213424,55.7428451 217.931897,55.7183662 217.465271,55.698338 L217.465271,55.0040282 C218.748768,55.0529859 219.686453,55.0819155 220.271675,55.0819155 C220.928941,55.0819155 221.813424,55.0529859 222.949507,55.0040282 L222.949507,55.698338 C222.112685,55.7228169 221.617241,55.7817887 221.472044,55.8630141 C221.329064,55.9531408 221.248153,56.0644085 221.248153,56.2168451 C221.248153,56.4427183 221.405542,56.9467606 221.71367,57.7178451 L223.132389,61.2617183 L223.469335,62.049493 C223.845074,62.9730141 224.108867,63.5849859 224.246305,63.9054366 L225.412315,61.2617183 C225.481034,61.1059437 225.826847,60.2269296 226.464163,58.6391408 C226.835468,57.714507 227.080419,57.0079577 227.207882,56.5217183 C227.238916,56.3881972 227.25,56.2669155 227.25,56.165662 C227.25,56.0332535 227.204557,55.9464648 227.103695,55.8897183 C226.915271,55.7873521 226.423153,55.7228169 225.618473,55.698338 L225.618473,55.0040282 C226.770074,55.0529859 227.510468,55.0819155 227.839655,55.0819155 C228.10899,55.0819155 228.849384,55.0529859 230.049754,55.0040282 L230.049754,55.698338 C229.572044,55.7228169 229.257266,55.7840141 229.095443,55.8663521 C228.933621,55.9587042 228.78399,56.1511972 228.623276,56.4260282 C228.519089,56.608507 228.094581,57.4485775 227.370813,58.9406761 L226.256897,61.3329296 C226.061823,61.7546338 225.391256,63.3401972 224.244089,66.0773803 L223.035961,66.0773803" id="Fill-32" fill="#FFFFFF"></path>
                <path d="M232.879433,59.3824085 C233.101108,59.4091127 233.50899,59.4347042 234.114163,59.4513944 C235.264655,59.490338 236.056034,59.5137042 236.489409,59.5137042 C237.523522,59.5137042 238.199631,59.490338 238.527709,59.4513944 C238.533251,59.2700282 238.535468,59.1287183 238.535468,59.0285775 C238.535468,57.7912817 238.291626,56.8978028 237.793966,56.3225493 C237.294089,55.7472958 236.639039,55.4557746 235.80665,55.4557746 C234.931034,55.4557746 234.226108,55.7673239 233.690764,56.4004366 C233.155419,57.0335493 232.883867,58.0249437 232.879433,59.3824085 L232.879433,59.3824085 Z M240.324384,64.1502254 L239.954187,64.9902958 C239.417734,65.3274366 239.022044,65.5444085 238.778202,65.6512254 C238.412438,65.8159014 237.997906,65.9527606 237.530172,66.0729296 C237.06133,66.1819718 236.573645,66.2420563 236.047167,66.2420563 C235.028571,66.2420563 234.098645,66.0206338 233.276232,65.6011549 C232.444951,65.1694366 231.800985,64.5296479 231.346552,63.6795634 C230.882143,62.8294789 230.650493,61.8269577 230.650493,60.6920282 C230.650493,59.7918732 230.775739,58.9951972 231.017365,58.2686197 C231.257882,57.5520563 231.534975,57.0179718 231.850862,56.677493 C232.071429,56.4315915 232.423892,56.1511972 232.897167,55.8240704 C233.369335,55.499169 233.82931,55.2454789 234.295936,55.066338 C234.905542,54.8048592 235.570567,54.6735634 236.282143,54.6735634 C237.152217,54.6735634 237.933621,54.8738451 238.63633,55.2721831 C239.339039,55.6616197 239.85,56.2023803 240.169212,56.8944648 C240.498399,57.5765352 240.66133,58.3520704 240.66133,59.208831 C240.66133,59.4224648 240.638054,59.6883944 240.599261,59.9966056 C240.049507,60.1145493 239.548522,60.1824225 239.107389,60.2146901 C238.270567,60.2692113 237.433744,60.3003662 236.606897,60.3003662 L232.879433,60.3003662 C232.899384,61.4152676 233.085591,62.3209859 233.453571,63.0063944 C233.821552,63.7029296 234.329187,64.2114225 234.974261,64.5318732 C235.61601,64.862338 236.29101,65.0270141 236.989286,65.0270141 C237.461453,65.0270141 237.933621,64.9535775 238.403571,64.7944648 C238.871305,64.6475915 239.448768,64.3594085 240.133744,63.9499437 L240.324384,64.1502254 L240.324384,64.1502254 Z" id="Fill-33" fill="#FFFFFF"></path>
                <path d="M241.847291,65.9549859 L241.847291,65.2962817 C242.726232,65.2762535 243.201724,65.2662394 243.268227,65.2428732 C243.404557,65.2272958 243.502094,65.1928028 243.568596,65.1349437 C243.635099,65.0893239 243.691626,65.0214507 243.72931,64.9235352 C243.80468,64.738831 243.856773,64.460662 243.867857,64.0823521 C243.905542,62.0105493 243.928818,60.9245775 243.928818,60.8311127 L243.928818,59.4436056 C243.928818,58.8249577 243.912192,58.1540141 243.89335,57.4407887 C243.873399,56.9779155 243.841256,56.7064225 243.793596,56.6263099 C243.740394,56.5361831 243.656158,56.4705352 243.527586,56.4304789 C243.396798,56.3904225 242.891379,56.368169 242.010222,56.3726197 L242.010222,55.7150282 C243.571921,55.492493 244.713547,55.2120986 245.430665,54.8649437 C245.590271,54.781493 245.69335,54.7447746 245.752094,54.7447746 C245.799754,54.7447746 245.849631,54.7670282 245.881773,54.8048592 C245.913916,54.8415775 245.923892,54.9027746 245.923892,54.9784366 C245.923892,55.0362958 245.921675,55.0897042 245.915025,55.1687042 C245.867365,55.6438169 245.852956,56.3703944 245.846305,57.3718028 C246.192118,56.9667887 246.508005,56.5651127 246.806158,56.165662 C247.103202,55.7673239 247.311576,55.5158592 247.444581,55.3945775 C247.676232,55.2020845 247.945567,55.0374085 248.248153,54.9127887 C248.548522,54.7970704 248.861084,54.7347606 249.189163,54.7347606 C249.508374,54.7347606 249.834236,54.8048592 250.146798,54.9439437 L250.216626,55.107507 C250.105788,56.1367324 250.037069,57.0480141 250.018227,57.8302254 L249.499507,57.8302254 C249.323276,57.4574789 249.118227,57.1848732 248.882143,57.0157465 C248.646059,56.845507 248.349015,56.7642817 247.987685,56.7642817 C247.399138,56.7642817 246.881527,57.0079577 246.468103,57.5053239 C246.053571,57.9926761 245.846305,58.7359437 245.846305,59.7217746 L245.846305,60.9245775 C245.846305,61.4397465 245.860714,62.3677183 245.898399,63.7351972 C245.913916,64.2136479 245.926108,64.5240845 245.957143,64.6542676 C245.990394,64.7889014 246.029187,64.8834789 246.084606,64.9357746 C246.128941,64.9980845 246.216502,65.0425915 246.330665,65.0882113 C246.563424,65.1583099 247.185222,65.2272958 248.211576,65.2962817 L248.211576,65.9549859 C246.843842,65.9071408 245.688916,65.8770986 244.721305,65.8770986 C243.738177,65.8770986 242.779433,65.9071408 241.847291,65.9549859" id="Fill-34" fill="#FFFFFF"></path>
                <path d="M251.839286,62.4367042 L252.53867,62.4367042 C252.546429,62.8929014 252.571921,63.2433944 252.607389,63.5104366 C252.645074,63.7763662 252.712685,64.0389577 252.808005,64.2859718 C252.902217,64.5329859 253.044089,64.7532958 253.241379,64.9268732 C253.436453,65.1015634 253.645936,65.2373099 253.876478,65.3352254 C254.098153,65.4353662 254.33202,65.4999014 254.568103,65.5310563 C254.804187,65.5622113 255.167734,65.573338 255.644335,65.573338 C256.441256,65.573338 257.088547,65.3652676 257.593966,64.941338 C258.103818,64.5251972 258.362069,63.9499437 258.362069,63.2144648 C258.362069,62.8951268 258.276724,62.602493 258.123768,62.3565915 C257.961946,62.1129155 257.731404,61.9148592 257.431034,61.774662 C257.131773,61.6366901 256.491133,61.4497606 255.506897,61.2305634 C254.524877,61.0013521 253.88867,60.8355634 253.606034,60.7365352 C253.169335,60.5707465 252.816872,60.3704648 252.566379,60.1457042 C252.305911,59.9109296 252.103079,59.6149577 251.957882,59.253338 C251.802709,58.9017324 251.728448,58.5056197 251.728448,58.0917042 C251.728448,57.4786197 251.891379,56.9089296 252.208374,56.3959859 C252.533128,55.8808169 253.039655,55.4557746 253.725739,55.1397746 C254.421798,54.8126479 255.169951,54.6479718 255.982389,54.6479718 C256.475616,54.6479718 257.043103,54.7147324 257.688177,54.8538169 C258.328818,54.987338 258.847537,55.1564648 259.250985,55.3589718 C259.203325,56.2268592 259.156773,57.1058732 259.139039,57.9960141 L258.474015,57.9960141 C258.437438,57.4240986 258.39532,57.0535775 258.337685,56.876662 C258.29335,56.6997465 258.225739,56.5395211 258.135961,56.4004366 C258.053941,56.2591268 257.903202,56.1155915 257.694828,55.9531408 C257.487562,55.7918028 257.21601,55.653831 256.885714,55.5247606 C256.553202,55.4068169 256.148645,55.3422817 255.669828,55.3422817 C254.989286,55.3422817 254.43399,55.5459014 254.020567,55.9486901 C253.60936,56.3548169 253.403202,56.8288169 253.403202,57.3718028 C253.403202,57.6744507 253.457512,57.9292535 253.58165,58.1517887 C253.705788,58.3654225 253.858744,58.5401127 254.061576,58.6736338 C254.2633,58.8127183 254.550369,58.937338 254.908374,59.0441549 L256.845813,59.521493 C257.824507,59.7762958 258.497291,59.9865915 258.866379,60.1623944 C259.225493,60.3470986 259.523645,60.6252676 259.75197,60.9991268 C259.980296,61.3752113 260.090025,61.8236197 260.090025,62.3565915 C260.090025,63.4058451 259.655542,64.3204648 258.79766,65.1015634 C257.927586,65.8804366 256.774877,66.2765493 255.325123,66.2765493 C254.656773,66.2765493 253.771182,66.1741831 252.663916,65.9716761 C252.042118,65.851507 251.72069,65.7736197 251.667488,65.7202113 C251.635345,65.7046338 251.624261,65.6668028 251.624261,65.607831 C251.624261,65.5499718 251.629803,65.4832113 251.65197,65.408662 C251.72069,65.0726338 251.7617,64.7521831 251.7883,64.4283944 C251.81601,64.1146197 251.828202,63.4470141 251.839286,62.4367042" id="Fill-35" fill="#FFFFFF"></path>
                <path d="M264.041379,49.5496901 C264.408251,49.5496901 264.714163,49.6709718 264.970197,49.9324507 C265.217365,50.1928169 265.345936,50.5010282 265.345936,50.8693239 C265.345936,51.2220423 265.216256,51.5258028 264.956897,51.7872817 C264.706404,52.0387465 264.401601,52.1678169 264.041379,52.1678169 C263.676724,52.1678169 263.368596,52.0387465 263.116995,51.7872817 C262.857635,51.5258028 262.729064,51.2220423 262.729064,50.8693239 C262.729064,50.5010282 262.857635,50.1928169 263.116995,49.9324507 C263.368596,49.6709718 263.676724,49.5496901 264.041379,49.5496901 L264.041379,49.5496901 Z M261.208374,56.3659437 L261.208374,55.698338 C262.715764,55.5269859 263.97266,55.2054225 264.992365,54.7158451 L265.250616,54.9094507 C265.18633,56.5651127 265.156404,57.828 265.156404,58.7059014 L265.156404,60.8311127 C265.19298,62.8539577 265.218473,63.945493 265.224015,64.1079437 C265.24064,64.4929296 265.28165,64.7722113 265.353695,64.9591408 C265.391379,65.0270141 265.447906,65.0893239 265.508867,65.1349437 C265.565394,65.1928028 265.659606,65.2295211 265.787069,65.2617887 C265.829187,65.2673521 266.261453,65.2762535 267.073892,65.2962817 L267.073892,65.9549859 C265.89569,65.9071408 264.95468,65.8770986 264.249754,65.8770986 C263.632389,65.8770986 262.619335,65.9071408 261.208374,65.9549859 L261.208374,65.2962817 L262.320074,65.2784789 C262.484113,65.2740282 262.613793,65.2428732 262.695813,65.1961408 C262.790025,65.1416197 262.857635,65.0759718 262.899754,65.0025352 C262.989532,64.8523239 263.049384,64.5674789 263.064901,64.1780423 C263.064901,64.0767887 263.089286,62.9607746 263.12697,60.8311127 L263.12697,58.776 C263.12697,57.6188169 263.089286,56.9345211 263.013916,56.7119859 C262.961823,56.6007183 262.883128,56.5083662 262.760099,56.4571831 C262.644828,56.3959859 262.121675,56.3659437 261.208374,56.3659437 L261.208374,56.3659437 Z" id="Fill-36" fill="#FFFFFF"></path>
                <path d="M267.569335,56.8154648 L267.569335,56.330338 C268.313054,56.0332535 268.901601,55.7673239 269.3383,55.5414507 L269.3383,51.9942394 C270.145197,51.7182958 270.805788,51.4167606 271.310099,51.0929718 L271.584975,51.3277465 C271.495197,51.9730986 271.409852,53.3939859 271.310099,55.5948592 C271.925246,55.6093239 272.29766,55.612662 272.425123,55.612662 C272.492734,55.612662 272.88399,55.5970845 273.614409,55.5848451 C274.018966,55.5792817 274.320443,55.5581408 274.523276,55.5414507 L274.598645,55.619338 L274.359236,56.7030845 C273.874877,56.6975211 273.419335,56.6952958 273.010345,56.6952958 C272.602463,56.6952958 272.030542,56.6975211 271.310099,56.7030845 L271.249138,61.4464225 C271.223645,62.602493 271.229187,63.3001408 271.275739,63.5182254 C271.311207,63.7463239 271.38436,63.945493 271.489655,64.1123944 C271.596059,64.2804085 271.735714,64.4161549 271.916379,64.5162958 C272.089286,64.6175493 272.377463,64.6920986 272.799754,64.7499577 C273.112315,64.7499577 273.372783,64.7321549 273.571182,64.7021127 C273.759606,64.6831972 274.01564,64.6142113 274.31601,64.4973803 L274.453448,64.9591408 C274.088793,65.2417606 273.738547,65.5421831 273.400493,65.851507 C273.104557,65.968338 272.831897,66.0384366 272.572537,66.0729296 C272.320936,66.1074225 272.026108,66.1207746 271.691379,66.1207746 C271.282389,66.1207746 270.95431,66.0773803 270.711576,65.9805775 C270.471059,65.8871127 270.244951,65.7547042 270.043227,65.5878028 C269.842611,65.4286901 269.674138,65.209493 269.541133,64.9591408 C269.408128,64.6987746 269.326108,64.2926479 269.288424,63.7440986 C269.295074,63.2111268 269.306158,62.6325352 269.330542,62.0105493 C269.337192,61.8814789 269.3383,61.7479577 269.3383,61.6021972 L269.3383,56.7642817 L268.865025,56.7642817 C268.481527,56.7642817 268.047044,56.7776338 267.569335,56.8154648" id="Fill-37" fill="#FFFFFF"></path>
                <path d="M276.02069,72.1982113 L276.615887,70.4034648 L276.891872,70.4034648 C277.043719,70.5214085 277.164532,70.6215493 277.266502,70.6927606 C277.380665,70.7762113 277.490394,70.825169 277.604557,70.8618873 C277.728695,70.8997183 277.902709,70.9230845 278.135468,70.9230845 C278.374877,70.9230845 278.610961,70.866338 278.841502,70.7628592 C279.070936,70.6593803 279.280419,70.4935915 279.479926,70.2732817 C279.678325,70.0451831 279.9133,69.6601972 280.183744,69.1038592 C280.591626,68.2760282 280.961823,67.428169 281.279926,66.5602817 C281.033867,65.8670845 280.733498,65.0748592 280.388793,64.2125352 L278.538916,59.6182958 C277.991379,58.2541549 277.535837,57.2071268 277.192241,56.4749859 C277.051478,56.1945915 276.898522,55.9976479 276.744458,55.8997324 C276.583744,55.8129437 276.233498,55.7272676 275.678202,55.6616197 L275.678202,55.0040282 C276.643596,55.0529859 277.590148,55.0819155 278.531158,55.0819155 C279.444458,55.0819155 280.323399,55.0529859 281.166872,55.0040282 L281.166872,55.6616197 C280.368842,55.7217042 279.915517,55.7662113 279.793596,55.818507 C279.591872,55.8930563 279.492118,56.0310282 279.492118,56.2313099 C279.492118,56.3592676 279.558621,56.608507 279.690517,56.9990563 C279.994212,57.9537324 280.285714,58.7704366 280.557266,59.4469437 L281.281034,61.269507 C281.732143,62.3565915 282.104557,63.2400563 282.407143,63.9154507 L283.018966,62.5357324 C283.258374,61.9916338 283.674015,60.9624085 284.278079,59.4391549 C284.882143,57.9136761 285.237931,56.9690141 285.34101,56.608507 C285.373153,56.4905634 285.384236,56.3726197 285.384236,56.2869437 C285.384236,56.1333944 285.321059,56.0232394 285.206897,55.9364507 C285.08165,55.8574507 284.613916,55.7817887 283.801478,55.698338 L283.801478,55.0040282 C284.702586,55.0529859 285.492857,55.0819155 286.1867,55.0819155 C286.877217,55.0819155 287.573276,55.0529859 288.251601,55.0040282 L288.138547,55.698338 C287.741749,55.7183662 287.434729,55.7984789 287.213054,55.9575915 C287.000246,56.1167042 286.671059,56.6340986 286.233251,57.5231268 C285.79766,58.418831 284.985222,60.1623944 283.801478,62.7716197 L281.123645,69.0671408 C280.690271,70.0841268 280.316749,70.8173803 279.993103,71.2524366 C279.679433,71.6897183 279.302586,72.0123944 278.852586,72.2427183 C278.412562,72.4697042 277.931527,72.5798592 277.402833,72.5798592 C277.151232,72.5798592 276.92069,72.5487042 276.716749,72.4886197 C276.5117,72.4374366 276.281158,72.3372958 276.02069,72.1982113" id="Fill-38" fill="#FFFFFF"></path>
                <polygon id="Fill-39" fill="#FFFFFF" points="306.104187 66.834 306.991995 66.834 306.991995 14.1955211 306.104187 14.1955211"></polygon>
            </g>
        </g>
    </g>
</svg>