<?xml version="1.0" encoding="UTF-8"?>
<svg width="500px" height="472px" viewBox="0 0 500 472" version="1.1" xmlns="http://www.w3.org/2000/svg" xmlns:xlink="http://www.w3.org/1999/xlink">
    <!-- Generator: Sketch 40.1 (33804) - http://www.bohemiancoding.com/sketch -->
    <title>pivot-black</title>
    <desc>Created with Sketch.</desc>
    <defs>
        <polygon id="path-1" points="111.880952 204.666667 0.0952380952 204.666667 0.0952380952 0.669791131 111.880952 0.669791131"></polygon>
    </defs>
    <g id="logos" stroke="none" stroke-width="1" fill="none" fill-rule="evenodd">
        <g id="pivot-black">
            <g id="JohnsonCornellTech_Logo_White" transform="translate(43.000000, 36.000000)">
                <g id="Group-5" transform="translate(0.000000, 195.238095)">
                    <mask id="mask-2" fill="white">
                        <use xlink:href="#path-1"></use>
                    </mask>
                    <g id="Clip-2"></g>
                    <path d="M111.880952,149.012698 C111.880952,118.268254 86.8746032,93.2571429 56.1285714,93.2571429 C25.384127,93.2571429 0.376190476,118.268254 0.376190476,149.012698 C0.376190476,179.749206 25.384127,204.761905 56.1285714,204.761905 C86.8746032,204.761905 111.880952,179.749206 111.880952,149.012698 L111.880952,149.012698 Z M110.42381,149.012698 C110.42381,178.955556 86.068254,203.307937 56.1285714,203.307937 C26.1904762,203.307937 1.83333333,178.955556 1.83333333,149.012698 C1.83333333,119.074603 26.1904762,94.7142857 56.1285714,94.7142857 C86.068254,94.7142857 110.42381,119.074603 110.42381,149.012698 L110.42381,149.012698 Z M107.711111,148.114286 L104.75873,146.652381 L107.530159,144.909524 L107.395238,142.507937 L102.653968,145.7 L99.4793651,145.87619 L99.5968254,147.925397 L102.771429,147.744444 L107.828571,150.34127 L107.711111,148.114286 L107.711111,148.114286 Z M105.220635,140.134921 L106.912698,139.719048 L105.404762,133.590476 L103.704762,134.006349 L104.215873,136.073016 L98.0587302,137.584127 L98.5460317,139.584127 L104.707937,138.063492 L105.220635,140.134921 L105.220635,140.134921 Z M96.6984127,133.414286 L104.187302,130.360317 L103.409524,128.461905 L95.9253968,131.519048 L96.6984127,133.414286 L96.6984127,133.414286 Z M99.7349206,125.492063 L101.414286,124.731746 L101.373016,124.509524 C101.250794,123.934921 101.020635,123.363492 100.666667,122.75873 C99.7857143,121.27619 98.3396825,120.796825 96.9888889,121.595238 C95.6015873,122.414286 95.8031746,123.728571 95.9507937,124.685714 C96.0761905,125.44127 96.1269841,125.887302 95.7746032,126.093651 C95.3746032,126.328571 94.8793651,125.928571 94.652381,125.550794 C94.4,125.119048 94.2539683,124.580952 94.2365079,124.001587 L94.2206349,123.577778 L92.3714286,124.433333 L92.5015873,124.846032 C92.6825397,125.471429 92.7968254,125.849206 93.1904762,126.512698 C93.8460317,127.625397 94.7238095,128.239683 95.652381,128.239683 C96.0857143,128.239683 96.5174603,128.112698 96.9507937,127.849206 C98.3825397,127.004762 98.1603175,125.660317 97.9952381,124.677778 C97.8825397,123.984127 97.8285714,123.552381 98.1174603,123.379365 C98.2603175,123.3 98.3952381,123.257143 98.5206349,123.257143 C98.8952381,123.257143 99.1380952,123.611111 99.2301587,123.757143 C99.4666667,124.157143 99.6174603,124.631746 99.684127,125.114286 L99.7349206,125.492063 L99.7349206,125.492063 Z M94.9587302,118.54127 C96.6984127,117.007937 95.3079365,115.420635 94.2920635,114.261905 L92.9603175,112.749206 L86.8777778,118.084127 L88.2349206,119.620635 L90.5825397,117.55873 L90.7126984,117.709524 C91.015873,118.053968 91.0238095,118.201587 90.7761905,118.679365 L89.5031746,121.077778 L91.0031746,122.779365 L92.6190476,119.557143 C92.6746032,119.439683 92.7920635,119.187302 92.8301587,118.903175 C93.5222222,119.204762 94.3539683,119.066667 94.9587302,118.54127 L94.9587302,118.54127 Z M93.6952381,116.622222 C93.6904762,116.765079 93.6111111,116.898413 93.4555556,117.033333 C93.3047619,117.168254 93.1619048,117.234921 93.0111111,117.234921 C92.6666667,117.234921 92.3047619,116.877778 92.031746,116.566667 L91.8968254,116.411111 L92.9936508,115.44127 L93.1365079,115.601587 C93.4222222,115.936508 93.7238095,116.311111 93.6952381,116.622222 L93.6952381,116.622222 Z M88.7730159,111.215873 L89.852381,109.842857 L85.9587302,106.796825 L80.9777778,113.169841 L84.8873016,116.226984 L85.9666667,114.853968 L83.6650794,113.060317 L84.6222222,111.830159 L86.7063492,113.463492 L87.7857143,112.090476 L85.6984127,110.455556 L86.4920635,109.434921 L88.7730159,111.215873 L88.7730159,111.215873 Z M76.8142857,110.669841 L82.8634921,104.663492 L81.0142857,103.731746 L77.1126984,107.704762 L77.9777778,102.203175 L76.0253968,101.207937 L74.8238095,109.669841 L76.8142857,110.669841 L76.8142857,110.669841 Z M70.3,107.834921 L72.7238095,100.119048 L70.7698413,99.4984127 L68.3428571,107.222222 L70.3,107.834921 L70.3,107.834921 Z M65.5666667,106.403175 L66.6507937,98.384127 L64.684127,98.1206349 L64.0460317,102.849206 L62.2984127,97.8015873 L60.047619,97.4936508 L58.9634921,105.515873 L60.9301587,105.780952 L61.568254,101.047619 L63.315873,106.1 L65.5666667,106.403175 L65.5666667,106.403175 Z M56.1285714,108.246032 C33.6492063,108.246032 15.3666667,126.530159 15.3666667,149.009524 C15.3666667,171.492063 33.6492063,189.779365 56.1285714,189.779365 C78.6079365,189.779365 96.8920635,171.492063 96.8920635,149.009524 C96.8920635,126.530159 78.6079365,108.246032 56.1285714,108.246032 L56.1285714,108.246032 Z M95.484127,149.009524 C95.484127,170.706349 77.8269841,188.365079 56.1285714,188.365079 C34.4269841,188.365079 16.7746032,170.706349 16.7746032,149.009524 C16.7746032,127.315873 34.4269841,109.657143 56.1285714,109.657143 C77.8269841,109.657143 95.484127,127.315873 95.484127,149.009524 L95.484127,149.009524 Z M82.7111111,156.703175 L82.7031746,121.493651 L29.9571429,121.498413 L29.9571429,156.095238 C29.9571429,164.11746 34.468254,171.915873 43.0079365,178.657143 C49.3587302,183.665079 55.6174603,186.314286 55.8809524,186.42381 L56.3634921,186.625397 L56.847619,186.419048 C57.115873,186.301587 63.3492063,183.61746 69.6793651,178.666667 C78.2047619,171.996825 82.7111111,164.403175 82.7111111,156.703175 L82.7111111,156.703175 Z M57.3015873,151.349206 C57.4222222,151.293651 57.5650794,151.234921 57.7634921,151.188889 C57.7761905,151.184127 58.7920635,150.979365 59.9126984,151.112698 C60.5857143,151.168254 61.2079365,151.230159 61.7873016,151.298413 C62.8365079,151.407937 63.7444444,151.503175 64.5714286,151.528571 C65.4063492,151.546032 66.0952381,151.546032 66.6793651,151.546032 L67.1793651,151.546032 L67.184127,168.103175 C66.7047619,168.111111 66.0746032,168.119048 65.3730159,168.103175 C63.8444444,168.069841 62.8031746,167.973016 61.8,167.884127 C60.7698413,167.787302 59.8460317,167.7 58.4809524,167.703175 C57.9984127,167.703175 57.6206349,167.807937 57.3015873,167.947619 L57.3015873,151.349206 L57.3015873,151.349206 Z M32.452381,144.347619 L55.1634921,144.347619 L55.1634921,149.328571 C54.7936508,149.260317 53.752381,149.109524 52.6095238,149.244444 C51.9333333,149.303175 51.3079365,149.369841 50.715873,149.433333 C49.7031746,149.542857 48.8285714,149.634921 48.0777778,149.652381 C47.1190476,149.67619 46.3587302,149.67619 45.7301587,149.67619 C45.2761905,149.67619 44.8888889,149.67619 44.5539683,149.680952 L43.6380952,149.701587 L43.6380952,154.515873 L41.3952381,154.515873 L41.3952381,157.128571 L43.6380952,157.128571 L43.6380952,161.936508 L41.3952381,161.936508 L41.3952381,164.546032 L43.6380952,164.546032 L43.6380952,169.896825 L44.5190476,169.942857 C44.5746032,169.946032 45.7920635,170.009524 47.368254,169.97619 C48.9587302,169.942857 50.0761905,169.838095 51.0634921,169.749206 C52.0793651,169.657143 52.9587302,169.577778 54.1587302,169.577778 C54.6301587,169.568254 54.784127,169.715873 55.0412698,170.039683 C55.0746032,170.080952 55.1206349,170.131746 55.1634921,170.177778 L55.1634921,183.331746 C49.6571429,180.626984 32.452381,170.971429 32.452381,156.095238 L32.452381,144.347619 L32.452381,144.347619 Z M54.2174603,167.703175 L54.1587302,167.703175 C52.8746032,167.703175 51.915873,167.792063 50.8952381,167.879365 C49.8920635,167.973016 48.8507937,168.069841 47.3206349,168.103175 C46.6206349,168.119048 45.9904762,168.111111 45.5111111,168.103175 L45.5111111,151.546032 L45.7301587,151.546032 C46.3634921,151.549206 47.1444444,151.546032 48.1238095,151.528571 C48.9507937,151.503175 49.8587302,151.407937 50.9126984,151.293651 C51.4920635,151.230159 52.1095238,151.168254 52.7984127,151.109524 C53.8952381,150.987302 54.9031746,151.184127 54.9031746,151.184127 C55.0079365,151.209524 55.0793651,151.239683 55.1634921,151.268254 L55.1634921,167.868254 C54.8904762,167.771429 54.5920635,167.703175 54.2174603,167.703175 L54.2174603,167.703175 Z M80.2079365,141.842857 L32.4571429,141.842857 L32.4571429,123.996825 L80.2079365,123.993651 L80.2079365,141.842857 L80.2079365,141.842857 Z M80.2126984,156.703175 C80.2126984,171.119048 62.5126984,180.887302 57.3015873,183.450794 L57.3015873,170.338095 C57.4015873,170.24127 57.4904762,170.147619 57.5619048,170.065079 C57.8222222,169.761905 57.9857143,169.577778 58.4857143,169.577778 C59.6904762,169.593651 60.5984127,169.652381 61.631746,169.749206 C62.6190476,169.838095 63.7349206,169.942857 65.3269841,169.97619 C66.8984127,170.014286 68.1206349,169.946032 68.1714286,169.942857 L69.0571429,169.896825 L69.0571429,164.998413 L71.131746,164.998413 L71.131746,162.38254 L69.0571429,162.38254 L69.0571429,157.639683 L71.131746,157.639683 L71.131746,155.031746 L69.052381,155.031746 L69.052381,149.701587 L68.1412698,149.680952 C67.8047619,149.673016 67.4190476,149.673016 66.9650794,149.67619 C66.331746,149.668254 65.5746032,149.67619 64.6174603,149.652381 C63.8698413,149.634921 62.9968254,149.542857 61.984127,149.433333 C61.3952381,149.369841 60.7619048,149.303175 60.1031746,149.244444 C58.6873016,149.084127 57.4349206,149.34127 57.3603175,149.357143 C57.3380952,149.366667 57.3222222,149.369841 57.3015873,149.379365 L57.3015873,144.347619 L80.2126984,144.347619 L80.2126984,156.703175 L80.2126984,156.703175 Z M39.0634921,126.719048 C39.0603175,129.630159 39.0555556,134.552381 39.0761905,134.779365 C39.1396825,135.787302 39.8079365,136.698413 41.1126984,137.568254 C42.7222222,138.647619 45.1206349,140.053968 45.2206349,140.112698 L45.6793651,140.38254 L46.1412698,140.125397 C46.2507937,140.066667 48.8380952,138.655556 50.4539683,137.568254 C52.3444444,136.307937 52.3777778,135.161905 52.3904762,134.779365 C52.4079365,134.568254 52.4031746,130.280952 52.3904762,126.719048 L52.3904762,125.785714 L39.0634921,125.785714 L39.0634921,126.719048 L39.0634921,126.719048 Z M50.5253968,130.08254 L40.9365079,130.08254 C40.9365079,129.268254 40.9412698,128.436508 40.9412698,127.655556 L50.5222222,127.655556 C50.5253968,128.431746 50.5253968,129.268254 50.5253968,130.08254 L50.5253968,130.08254 Z M40.9365079,131.957143 L50.5253968,131.957143 C50.5253968,133.414286 50.5253968,134.547619 50.5174603,134.72381 C50.5047619,135.190476 49.9079365,135.68254 49.4126984,136.014286 C48.2619048,136.787302 46.531746,137.769841 45.7126984,138.226984 C44.931746,137.760317 43.3095238,136.787302 42.1587302,136.009524 C41.4079365,135.514286 40.9666667,135.019048 40.9412698,134.652381 C40.9365079,134.519048 40.9365079,133.404762 40.9365079,131.957143 L40.9365079,131.957143 Z M61.4460317,126.32381 C61.4428571,129.98254 61.4428571,134.379365 61.4587302,134.606349 C61.5349206,135.62381 62.2142857,136.555556 63.5428571,137.44127 C65.1888889,138.546032 67.6460317,139.987302 67.7507937,140.050794 L68.2079365,140.319048 L68.6714286,140.063492 C68.7793651,140.003175 71.4380952,138.55873 73.1015873,137.44127 C75.0380952,136.147619 75.0666667,134.97619 75.0714286,134.585714 C75.0888889,134.379365 75.084127,129.977778 75.0761905,126.32381 L75.0714286,125.387302 L61.4460317,125.387302 L61.4460317,126.32381 L61.4460317,126.32381 Z M63.3238095,133.97619 L68.0444444,130.566667 L73.2063492,134.006349 C73.2063492,134.292063 73.2031746,134.480952 73.1984127,134.547619 C73.1904762,135.030159 72.5761905,135.539683 72.0603175,135.892063 C70.8714286,136.680952 69.0777778,137.693651 68.2428571,138.163492 C67.4444444,137.688889 65.7730159,136.680952 64.5873016,135.892063 C64.2222222,135.644444 63.3650794,135.014286 63.3285714,134.468254 C63.3238095,134.41746 63.3238095,134.24127 63.3238095,133.97619 L63.3238095,133.97619 Z M63.3190476,127.260317 L73.1984127,127.260317 C73.2063492,128.726984 73.2111111,130.390476 73.2111111,131.75873 L68.0031746,128.280952 L63.315873,131.666667 C63.315873,130.322222 63.315873,128.701587 63.3190476,127.260317 L63.3190476,127.260317 Z M53.3190476,160.206349 L53.4031746,158.333333 C53.2095238,158.325397 52.9873016,158.333333 52.747619,158.353968 L51.8285714,158.446032 C51.2857143,158.504762 50.8111111,158.560317 50.4,158.568254 L47.6492063,158.639683 L47.6904762,160.51746 L50.4428571,160.44127 C50.9047619,160.433333 51.4253968,160.374603 52.0301587,160.307937 L52.9079365,160.219048 C53.0507937,160.206349 53.1888889,160.198413 53.3190476,160.206349 L53.3190476,160.206349 Z M53.3365079,155.015873 L53.3603175,153.14127 C53.168254,153.14127 52.9539683,153.150794 52.7349206,153.171429 C52.4031746,153.196825 52.0968254,153.234921 51.8111111,153.268254 C51.2698413,153.322222 50.8031746,153.377778 50.3873016,153.380952 L47.631746,153.452381 L47.6777778,155.330159 L50.4285714,155.25873 C50.8825397,155.250794 51.4079365,155.192063 52.0126984,155.12381 C52.2936508,155.095238 52.5920635,155.065079 52.9079365,155.031746 C53.0539683,155.02381 53.2063492,155.011111 53.3365079,155.015873 L53.3365079,155.015873 Z M50.3111111,163.750794 C49.4380952,163.773016 48.0603175,163.819048 47.652381,163.826984 L47.6873016,165.696825 C48.0936508,165.687302 49.484127,165.649206 50.4460317,165.625397 C50.9047619,165.612698 51.4253968,165.553968 52.0333333,165.490476 L52.9412698,165.398413 C53.0793651,165.380952 53.2190476,165.380952 53.3444444,165.380952 L53.3730159,163.512698 C53.1761905,163.507937 52.9587302,163.512698 52.752381,163.533333 L51.8285714,163.625397 C51.2857143,163.688889 50.815873,163.742857 50.3111111,163.750794 L50.3111111,163.750794 Z M59.9126984,153.196825 C59.6698413,153.171429 59.4349206,153.166667 59.2253968,153.17619 L59.3047619,155.044444 C59.4349206,155.036508 59.5777778,155.044444 59.7333333,155.057143 L60.6238095,155.149206 C61.2285714,155.21746 61.752381,155.266667 62.2111111,155.279365 L64.9666667,155.360317 L65.0079365,153.48254 L62.252381,153.406349 C61.8412698,153.398413 61.3714286,153.347619 60.8253968,153.288889 L59.9126984,153.196825 L59.9126984,153.196825 Z M64.9793651,160.534921 L65.0253968,158.669841 L64.3063492,158.644444 C63.6857143,158.631746 62.8412698,158.606349 62.2698413,158.598413 C61.8746032,158.585714 61.4253968,158.534921 60.9126984,158.480952 C60.6015873,158.446032 60.2698413,158.412698 59.9380952,158.384127 C59.6984127,158.35873 59.4730159,158.353968 59.2619048,158.35873 L59.2920635,160.231746 C59.4253968,160.226984 59.5777778,160.231746 59.7492063,160.249206 C60.0936508,160.28254 60.4126984,160.311111 60.7111111,160.344444 C61.2873016,160.403175 61.7873016,160.45873 62.2269841,160.471429 C62.7984127,160.474603 63.6380952,160.504762 64.2603175,160.51746 L64.9793651,160.534921 L64.9793651,160.534921 Z M59.9428571,163.561905 C59.6904762,163.538095 59.4634921,163.528571 59.2539683,163.538095 L59.3095238,165.406349 C59.4349206,165.406349 59.5809524,165.406349 59.7492063,165.426984 C60.0809524,165.457143 60.3968254,165.495238 60.6857143,165.519048 C61.2698413,165.587302 61.7777778,165.638095 62.2238095,165.653968 L63,165.671429 C63.7936508,165.692063 64.6761905,165.712698 64.9825397,165.720635 L65.0206349,163.844444 C64.7095238,163.839683 63.831746,163.822222 63.0507937,163.798413 L62.2698413,163.780952 C61.8714286,163.768254 61.4126984,163.71746 60.8873016,163.65873 C60.5809524,163.625397 60.2619048,163.592063 59.9428571,163.561905 L59.9428571,163.561905 Z M55.2507937,104.811111 C55.7349206,104.239683 55.9365079,103.446032 55.847619,102.463492 L55.431746,97.3857143 L53.3857143,97.5539683 L53.768254,102.168254 C53.9031746,103.798413 53.247619,104.05873 52.6634921,104.114286 C52.6142857,104.114286 52.5634921,104.122222 52.5174603,104.122222 C52.0380952,104.122222 51.3825397,103.94127 51.252381,102.374603 L50.8746032,97.7634921 L48.8285714,97.931746 L49.2492063,103.009524 C49.4047619,104.88254 50.4587302,105.877778 52.3063492,105.877778 C52.4698413,105.877778 52.6349206,105.869841 52.8031746,105.852381 C53.9238095,105.755556 54.7428571,105.407937 55.2507937,104.811111 L55.2507937,104.811111 Z M39.5222222,108.898413 L44.1666667,107.21746 L43.5666667,105.571429 L40.8619048,106.553968 L38.7031746,100.593651 L36.7746032,101.295238 L39.5222222,108.898413 L39.5222222,108.898413 Z M37.3746032,109.81746 L36.5095238,108.288889 L34.0063492,109.7 L30.8952381,104.17619 L29.1047619,105.188889 L33.0698413,112.233333 L37.3746032,109.81746 L37.3746032,109.81746 Z M26.315873,113.101587 L28.3793651,111.430159 L27.2650794,110.073016 L25.215873,111.746032 L24.4015873,110.74127 L26.6444444,108.919048 L25.5396825,107.561905 L21.7095238,110.68254 L26.8126984,116.957143 L30.6587302,113.828571 L29.5587302,112.468254 L27.3,114.307937 L26.315873,113.101587 L26.315873,113.101587 Z M24.6444444,118.965079 L18.4206349,113.8 L17.1555556,115.336508 L20.8222222,118.377778 L15.6269841,117.17619 L14.1650794,118.936508 L20.3936508,124.098413 L21.6619048,122.569841 L17.9920635,119.528571 L23.1952381,120.712698 L24.6444444,118.965079 L24.6444444,118.965079 Z M13.8047619,123.698413 C13.4015873,123.488889 13.0111111,123.379365 12.6492063,123.379365 C11.3380952,123.379365 10.6460317,124.695238 10.031746,125.861905 L9.0952381,127.61746 L16.2365079,131.42381 L17.2015873,129.607937 L14.4428571,128.130159 L14.531746,127.961905 C14.7920635,127.466667 14.9888889,127.507937 15.4174603,127.563492 L18.1095238,127.907937 L19.1714286,125.9 L15.5936508,125.525397 C15.3539683,125.509524 15.0936508,125.51746 14.8968254,125.563492 C14.9253968,124.803175 14.531746,124.085714 13.8047619,123.698413 L13.8047619,123.698413 Z M13.2873016,126.012698 C13.3888889,126.34127 13.1666667,126.806349 12.9984127,127.130159 L12.8920635,127.315873 L11.6,126.622222 L11.6952381,126.44127 C12.0238095,125.836508 12.3714286,125.336508 12.9269841,125.631746 C13.1238095,125.736508 13.2365079,125.861905 13.2873016,126.012698 L13.2873016,126.012698 Z M9.83492063,132.363492 C8.04603175,132.363492 6.72698413,133.401587 6.21428571,135.207937 C5.55079365,137.534921 6.67301587,139.411111 9.13333333,140.11746 C9.65079365,140.260317 10.1587302,140.336508 10.6333333,140.336508 C12.4095238,140.336508 13.7285714,139.298413 14.2460317,137.487302 C14.552381,136.407937 14.4634921,135.384127 13.9888889,134.539683 C13.4730159,133.603175 12.531746,132.930159 11.2793651,132.574603 C10.7809524,132.434921 10.2936508,132.363492 9.83492063,132.363492 L9.83492063,132.363492 Z M9.7047619,134.463492 C10.0206349,134.463492 10.3650794,134.514286 10.7047619,134.606349 C11.5238095,134.84127 12.1619048,135.269841 12.447619,135.787302 C12.6539683,136.147619 12.6873016,136.560317 12.5650794,137.009524 C12.2714286,138.022222 11.431746,138.234921 10.7714286,138.234921 C10.4396825,138.234921 10.0825397,138.180952 9.70952381,138.07619 C8.64285714,137.769841 7.52857143,136.963492 7.8952381,135.68254 C8.17619048,134.674603 9.03650794,134.463492 9.7047619,134.463492 L9.7047619,134.463492 Z M6.88253968,143.011111 L4.97619048,142.733333 L4.88730159,142.92381 C4.64444444,143.439683 4.47936508,144.098413 4.44285714,144.677778 C4.27777778,147.4 5.77777778,149.126984 8.46666667,149.298413 C8.58730159,149.303175 8.70952381,149.307937 8.82698413,149.307937 C11.1666667,149.307937 12.6031746,147.812698 12.7793651,145.207937 C12.8047619,144.695238 12.7666667,144.133333 12.6412698,143.434921 L12.5952381,143.204762 L10.6619048,143.187302 L10.8428571,143.587302 C10.9825397,143.893651 11.0650794,144.549206 11.031746,145.095238 C10.9444444,146.450794 9.92698413,147.277778 8.49047619,147.177778 C7.03333333,147.085714 6.1047619,146.139683 6.18571429,144.822222 C6.21111111,144.393651 6.28571429,143.919048 6.64285714,143.385714 L6.88253968,143.011111 L6.88253968,143.011111 Z M13.7238095,158.639683 L5.94603175,160.88254 L6.52539683,162.860317 L9.6968254,161.946032 L10.4015873,164.390476 L12.0777778,163.906349 L11.3761905,161.466667 L12.6111111,161.109524 L13.3587302,163.67619 L15.0349206,163.184127 L13.7238095,158.639683 L13.7238095,158.639683 Z M9.52380952,168.779365 C9.2047619,169.703175 9.31428571,170.739683 9.82222222,171.773016 C10.5365079,173.222222 11.7253968,174.020635 13.1825397,174.020635 C13.8761905,174.020635 14.6031746,173.836508 15.3285714,173.479365 C16.4793651,172.912698 17.2650794,172.092063 17.6047619,171.096825 C17.9206349,170.165079 17.8238095,169.126984 17.3079365,168.095238 C16.5936508,166.636508 15.4095238,165.834921 13.9857143,165.834921 C13.3,165.834921 12.5777778,166.015873 11.8428571,166.37619 C10.6619048,166.955556 9.85555556,167.787302 9.52380952,168.779365 L9.52380952,168.779365 Z M11.2793651,169.757143 C11.468254,169.203175 12.015873,168.665079 12.784127,168.292063 C13.2619048,168.057143 13.7539683,167.930159 14.1984127,167.930159 C14.9174603,167.930159 15.4428571,168.246032 15.7412698,168.866667 C15.9507937,169.292063 15.984127,169.711111 15.8460317,170.119048 C15.652381,170.68254 15.1190476,171.215873 14.3888889,171.568254 C13.8761905,171.820635 13.368254,171.953968 12.9142857,171.953968 C12.2126984,171.953968 11.7047619,171.630159 11.3888889,171.004762 C11.1793651,170.57619 11.1412698,170.157143 11.2793651,169.757143 L11.2793651,169.757143 Z M16.3238095,176.911111 C15.4920635,177.569841 15.052381,178.309524 15.0174603,179.111111 C14.9809524,179.853968 15.2952381,180.652381 15.9587302,181.47619 C16.7444444,182.466667 17.584127,182.963492 18.4714286,182.963492 C19.1253968,182.963492 19.7984127,182.690476 20.4825397,182.152381 L24.468254,178.980952 L23.1793651,177.363492 L19.5587302,180.246032 C18.584127,181.026984 17.8825397,181.098413 17.3238095,180.388889 C17.0936508,180.098413 16.9968254,179.81746 17.0301587,179.539683 C17.0809524,179.136508 17.3952381,178.703175 17.9793651,178.24127 L21.5952381,175.365079 L20.3063492,173.747619 L16.3238095,176.911111 L16.3238095,176.911111 Z M26.4,180.950794 L21.2714286,187.212698 L22.8269841,188.473016 L25.8539683,184.777778 L24.715873,190.02381 L26.4809524,191.473016 L31.6079365,185.209524 L30.0587302,183.946032 L27.0349206,187.638095 L28.1888889,182.407937 L26.4,180.950794 L26.4,180.950794 Z M33.952381,186.725397 L30.3142857,193.95873 L32.3984127,194.996825 C33.3984127,195.504762 34.2761905,195.744444 35.0777778,195.744444 C36.4761905,195.744444 37.5777778,194.979365 38.3412698,193.463492 C39.5428571,191.065079 38.7698413,189.149206 36.0349206,187.771429 L33.952381,186.725397 L33.952381,186.725397 Z M32.9492063,193.32381 L35.0111111,189.212698 L35.5111111,189.465079 C36.031746,189.728571 36.4301587,190.18254 36.6111111,190.725397 C36.7920635,191.287302 36.7333333,191.9 36.4349206,192.496825 C36.0142857,193.336508 35.2920635,193.812698 34.4444444,193.812698 C34.1,193.812698 33.7555556,193.728571 33.447619,193.568254 L32.9492063,193.32381 L32.9492063,193.32381 Z M42.5793651,190.628571 L40.4968254,198.449206 L45.3380952,199.733333 L45.7888889,198.049206 L42.9412698,197.288889 L43.3396825,195.790476 L45.9222222,196.479365 L46.3809524,194.795238 L43.7936508,194.101587 L44.1206349,192.850794 L46.9428571,193.601587 L47.4015873,191.91746 L42.5793651,190.628571 L42.5793651,190.628571 Z M50.0936508,192.409524 L49.6444444,200.490476 L51.9666667,200.62381 C52.147619,200.633333 52.3238095,200.636508 52.5,200.636508 C55.2095238,200.636508 56.6587302,199.360317 56.8047619,196.844444 C56.8730159,195.596825 56.5904762,194.606349 55.952381,193.895238 C55.2222222,193.080952 54.0666667,192.636508 52.4333333,192.542857 L50.0936508,192.409524 L50.0936508,192.409524 Z M51.8031746,198.865079 L52.068254,194.277778 L52.6142857,194.307937 C53.7047619,194.366667 54.7603175,195.219048 54.6793651,196.719048 C54.5873016,198.27619 53.4111111,198.949206 52.3571429,198.890476 L51.8031746,198.865079 L51.8031746,198.865079 Z M63.9238095,191.934921 L62.5507937,200.498413 L64.668254,200.04127 L64.9444444,198.225397 L67.5444444,197.65873 L68.531746,199.21746 L70.7492063,198.734921 L65.9619048,191.498413 L63.9238095,191.934921 L63.9238095,191.934921 Z M65.2015873,196.38254 L65.4571429,194.269841 L66.5619048,196.088889 L65.2015873,196.38254 L65.2015873,196.38254 Z M73.5507937,195.407937 L71.6142857,196.112698 L72.315873,198.05873 L74.2619048,197.357143 L73.5507937,195.407937 L73.5507937,195.407937 Z M73.5015873,189.036508 L77.3603175,196.150794 L79.4063492,195.038095 C82.0984127,193.585714 82.8126984,191.649206 81.5365079,189.288889 C80.2714286,186.944444 78.2380952,186.465079 75.5539683,187.926984 L73.5015873,189.036508 L73.5015873,189.036508 Z M76.1555556,189.595238 L76.6460317,189.330159 C76.9698413,189.149206 77.3349206,189.052381 77.7047619,189.052381 C78.5206349,189.052381 79.2380952,189.515873 79.6619048,190.296825 C80.3761905,191.619048 79.784127,192.846032 78.8301587,193.361905 L78.3428571,193.626984 L76.1555556,189.595238 L76.1555556,189.595238 Z M84.7825397,189.292063 L83.0777778,190.47619 L84.2650794,192.177778 L85.9619048,190.998413 L84.7825397,189.292063 L84.7825397,189.292063 Z M85.9492063,183.295238 L87.7222222,183.538095 L87.8698413,182.215873 L91.7333333,186.130159 L93.2031746,184.67619 L87.5253968,178.914286 L86.3063492,180.119048 L85.9492063,183.295238 L85.9492063,183.295238 Z M92.9888889,178.549206 C92.9396825,179.430159 93.2253968,180.093651 93.8507937,180.552381 C94.3047619,180.887302 94.7746032,181.055556 95.2619048,181.055556 C96.0730159,181.055556 96.8825397,180.560317 97.5587302,179.657143 C98.1222222,178.888889 98.3698413,178.111111 98.2650794,177.419048 C98.1730159,176.822222 97.8396825,176.309524 97.2698413,175.885714 C96.5936508,175.390476 95.8365079,175.306349 94.9968254,175.633333 C95.0095238,174.834921 94.5984127,174.155556 94.1063492,173.785714 C93.0984127,173.046032 91.7507937,173.466667 90.768254,174.798413 C89.7888889,176.115873 89.8777778,177.457143 91.0031746,178.292063 C91.5619048,178.703175 92.2873016,178.8 92.9888889,178.549206 L92.9888889,178.549206 Z M94.7206349,177.75873 C95.3031746,177.37619 95.7238095,177.31746 96.0888889,177.587302 C96.2619048,177.712698 96.3539683,177.868254 96.3825397,178.049206 C96.4126984,178.24127 96.3460317,178.455556 96.1984127,178.657143 C95.9253968,179.026984 95.4079365,179.136508 95.0603175,178.87619 C94.7412698,178.636508 94.6365079,178.309524 94.7206349,177.75873 L94.7206349,177.75873 Z M93.4222222,176.473016 C93.1365079,176.65873 92.8333333,176.814286 92.5698413,176.814286 C92.4396825,176.814286 92.3301587,176.780952 92.2285714,176.709524 C91.8301587,176.411111 92.0269841,175.919048 92.2079365,175.679365 C92.3428571,175.490476 92.5111111,175.403175 92.7,175.403175 C92.8333333,175.403175 92.9857143,175.452381 93.1285714,175.55873 C93.3714286,175.742857 93.4761905,176.163492 93.4222222,176.473016 L93.4222222,176.473016 Z M97.7222222,172.630159 C98.6253968,173.088889 99.3952381,173.306349 100.071429,173.306349 C101.095238,173.306349 101.868254,172.798413 102.373016,171.790476 C103.157143,170.22381 102.628571,168.830159 100.936508,167.973016 C99.5333333,167.274603 98.2015873,167.690476 97.5301587,169.039683 C97.3412698,169.41746 97.2603175,169.787302 97.2984127,170.147619 C96.7952381,169.736508 96.3412698,169.093651 96.7365079,168.304762 C96.9333333,167.901587 97.1984127,167.631746 97.5206349,167.350794 L97.7936508,167.115873 L96.3079365,166.049206 L96.1396825,166.212698 C95.7238095,166.615873 95.4,167.065079 95.1444444,167.577778 C94.7444444,168.384127 94.6650794,169.165079 94.9222222,169.91746 C95.3539683,171.22381 96.6904762,172.11746 97.7222222,172.630159 L97.7222222,172.630159 Z M98.8365079,170.550794 C98.7857143,170.404762 98.8015873,170.257143 98.8825397,170.088889 C99.0031746,169.850794 99.2015873,169.731746 99.4904762,169.731746 C99.7095238,169.731746 99.9650794,169.8 100.225397,169.930159 C100.571429,170.106349 100.822222,170.346032 100.903175,170.593651 C100.952381,170.739683 100.936508,170.887302 100.865079,171.038095 C100.734921,171.303175 100.533333,171.433333 100.242857,171.433333 C100.046032,171.433333 99.8190476,171.369841 99.584127,171.249206 C99.184127,171.050794 98.915873,170.803175 98.8365079,170.550794 L98.8365079,170.550794 Z M103.128571,164.633333 L102.873016,164.949206 L104.75873,165.569841 L104.87619,165.365079 C105.187302,164.819048 105.460317,164.188889 105.601587,163.688889 C105.888889,162.739683 105.850794,161.869841 105.496825,161.168254 C105.165079,160.51746 104.565079,160.034921 103.8,159.807937 C102.184127,159.32381 100.880952,160.050794 100.42381,161.609524 C100.377778,161.757143 100.344444,161.887302 100.326984,162.004762 L99.3825397,161.701587 L100.204762,158.920635 L98.5920635,158.446032 L97.2063492,163.112698 L101.687302,164.54127 L101.687302,164.150794 C101.684127,163.714286 101.742857,163.301587 101.863492,162.885714 C101.977778,162.5 102.393651,161.542857 103.25873,161.798413 C104.177778,162.079365 103.968254,163.066667 103.884127,163.365079 C103.720635,163.911111 103.396825,164.306349 103.128571,164.633333 L103.128571,164.633333 Z" id="Fill-1" fill="#000000" mask="url(#mask-2)"></path>
                </g>
                <path d="M47.5412698,252.471429 C47.5412698,257.595238 45.7031746,261.795238 42.4222222,265.07619 C37.6936508,269.804762 31.847619,269.677778 23.7730159,269.677778 C15.6936508,269.677778 9.85238095,269.804762 5.12380952,265.07619 C1.83809524,261.795238 0,257.595238 0,252.471429 C0,243.74127 4.99206349,236.909524 14.7746032,235.269841 L14.7746032,244.526984 C11.0301587,245.447619 8.14603175,247.809524 8.14603175,252.404762 C8.14603175,254.898413 9.06031746,256.934921 10.5730159,258.250794 C12.5444444,260.02381 14.7746032,260.546032 23.7730159,260.546032 C32.7666667,260.546032 35.0015873,260.02381 36.968254,258.250794 C38.4809524,256.934921 39.4,254.898413 39.4,252.404762 C39.4,247.809524 36.5095238,245.447619 32.7666667,244.526984 L32.7666667,235.269841 C42.552381,236.909524 47.5412698,243.801587 47.5412698,252.471429" id="Fill-3" fill="#000000"></path>
                <path d="M42.4190476,200.569841 C45.7047619,203.850794 47.5396825,207.85873 47.5396825,213.17619 C47.5396825,218.496825 45.7047619,222.566667 42.4190476,225.850794 C37.6920635,230.579365 31.8460317,230.447619 23.7714286,230.447619 C15.6952381,230.447619 9.85079365,230.579365 5.12222222,225.850794 C1.84126984,222.566667 0.00158730159,218.496825 0.00158730159,213.17619 C0.00158730159,207.85873 1.84126984,203.850794 5.12222222,200.569841 C9.85079365,195.84127 15.6952381,195.907937 23.7714286,195.907937 C31.8460317,195.907937 37.6920635,195.84127 42.4190476,200.569841 M10.6380952,207.334921 C9.12857143,208.646032 8.14285714,210.68254 8.14285714,213.17619 C8.14285714,215.673016 9.12857143,217.771429 10.6380952,219.087302 C12.6079365,220.85873 14.7761905,221.320635 23.7714286,221.320635 C32.7650794,221.320635 34.9333333,220.85873 36.9047619,219.087302 C38.4126984,217.771429 39.3984127,215.673016 39.3984127,213.17619 C39.3984127,210.68254 38.4126984,208.646032 36.9047619,207.334921 C34.9333333,205.561905 32.7650794,205.034921 23.7714286,205.034921 C14.7761905,205.034921 12.6079365,205.561905 10.6380952,207.334921" id="Fill-4" fill="#000000"></path>
                <path d="M47.147619,164.784127 L28.4984127,173.911111 L28.4984127,180.477778 L47.147619,180.477778 L47.147619,189.603175 L0.393650794,189.603175 L0.393650794,171.284127 C0.393650794,161.761905 6.89365079,156.119048 14.7095238,156.119048 C21.2761905,156.119048 25.3444444,160.122222 26.9904762,164.652381 L47.147619,154.211111 L47.147619,164.784127 L47.147619,164.784127 Z M8.53492063,171.877778 L8.53492063,180.477778 L20.8809524,180.477778 L20.8809524,171.877778 C20.8809524,167.871429 18.3206349,165.246032 14.7095238,165.246032 C11.0984127,165.246032 8.53492063,167.871429 8.53492063,171.877778 L8.53492063,171.877778 Z" id="Fill-6" fill="#000000"></path>
                <polyline id="Fill-7" fill="#000000" points="0.395238095 112.655556 0.395238095 121.78254 29.0222222 121.78254 0.395238095 140.298413 0.395238095 148.439683 47.147619 148.439683 47.147619 139.314286 18.4492063 139.314286 47.147619 120.801587 47.147619 112.655556 0.395238095 112.655556"></polyline>
                <polyline id="Fill-8" fill="#000000" points="39.0031746 73.6428571 39.0031746 95.3142857 27.6428571 95.3142857 27.6428571 76.8587302 19.5063492 76.8587302 19.5063492 95.3142857 8.53650794 95.3142857 8.53650794 73.6428571 0.395238095 73.6428571 0.395238095 104.439683 47.1444444 104.439683 47.1444444 73.6428571 39.0031746 73.6428571"></polyline>
                <polyline id="Fill-9" fill="#000000" points="39.0031746 36.0539683 39.0031746 57.2634921 0.395238095 57.2634921 0.395238095 66.3888889 47.1444444 66.3888889 47.1444444 36.0539683 39.0031746 36.0539683"></polyline>
                <polyline id="Fill-10" fill="#000000" points="39.0031746 0.488888889 39.0031746 21.6968254 0.395238095 21.6968254 0.395238095 30.8238095 47.1444444 30.8238095 47.1444444 0.488888889 39.0031746 0.488888889"></polyline>
                <polyline id="Fill-11" fill="#000000" points="64.6698413 235.265079 64.6698413 268.82381 72.8111111 268.82381 72.8111111 256.609524 111.42381 256.609524 111.42381 247.479365 72.8111111 247.479365 72.8111111 235.265079 64.6698413 235.265079"></polyline>
                <polyline id="Fill-12" fill="#000000" points="103.279365 198.447619 103.279365 220.11746 91.9190476 220.11746 91.9190476 201.661905 83.7777778 201.661905 83.7777778 220.11746 72.8079365 220.11746 72.8079365 198.447619 64.6714286 198.447619 64.6714286 229.244444 111.420635 229.244444 111.420635 198.447619 103.279365 198.447619"></polyline>
                <path d="M111.815873,176.085714 C111.815873,181.209524 109.97619,185.409524 106.695238,188.690476 C101.966667,193.419048 96.1222222,193.290476 88.0460317,193.290476 C79.9666667,193.290476 74.1253968,193.419048 69.3984127,188.690476 C66.1126984,185.409524 64.2746032,181.209524 64.2746032,176.085714 C64.2746032,167.353968 69.2666667,160.52381 79.047619,158.88254 L79.047619,168.14127 C75.3047619,169.060317 72.415873,171.422222 72.415873,176.019048 C72.415873,178.512698 73.3349206,180.549206 74.847619,181.865079 C76.8174603,183.636508 79.047619,184.160317 88.0460317,184.160317 C97.0412698,184.160317 99.2761905,183.636508 101.24127,181.865079 C102.753968,180.549206 103.674603,178.512698 103.674603,176.019048 C103.674603,171.422222 100.784127,169.060317 97.0412698,168.14127 L97.0412698,158.88254 C106.826984,160.52381 111.815873,167.415873 111.815873,176.085714" id="Fill-13" fill="#000000"></path>
                <polyline id="Fill-14" fill="#000000" points="64.6698413 118.501587 64.6698413 127.626984 83.7761905 127.626984 83.7761905 143.452381 64.6698413 143.452381 64.6698413 152.579365 111.42381 152.579365 111.42381 143.452381 91.8507937 143.452381 91.8507937 127.626984 111.42381 127.626984 111.42381 118.501587 64.6698413 118.501587"></polyline>
                <path d="M148.04127,333.34127 C148.04127,341.219048 148.04127,344.236508 146.579365,347.698413 C145.55873,350.125397 143.415873,352.409524 139.47619,355.142857 C138.846032,355.577778 138.068254,356.112698 137.58254,356.355556 C137.485714,356.404762 137.388889,356.452381 137.24127,356.452381 C137.096825,356.452381 136.904762,356.355556 136.904762,356.15873 C136.904762,355.869841 137.146032,355.72381 137.58254,355.431746 C138.165079,355.092063 138.846032,354.509524 139.28254,354.073016 C142.444444,350.855556 143.957143,348.280952 143.957143,335.726984 L143.957143,321.660317 C143.957143,314.071429 143.957143,312.714286 143.860317,311.152381 C143.763492,309.495238 143.366667,308.71746 141.765079,308.377778 C141.37619,308.280952 140.550794,308.231746 140.107937,308.231746 C139.914286,308.231746 139.720635,308.134921 139.720635,307.939683 C139.720635,307.649206 139.961905,307.552381 140.503175,307.552381 C142.688889,307.552381 145.752381,307.698413 145.996825,307.698413 C146.239683,307.698413 149.304762,307.552381 150.768254,307.552381 C151.303175,307.552381 151.544444,307.649206 151.544444,307.939683 C151.544444,308.134921 151.352381,308.231746 151.157143,308.231746 C150.81746,308.231746 150.525397,308.280952 149.936508,308.377778 C148.625397,308.619048 148.236508,309.447619 148.139683,311.152381 C148.04127,312.714286 148.04127,314.071429 148.04127,321.660317 L148.04127,333.34127" id="Fill-15" fill="#000000"></path>
                <path d="M179.225397,343.169841 C183.609524,343.169841 192.653968,340.636508 192.653968,326.479365 C192.653968,314.8 185.550794,308.52381 177.865079,308.52381 C169.736508,308.52381 163.653968,313.877778 163.653968,324.531746 C163.653968,335.873016 170.471429,343.169841 179.225397,343.169841 L179.225397,343.169841 Z M178.204762,306.873016 C189.150794,306.873016 197.328571,313.780952 197.328571,325.115873 C197.328571,336.019048 189.634921,345.014286 177.914286,345.014286 C164.58254,345.014286 159.033333,334.652381 159.033333,325.893651 C159.033333,318.011111 164.77619,306.873016 178.204762,306.873016 L178.204762,306.873016 Z" id="Fill-16" fill="#000000"></path>
                <path d="M238.968254,330.226984 C238.968254,334.893651 238.968254,338.736508 239.211111,340.784127 C239.357143,342.190476 239.647619,343.268254 241.104762,343.460317 C241.785714,343.55873 242.868254,343.652381 243.304762,343.652381 C243.595238,343.652381 243.693651,343.8 243.693651,343.946032 C243.693651,344.188889 243.449206,344.334921 242.914286,344.334921 C240.230159,344.334921 237.173016,344.188889 236.928571,344.188889 C236.687302,344.188889 233.611111,344.334921 232.155556,344.334921 C231.622222,344.334921 231.380952,344.236508 231.380952,343.946032 C231.380952,343.8 231.47619,343.652381 231.768254,343.652381 C232.206349,343.652381 232.788889,343.55873 233.225397,343.460317 C234.196825,343.268254 234.438095,342.190476 234.634921,340.784127 C234.87619,338.736508 234.87619,334.893651 234.87619,330.226984 L234.87619,325.115873 C234.87619,324.919048 234.730159,324.822222 234.584127,324.822222 L213.957143,324.822222 C213.809524,324.822222 213.666667,324.871429 213.666667,325.115873 L213.666667,330.226984 C213.666667,334.893651 213.666667,338.736508 213.909524,340.784127 C214.052381,342.190476 214.346032,343.268254 215.815873,343.460317 C216.495238,343.55873 217.563492,343.652381 218,343.652381 C218.290476,343.652381 218.388889,343.8 218.388889,343.946032 C218.388889,344.188889 218.146032,344.334921 217.612698,344.334921 C214.926984,344.334921 211.868254,344.188889 211.625397,344.188889 C211.384127,344.188889 208.311111,344.334921 206.853968,344.334921 C206.319048,344.334921 206.077778,344.236508 206.077778,343.946032 C206.077778,343.8 206.174603,343.652381 206.465079,343.652381 C206.903175,343.652381 207.485714,343.55873 207.922222,343.460317 C208.892063,343.268254 209.150794,342.190476 209.346032,340.784127 C209.587302,338.736508 209.587302,334.893651 209.587302,330.226984 L209.587302,321.660317 C209.587302,314.071429 209.587302,312.714286 209.488889,311.152381 C209.393651,309.495238 208.990476,308.71746 207.387302,308.377778 C207,308.280952 206.174603,308.231746 205.736508,308.231746 C205.542857,308.231746 205.349206,308.134921 205.349206,307.939683 C205.349206,307.649206 205.592063,307.552381 206.125397,307.552381 C208.311111,307.552381 211.384127,307.698413 211.625397,307.698413 C211.868254,307.698413 214.926984,307.552381 216.396825,307.552381 C216.931746,307.552381 217.17619,307.649206 217.17619,307.939683 C217.17619,308.134921 216.980952,308.231746 216.784127,308.231746 C216.447619,308.231746 216.157143,308.280952 215.57619,308.377778 C214.249206,308.619048 213.860317,309.447619 213.761905,311.152381 C213.666667,312.714286 213.666667,314.071429 213.666667,321.660317 L213.666667,322.685714 C213.666667,322.930159 213.809524,322.977778 213.957143,322.977778 L234.584127,322.977778 C234.730159,322.977778 234.87619,322.930159 234.87619,322.685714 L234.87619,321.660317 C234.87619,314.071429 234.87619,312.714286 234.780952,311.152381 C234.680952,309.495238 234.293651,308.71746 232.692063,308.377778 C232.303175,308.280952 231.47619,308.231746 231.04127,308.231746 C230.846032,308.231746 230.650794,308.134921 230.650794,307.939683 C230.650794,307.649206 230.893651,307.552381 231.428571,307.552381 C233.611111,307.552381 236.687302,307.698413 236.928571,307.698413 C237.173016,307.698413 240.230159,307.552381 241.685714,307.552381 C242.234921,307.552381 242.477778,307.649206 242.477778,307.939683 C242.477778,308.134921 242.284127,308.231746 242.090476,308.231746 C241.736508,308.231746 241.444444,308.280952 240.863492,308.377778 C239.552381,308.619048 239.163492,309.447619 239.065079,311.152381 C238.968254,312.714286 238.968254,314.071429 238.968254,321.660317 L238.968254,330.226984" id="Fill-17" fill="#000000"></path>
                <path d="M258.085714,337.71746 C258.185714,341.706349 258.669841,342.973016 259.98254,343.361905 C260.901587,343.607937 261.971429,343.652381 262.409524,343.652381 C262.650794,343.652381 262.809524,343.750794 262.809524,343.946032 C262.809524,344.236508 262.504762,344.334921 261.920635,344.334921 C259.155556,344.334921 257.211111,344.188889 256.774603,344.188889 C256.338095,344.188889 254.285714,344.334921 252.098413,344.334921 C251.615873,344.334921 251.32381,344.285714 251.32381,343.946032 C251.32381,343.750794 251.471429,343.652381 251.714286,343.652381 C252.098413,343.652381 252.974603,343.607937 253.701587,343.361905 C254.919048,343.025397 255.15873,341.609524 255.15873,337.18254 L255.209524,309.3 C255.209524,307.406349 255.352381,306.873016 255.744444,306.873016 C256.128571,306.873016 256.969841,307.939683 257.453968,308.425397 C258.185714,309.250794 265.430159,317.088889 272.920635,325.115873 C277.744444,330.274603 283.049206,336.212698 284.603175,337.814286 L284.069841,313.1 C284.020635,309.938095 283.68254,308.863492 282.161905,308.474603 C281.287302,308.280952 280.171429,308.231746 279.784127,308.231746 C279.442857,308.231746 279.392063,308.085714 279.392063,307.890476 C279.392063,307.6 279.784127,307.552381 280.365079,307.552381 C282.566667,307.552381 284.895238,307.698413 285.430159,307.698413 C285.963492,307.698413 287.565079,307.552381 289.568254,307.552381 C290.103175,307.552381 290.444444,307.6 290.444444,307.890476 C290.444444,308.085714 290.250794,308.231746 289.909524,308.231746 C289.666667,308.231746 289.328571,308.231746 288.728571,308.377778 C287.130159,308.71746 286.934921,309.792063 286.934921,312.714286 L286.836508,341.219048 C286.836508,344.430159 286.74127,344.677778 286.398413,344.677778 C286.012698,344.677778 285.430159,344.142857 282.857143,341.560317 C282.307937,341.074603 275.303175,333.922222 270.155556,328.374603 C264.507937,322.290476 259.006349,316.166667 257.453968,314.412698 L258.085714,337.71746" id="Fill-18" fill="#000000"></path>
                <path d="M300.212698,343.703175 C299.531746,343.361905 299.48254,343.169841 299.48254,341.850794 C299.48254,339.42381 299.677778,337.474603 299.725397,336.698413 C299.774603,336.163492 299.873016,335.914286 300.114286,335.914286 C300.404762,335.914286 300.455556,336.066667 300.455556,336.453968 C300.455556,336.892063 300.455556,337.573016 300.601587,338.250794 C301.326984,341.850794 304.547619,343.21746 307.798413,343.21746 C312.474603,343.21746 314.757143,339.860317 314.757143,336.746032 C314.757143,333.388889 313.347619,331.44127 309.15873,327.985714 L306.973016,326.188889 C301.814286,321.952381 300.647619,318.934921 300.647619,315.625397 C300.647619,310.42381 304.547619,306.873016 310.726984,306.873016 C312.619048,306.873016 314.026984,307.066667 315.24127,307.357143 C316.165079,307.552381 316.566667,307.6 316.955556,307.6 C317.344444,307.6 317.439683,307.698413 317.439683,307.939683 C317.439683,308.18254 317.246032,309.792063 317.246032,313.1 C317.246032,313.877778 317.147619,314.21746 316.907937,314.21746 C316.614286,314.21746 316.566667,313.974603 316.519048,313.587302 C316.455556,313.003175 316.165079,311.685714 315.873016,311.152381 C315.58254,310.61746 314.269841,308.571429 309.804762,308.571429 C306.438095,308.571429 303.815873,310.666667 303.815873,314.21746 C303.815873,316.992063 305.080952,318.739683 309.74127,322.388889 L311.115873,323.463492 C316.857143,327.985714 318.21746,331.003175 318.21746,334.893651 C318.21746,336.892063 317.439683,340.587302 314.07619,342.973016 C311.988889,344.430159 309.352381,345.014286 306.730159,345.014286 C304.450794,345.014286 302.203175,344.677778 300.212698,343.703175" id="Fill-19" fill="#000000"></path>
                <path d="M346.187302,343.169841 C350.573016,343.169841 359.61746,340.636508 359.61746,326.479365 C359.61746,314.8 352.514286,308.52381 344.828571,308.52381 C336.706349,308.52381 330.62381,313.877778 330.62381,324.531746 C330.62381,335.873016 337.434921,343.169841 346.187302,343.169841 L346.187302,343.169841 Z M345.169841,306.873016 C356.109524,306.873016 364.288889,313.780952 364.288889,325.115873 C364.288889,336.019048 356.592063,345.014286 344.87619,345.014286 C331.546032,345.014286 325.995238,334.652381 325.995238,325.893651 C325.995238,318.011111 331.74127,306.873016 345.169841,306.873016 L345.169841,306.873016 Z" id="Fill-20" fill="#000000"></path>
                <path d="M377.861905,337.71746 C377.955556,341.706349 378.446032,342.973016 379.753968,343.361905 C380.67619,343.607937 381.742857,343.652381 382.18254,343.652381 C382.425397,343.652381 382.568254,343.750794 382.568254,343.946032 C382.568254,344.236508 382.277778,344.334921 381.695238,344.334921 C378.928571,344.334921 376.973016,344.188889 376.538095,344.188889 C376.096825,344.188889 374.05873,344.334921 371.874603,344.334921 C371.387302,344.334921 371.098413,344.285714 371.098413,343.946032 C371.098413,343.750794 371.24127,343.652381 371.485714,343.652381 C371.874603,343.652381 372.749206,343.607937 373.477778,343.361905 C374.688889,343.025397 374.934921,341.609524 374.934921,337.18254 L374.979365,309.3 C374.979365,307.406349 375.128571,306.873016 375.514286,306.873016 C375.903175,306.873016 376.730159,307.939683 377.214286,308.425397 C377.955556,309.250794 385.206349,317.088889 392.696825,325.115873 C397.515873,330.274603 402.811111,336.212698 404.377778,337.814286 L403.842857,313.1 C403.779365,309.938095 403.44127,308.863492 401.934921,308.474603 C401.063492,308.280952 399.944444,308.231746 399.557143,308.231746 C399.215873,308.231746 399.168254,308.085714 399.168254,307.890476 C399.168254,307.6 399.557143,307.552381 400.139683,307.552381 C402.32381,307.552381 404.668254,307.698413 405.203175,307.698413 C405.738095,307.698413 407.339683,307.552381 409.330159,307.552381 C409.861905,307.552381 410.203175,307.6 410.203175,307.890476 C410.203175,308.085714 410.009524,308.231746 409.671429,308.231746 C409.426984,308.231746 409.087302,308.231746 408.504762,308.377778 C406.9,308.71746 406.707937,309.792063 406.707937,312.714286 L406.611111,341.219048 C406.611111,344.430159 406.512698,344.677778 406.173016,344.677778 C405.785714,344.677778 405.203175,344.142857 402.615873,341.560317 C402.080952,341.074603 395.07619,333.922222 389.914286,328.374603 C384.284127,322.290476 378.78254,316.166667 377.214286,314.412698 L377.861905,337.71746" id="Fill-21" fill="#000000"></path>
                <path d="M158.492063,378.471429 L157.842857,380.01746 C156.544444,380.665079 155.273016,381.139683 154.033333,381.433333 C152.795238,381.725397 151.44127,381.871429 149.977778,381.871429 C148.260317,381.871429 146.663492,381.661905 145.188889,381.228571 C143.714286,380.796825 142.42381,380.177778 141.32381,379.365079 C140.219048,378.569841 139.320635,377.663492 138.620635,376.67619 C137.922222,375.671429 137.390476,374.580952 137.026984,373.414286 C136.653968,372.246032 136.474603,370.95873 136.474603,369.557143 C136.474603,366.02381 137.707937,363.085714 140.174603,360.765079 C142.638095,358.442857 146.011111,357.28254 150.274603,357.28254 C151.284127,357.28254 152.220635,357.338095 153.074603,357.461905 C153.938095,357.574603 154.980952,357.8 156.22381,358.130159 C157.45873,358.446032 158.212698,358.638095 158.492063,358.692063 C158.242857,359.307937 158.065079,359.898413 157.942857,360.5 C157.760317,361.433333 157.639683,362.531746 157.577778,363.763492 L156.525397,363.763492 L156.512698,361.807937 C156.4,360.71746 155.798413,359.91746 154.707937,359.385714 C153.61746,358.853968 152.012698,358.577778 149.907937,358.577778 C148.336508,358.596825 147.001587,358.809524 145.9,359.195238 C144.806349,359.577778 143.839683,360.174603 143,361 C142.168254,361.825397 141.479365,362.87619 140.946032,364.139683 C140.414286,365.406349 140.146032,367 140.130159,368.920635 C140.130159,372.287302 141.15873,374.987302 143.209524,377.030159 C145.261905,379.071429 147.969841,380.104762 151.336508,380.104762 C152.855556,380.104762 154.268254,379.887302 155.561905,379.47619 C156.449206,379.192063 157.334921,378.731746 158.207937,378.125397 L158.492063,378.471429" id="Fill-22" fill="#000000"></path>
                <path d="M163.31746,372.501587 C163.31746,373.877778 163.546032,375.255556 164.001587,376.67619 C164.45873,378.079365 165.114286,379.107937 165.969841,379.749206 C166.831746,380.407937 167.768254,380.734921 168.769841,380.734921 C170.061905,380.734921 171.133333,380.21746 172,379.198413 C172.866667,378.180952 173.298413,376.604762 173.298413,374.48254 C173.298413,372.72381 173.038095,371.196825 172.525397,369.920635 C172.006349,368.631746 171.350794,367.725397 170.552381,367.211111 C169.753968,366.68254 168.869841,366.412698 167.911111,366.412698 C166.544444,366.412698 165.436508,366.901587 164.590476,367.896825 C163.742857,368.877778 163.31746,370.419048 163.31746,372.501587 L163.31746,372.501587 Z M160.174603,373.739683 C160.174603,371.247619 160.965079,369.219048 162.550794,367.655556 C164.126984,366.079365 166.153968,365.296825 168.622222,365.296825 C170.953968,365.296825 172.846032,366.026984 174.312698,367.5 C175.771429,368.961905 176.507937,370.850794 176.507937,373.171429 C176.507937,374.796825 176.128571,376.269841 175.37619,377.615873 C174.625397,378.960317 173.553968,380.014286 172.185714,380.765079 C170.811111,381.526984 169.293651,381.909524 167.646032,381.909524 C166.355556,381.909524 165.266667,381.7 164.374603,381.266667 C163.480952,380.831746 162.757143,380.280952 162.203175,379.631746 C161.647619,378.969841 161.228571,378.3 160.94127,377.615873 C160.431746,376.403175 160.174603,375.109524 160.174603,373.739683 L160.174603,373.739683 Z" id="Fill-23" fill="#000000"></path>
                <path d="M177.893651,381.390476 L177.893651,380.450794 C179.152381,380.422222 179.831746,380.407937 179.930159,380.374603 C180.122222,380.352381 180.263492,380.303175 180.360317,380.220635 C180.453968,380.153968 180.530159,380.05873 180.590476,379.919048 C180.696825,379.655556 180.765079,379.25873 180.787302,378.719048 C180.84127,375.761905 180.868254,374.214286 180.868254,374.080952 L180.868254,372.1 C180.868254,371.219048 180.855556,370.260317 180.819048,369.242857 C180.796825,368.584127 180.749206,368.196825 180.67619,368.08254 C180.603175,367.952381 180.477778,367.85873 180.3,367.801587 C180.114286,367.744444 179.390476,367.712698 178.128571,367.720635 L178.128571,366.780952 C180.363492,366.465079 182,366.065079 183.033333,365.569841 C183.253968,365.450794 183.401587,365.398413 183.477778,365.398413 C183.561905,365.398413 183.61746,365.430159 183.663492,365.484127 C183.709524,365.536508 183.731746,365.62381 183.731746,365.731746 C183.731746,365.814286 183.720635,365.890476 183.714286,366.003175 C183.660317,366.680952 183.622222,367.71746 183.614286,369.146032 C184.115873,368.566667 184.574603,367.995238 184.995238,367.425397 C185.411111,366.857143 185.719048,366.498413 185.907937,366.32381 C186.244444,366.049206 186.620635,365.815873 187.052381,365.638095 C187.485714,365.473016 187.938095,365.384127 188.401587,365.384127 C188.865079,365.384127 189.330159,365.484127 189.780952,365.680952 L189.879365,365.915873 C189.719048,367.384127 189.62381,368.684127 189.601587,369.798413 L188.853968,369.798413 C188.595238,369.268254 188.3,368.879365 187.961905,368.638095 C187.62381,368.395238 187.196825,368.279365 186.688889,368.279365 C185.836508,368.279365 185.111111,368.626984 184.511111,369.334921 C183.911111,370.031746 183.614286,371.090476 183.614286,372.498413 L183.614286,374.214286 C183.614286,374.949206 183.64127,376.273016 183.693651,378.22381 C183.709524,378.906349 183.734921,379.349206 183.780952,379.534921 C183.826984,379.725397 183.88254,379.861905 183.953968,379.934921 C184.026984,380.025397 184.146032,380.088889 184.312698,380.152381 C184.647619,380.253968 185.544444,380.352381 187.003175,380.450794 L187.003175,381.390476 C185.057143,381.320635 183.393651,381.279365 182.019048,381.279365 C180.6,381.279365 179.22381,381.320635 177.893651,381.390476" id="Fill-24" fill="#000000"></path>
                <path d="M191.709524,381.390476 L191.709524,380.450794 L193.292063,380.425397 C193.528571,380.419048 193.714286,380.373016 193.846032,380.306349 C193.966667,380.230159 194.063492,380.136508 194.138095,380.030159 C194.255556,379.815873 194.339683,379.411111 194.374603,378.855556 C194.374603,378.709524 194.398413,377.119048 194.446032,374.080952 L194.446032,372.1 C194.446032,371.219048 194.438095,370.260317 194.4,369.242857 C194.374603,368.584127 194.32381,368.196825 194.246032,368.08254 C194.180952,367.952381 194.049206,367.85873 193.868254,367.801587 C193.7,367.744444 192.977778,367.712698 191.709524,367.720635 L191.709524,366.780952 C193.952381,366.465079 195.584127,366.065079 196.614286,365.569841 C196.84127,365.450794 196.990476,365.398413 197.05873,365.398413 C197.142857,365.398413 197.198413,365.430159 197.24127,365.484127 C197.290476,365.536508 197.320635,365.62381 197.320635,365.731746 C197.320635,365.814286 197.301587,365.890476 197.295238,366.003175 C197.269841,366.4 197.233333,367.236508 197.195238,368.526984 L200.288889,365.879365 C201.198413,365.546032 202.05873,365.384127 202.874603,365.384127 C203.763492,365.384127 204.619048,365.569841 205.414286,365.928571 C206.225397,366.298413 206.833333,366.752381 207.230159,367.314286 C207.631746,367.861905 207.906349,368.566667 208.044444,369.406349 C208.114286,369.898413 208.153968,371.292063 208.153968,373.585714 L208.153968,376.530159 C208.153968,377.960317 208.196825,378.949206 208.266667,379.460317 C208.333333,379.793651 208.406349,380.025397 208.531746,380.160317 C208.642857,380.277778 208.825397,380.365079 209.069841,380.4 L210.852381,380.450794 L210.852381,381.390476 C209.757143,381.320635 208.863492,381.279365 208.142857,381.279365 C207.519048,381.279365 206.493651,381.320635 205.050794,381.390476 C205.201587,378.661905 205.273016,376.928571 205.273016,376.206349 L205.273016,373.412698 C205.273016,371.671429 205.211111,370.525397 205.07619,369.985714 C204.884127,369.247619 204.468254,368.64127 203.8,368.192063 C203.130159,367.74127 202.32381,367.512698 201.388889,367.512698 C200.560317,367.512698 199.796825,367.706349 199.114286,368.1 C198.426984,368.490476 197.926984,368.952381 197.634921,369.457143 C197.34127,369.977778 197.195238,370.846032 197.195238,372.061905 L197.195238,374.080952 C197.249206,376.966667 197.280952,378.522222 197.280952,378.755556 C197.298413,379.304762 197.37619,379.703175 197.480952,379.968254 C197.526984,380.066667 197.587302,380.153968 197.679365,380.220635 C197.771429,380.303175 197.914286,380.355556 198.103175,380.4 C198.161905,380.409524 198.780952,380.422222 199.94127,380.450794 L199.94127,381.390476 C198.590476,381.320635 197.366667,381.279365 196.266667,381.279365 C195.339683,381.279365 193.815873,381.320635 191.709524,381.390476" id="Fill-25" fill="#000000"></path>
                <path d="M214.9,372.012698 C215.204762,372.052381 215.787302,372.088889 216.657143,372.112698 C218.306349,372.166667 219.447619,372.201587 220.071429,372.201587 C221.538095,372.201587 222.504762,372.166667 222.977778,372.112698 C222.984127,371.853968 222.988889,371.652381 222.988889,371.509524 C222.988889,369.744444 222.638095,368.469841 221.925397,367.647619 C221.225397,366.828571 220.271429,366.412698 219.08254,366.412698 C217.826984,366.412698 216.830159,366.857143 216.063492,367.760317 C215.296825,368.661905 214.911111,370.07619 214.9,372.012698 L214.9,372.012698 Z M225.549206,378.815873 L225.020635,380.014286 C224.252381,380.493651 223.698413,380.803175 223.333333,380.955556 C222.825397,381.192063 222.220635,381.387302 221.547619,381.55873 C220.888889,381.714286 220.174603,381.8 219.439683,381.8 C217.966667,381.8 216.649206,381.484127 215.455556,380.885714 C214.277778,380.269841 213.353968,379.355556 212.690476,378.144444 C212.025397,376.931746 211.695238,375.501587 211.695238,373.88254 C211.695238,372.596825 211.874603,371.460317 212.220635,370.425397 C212.579365,369.401587 212.973016,368.64127 213.414286,368.155556 C213.74127,367.804762 214.234921,367.403175 214.912698,366.936508 C215.588889,366.474603 216.261905,366.111111 216.926984,365.857143 C217.803175,365.484127 218.74127,365.296825 219.75873,365.296825 C221.006349,365.296825 222.126984,365.58254 223.131746,366.150794 C224.136508,366.706349 224.866667,367.477778 225.339683,368.465079 C225.796825,369.438095 226.033333,370.544444 226.033333,371.765079 C226.033333,372.069841 226.011111,372.450794 225.95873,372.890476 C225.153968,373.057143 224.438095,373.155556 223.807937,373.201587 C222.609524,373.279365 221.42381,373.32381 220.225397,373.32381 L214.9,373.32381 C214.915873,374.914286 215.193651,376.206349 215.722222,377.184127 C216.250794,378.177778 216.97619,378.903175 217.898413,379.360317 C218.822222,379.831746 219.785714,380.066667 220.773016,380.066667 C221.452381,380.066667 222.126984,379.961905 222.795238,379.734921 C223.469841,379.525397 224.296825,379.114286 225.290476,378.528571 L225.549206,378.815873 L225.549206,378.815873 Z" id="Fill-26" fill="#000000"></path>
                <path d="M227.766667,381.390476 L227.766667,380.450794 L229.32381,380.425397 C229.580952,380.419048 229.755556,380.373016 229.888889,380.307937 C230.020635,380.230159 230.11746,380.136508 230.17619,380.030159 C230.306349,379.815873 230.373016,379.412698 230.401587,378.857143 C230.407937,378.711111 230.452381,377.120635 230.512698,374.085714 L230.512698,367.18254 C230.512698,365.339683 230.480952,363.42381 230.426984,361.463492 C230.380952,360.125397 230.322222,359.388889 230.239683,359.22381 C230.185714,359.115873 230.093651,359.047619 229.977778,359.001587 C229.804762,358.919048 229.034921,358.877778 227.666667,358.877778 L227.666667,357.9 C230.174603,357.58254 231.914286,357.195238 232.887302,356.738095 C233.030159,356.663492 233.136508,356.64127 233.222222,356.64127 C233.304762,356.64127 233.361905,356.657143 233.407937,356.706349 C233.450794,356.757143 233.469841,356.833333 233.469841,356.922222 C233.469841,356.992063 233.460317,357.114286 233.444444,357.244444 L233.419048,357.8 C233.365079,359.78254 233.330159,361.473016 233.319048,362.871429 L233.28254,365.453968 L233.28254,374.084127 C233.331746,376.968254 233.363492,378.522222 233.369841,378.75873 C233.377778,379.304762 233.450794,379.703175 233.568254,379.968254 C233.611111,380.066667 233.688889,380.153968 233.768254,380.220635 C233.857143,380.303175 233.995238,380.355556 234.179365,380.4 C234.247619,380.409524 234.868254,380.422222 236.028571,380.450794 L236.028571,381.390476 C234.52381,381.320635 233.204762,381.279365 232.05873,381.279365 C230.966667,381.279365 229.544444,381.320635 227.766667,381.390476" id="Fill-27" fill="#000000"></path>
                <path d="M238.139683,381.390476 L238.139683,380.450794 L239.7,380.425397 C239.946032,380.419048 240.131746,380.373016 240.261905,380.307937 C240.38254,380.230159 240.477778,380.136508 240.552381,380.030159 C240.668254,379.815873 240.747619,379.412698 240.763492,378.857143 C240.771429,378.711111 240.812698,377.120635 240.887302,374.085714 L240.887302,367.18254 C240.887302,365.339683 240.852381,363.42381 240.8,361.463492 C240.753968,360.125397 240.696825,359.388889 240.614286,359.22381 C240.561905,359.115873 240.469841,359.047619 240.353968,359.001587 C240.179365,358.919048 239.409524,358.877778 238.04127,358.877778 L238.04127,357.9 C240.549206,357.58254 242.288889,357.195238 243.263492,356.738095 C243.406349,356.663492 243.512698,356.64127 243.595238,356.64127 C243.665079,356.64127 243.734921,356.657143 243.78254,356.706349 C243.814286,356.757143 243.844444,356.833333 243.844444,356.922222 C243.844444,356.992063 243.834921,357.114286 243.804762,357.244444 L243.793651,357.8 C243.739683,359.78254 243.703175,361.473016 243.695238,362.871429 L243.657143,365.453968 L243.657143,374.084127 C243.703175,376.968254 243.739683,378.522222 243.744444,378.75873 C243.752381,379.304762 243.814286,379.703175 243.942857,379.968254 C243.988889,380.066667 244.049206,380.153968 244.142857,380.220635 C244.233333,380.303175 244.369841,380.355556 244.553968,380.4 C244.62381,380.409524 245.242857,380.422222 246.404762,380.450794 L246.404762,381.390476 C244.901587,381.320635 243.566667,381.279365 242.436508,381.279365 C241.339683,381.279365 239.919048,381.320635 238.139683,381.390476" id="Fill-28" fill="#000000"></path>
                <path d="M256.552381,358.853968 L256.552381,357.790476 C258.352381,357.85873 260.034921,357.9 261.587302,357.9 C263.163492,357.9 264.72381,357.85873 266.273016,357.790476 L266.273016,358.853968 C264.985714,358.869841 264.185714,358.925397 263.896825,359.019048 C263.607937,359.114286 263.41746,359.249206 263.31746,359.407937 C263.174603,359.636508 263.08254,360.173016 263.05873,361.030159 C263.033333,361.242857 263.015873,362.820635 262.971429,365.739683 L262.971429,371.896825 C262.971429,374.273016 263.122222,375.838095 263.42381,376.601587 C263.738095,377.360317 264.222222,377.990476 264.890476,378.484127 C265.393651,378.861905 266.07619,379.163492 266.94127,379.395238 C267.806349,379.62381 268.774603,379.733333 269.836508,379.733333 C271.08254,379.733333 272.188889,379.58254 273.149206,379.284127 C274.11746,378.966667 274.84127,378.592063 275.32381,378.155556 C275.806349,377.720635 276.160317,377.231746 276.398413,376.692063 C276.638095,376.153968 276.801587,375.4 276.920635,374.461905 C277.022222,373.509524 277.073016,372.306349 277.073016,370.855556 L277.073016,365.739683 C277.073016,364.234921 277.04127,362.769841 276.987302,361.326984 C276.971429,360.269841 276.888889,359.646032 276.769841,359.452381 C276.639683,359.25873 276.438095,359.114286 276.149206,359.019048 C275.861905,358.925397 275.060317,358.869841 273.75873,358.853968 L273.75873,357.790476 C275.58254,357.85873 276.92381,357.9 277.760317,357.9 C278.525397,357.9 279.907937,357.85873 281.896825,357.790476 L281.896825,358.853968 C280.587302,358.869841 279.784127,358.925397 279.501587,359.019048 C279.215873,359.114286 279.022222,359.249206 278.914286,359.407937 C278.777778,359.636508 278.704762,360.173016 278.668254,361.030159 C278.661905,361.242857 278.633333,362.822222 278.607937,365.739683 L278.607937,371.315873 C278.607937,374.042857 278.41746,375.960317 278.028571,377.039683 C277.649206,378.131746 276.939683,379.092063 275.922222,379.919048 C275.155556,380.542857 274.17619,381.025397 272.973016,381.366667 C271.766667,381.709524 270.444444,381.871429 268.969841,381.871429 C267.269841,381.871429 265.78254,381.671429 264.530159,381.274603 C263.277778,380.860317 262.331746,380.328571 261.673016,379.677778 C261.025397,379.014286 260.568254,378.34127 260.325397,377.65873 C260.019048,376.747619 259.866667,375.230159 259.866667,373.08254 L259.866667,365.739683 C259.866667,364.236508 259.842857,362.769841 259.81746,361.326984 C259.780952,360.269841 259.695238,359.646032 259.577778,359.452381 C259.446032,359.25873 259.244444,359.114286 258.957143,359.019048 C258.673016,358.925397 257.866667,358.869841 256.552381,358.853968" id="Fill-29" fill="#000000"></path>
                <path d="M281.911111,381.390476 L281.911111,380.450794 L283.5,380.425397 C283.738095,380.419048 283.925397,380.373016 284.044444,380.306349 C284.17619,380.230159 284.271429,380.136508 284.336508,380.030159 C284.466667,379.815873 284.546032,379.411111 284.573016,378.855556 C284.573016,378.709524 284.604762,377.119048 284.660317,374.080952 L284.660317,372.1 C284.660317,371.219048 284.647619,370.260317 284.609524,369.242857 C284.573016,368.584127 284.520635,368.196825 284.453968,368.08254 C284.37619,367.952381 284.260317,367.85873 284.079365,367.801587 C283.896825,367.744444 283.174603,367.712698 281.911111,367.720635 L281.911111,366.780952 C284.163492,366.465079 285.78254,366.065079 286.82381,365.569841 C287.036508,365.450794 287.185714,365.398413 287.269841,365.398413 C287.352381,365.398413 287.409524,365.430159 287.453968,365.484127 C287.5,365.536508 287.51746,365.62381 287.51746,365.731746 C287.51746,365.814286 287.512698,365.890476 287.504762,366.003175 C287.465079,366.4 287.442857,367.236508 287.406349,368.526984 L290.496825,365.879365 C291.406349,365.546032 292.255556,365.384127 293.069841,365.384127 C293.974603,365.384127 294.815873,365.569841 295.62381,365.928571 C296.433333,366.298413 297.028571,366.752381 297.442857,367.314286 C297.844444,367.861905 298.11746,368.566667 298.239683,369.406349 C298.32381,369.898413 298.365079,371.292063 298.365079,373.585714 L298.365079,376.530159 C298.365079,377.960317 298.406349,378.949206 298.474603,379.460317 C298.530159,379.793651 298.61746,380.025397 298.730159,380.160317 C298.853968,380.277778 299.036508,380.365079 299.280952,380.4 L301.063492,380.450794 L301.063492,381.390476 C299.968254,381.320635 299.061905,381.279365 298.339683,381.279365 C297.71746,381.279365 296.690476,381.320635 295.247619,381.390476 C295.414286,378.661905 295.48254,376.928571 295.48254,376.206349 L295.48254,373.412698 C295.48254,371.671429 295.422222,370.525397 295.285714,369.985714 C295.096825,369.247619 294.665079,368.64127 293.996825,368.192063 C293.34127,367.74127 292.533333,367.512698 291.601587,367.512698 C290.757143,367.512698 290.009524,367.706349 289.309524,368.1 C288.626984,368.490476 288.136508,368.952381 287.844444,369.457143 C287.552381,369.977778 287.406349,370.846032 287.406349,372.061905 L287.406349,374.080952 C287.45873,376.966667 287.493651,378.522222 287.493651,378.755556 C287.507937,379.304762 287.571429,379.703175 287.690476,379.968254 C287.738095,380.066667 287.798413,380.153968 287.888889,380.220635 C287.98254,380.303175 288.120635,380.355556 288.312698,380.4 C288.373016,380.409524 288.992063,380.422222 290.152381,380.450794 L290.152381,381.390476 C288.8,381.320635 287.565079,381.279365 286.47619,381.279365 C285.538095,381.279365 284.022222,381.320635 281.911111,381.390476" id="Fill-30" fill="#000000"></path>
                <path d="M306.879365,357.987302 C307.4,357.987302 307.838095,358.160317 308.195238,358.533333 C308.560317,358.904762 308.746032,359.344444 308.746032,359.869841 C308.746032,360.373016 308.55873,360.806349 308.187302,361.179365 C307.830159,361.536508 307.392063,361.722222 306.879365,361.722222 C306.352381,361.722222 305.911111,361.536508 305.553968,361.179365 C305.18254,360.806349 304.996825,360.373016 304.996825,359.869841 C304.996825,359.344444 305.18254,358.904762 305.553968,358.533333 C305.911111,358.160317 306.352381,357.987302 306.879365,357.987302 L306.879365,357.987302 Z M302.81746,367.709524 L302.81746,366.757143 C304.97619,366.512698 306.777778,366.055556 308.236508,365.357143 L308.607937,365.633333 C308.51746,367.995238 308.473016,369.795238 308.473016,371.049206 L308.473016,374.080952 C308.52381,376.966667 308.563492,378.522222 308.568254,378.755556 C308.577778,379.304762 308.647619,379.703175 308.757143,379.968254 C308.811111,380.066667 308.890476,380.153968 308.968254,380.220635 C309.055556,380.303175 309.195238,380.355556 309.374603,380.4 C309.436508,380.409524 310.055556,380.422222 311.21746,380.450794 L311.21746,381.390476 C309.530159,381.320635 308.18254,381.279365 307.173016,381.279365 C306.290476,381.279365 304.838095,381.320635 302.81746,381.390476 L302.81746,380.450794 L304.409524,380.425397 C304.646032,380.419048 304.828571,380.373016 304.947619,380.306349 C305.085714,380.230159 305.179365,380.136508 305.242857,380.030159 C305.371429,379.815873 305.439683,379.411111 305.477778,378.855556 C305.477778,378.709524 305.512698,377.119048 305.565079,374.080952 L305.565079,371.147619 C305.565079,369.498413 305.512698,368.522222 305.392063,368.203175 C305.330159,368.044444 305.21746,367.914286 305.038095,367.84127 C304.861905,367.753968 304.125397,367.709524 302.81746,367.709524 L302.81746,367.709524 Z" id="Fill-31" fill="#000000"></path>
                <path d="M319.787302,381.563492 C319.353968,380.425397 319.055556,379.674603 318.896825,379.288889 L317.534921,376.107937 L314.120635,368.180952 C313.892063,367.671429 313.71746,367.336508 313.549206,367.179365 C313.396825,367.01746 313.234921,366.901587 313.046032,366.857143 C312.879365,366.822222 312.47619,366.785714 311.807937,366.757143 L311.807937,365.768254 C313.646032,365.836508 314.990476,365.879365 315.826984,365.879365 C316.768254,365.879365 318.036508,365.836508 319.663492,365.768254 L319.663492,366.757143 C318.463492,366.793651 317.753968,366.87619 317.546032,366.993651 C317.34127,367.120635 317.225397,367.279365 317.225397,367.498413 C317.225397,367.820635 317.452381,368.538095 317.892063,369.638095 L319.92381,374.695238 L320.406349,375.81746 C320.944444,377.136508 321.32381,378.009524 321.519048,378.465079 L323.188889,374.695238 C323.288889,374.471429 323.78254,373.219048 324.695238,370.953968 C325.226984,369.634921 325.577778,368.626984 325.760317,367.933333 C325.806349,367.74127 325.820635,367.569841 325.820635,367.425397 C325.820635,367.236508 325.755556,367.112698 325.611111,367.030159 C325.34127,366.885714 324.636508,366.793651 323.484127,366.757143 L323.484127,365.768254 C325.134921,365.836508 326.193651,365.879365 326.665079,365.879365 C327.050794,365.879365 328.112698,365.836508 329.830159,365.768254 L329.830159,366.757143 C329.146032,366.793651 328.696825,366.879365 328.463492,366.998413 C328.231746,367.130159 328.01746,367.403175 327.787302,367.796825 C327.638095,368.057143 327.030159,369.255556 325.995238,371.384127 L324.398413,374.796825 C324.120635,375.398413 323.15873,377.660317 321.515873,381.563492 L319.787302,381.563492" id="Fill-32" fill="#000000"></path>
                <path d="M333.88254,372.012698 C334.201587,372.052381 334.784127,372.088889 335.650794,372.112698 C337.3,372.166667 338.431746,372.201587 339.053968,372.201587 C340.533333,372.201587 341.501587,372.166667 341.973016,372.112698 C341.979365,371.853968 341.98254,371.652381 341.98254,371.509524 C341.98254,369.744444 341.633333,368.469841 340.920635,367.647619 C340.204762,366.828571 339.268254,366.412698 338.074603,366.412698 C336.820635,366.412698 335.811111,366.857143 335.044444,367.760317 C334.277778,368.661905 333.890476,370.07619 333.88254,372.012698 L333.88254,372.012698 Z M344.544444,378.815873 L344.014286,380.014286 C343.246032,380.493651 342.680952,380.803175 342.330159,380.955556 C341.806349,381.192063 341.212698,381.387302 340.542857,381.55873 C339.871429,381.714286 339.173016,381.8 338.419048,381.8 C336.961905,381.8 335.628571,381.484127 334.450794,380.885714 C333.260317,380.269841 332.338095,379.355556 331.687302,378.144444 C331.022222,376.931746 330.690476,375.501587 330.690476,373.88254 C330.690476,372.596825 330.869841,371.460317 331.21746,370.425397 C331.560317,369.401587 331.957143,368.64127 332.409524,368.155556 C332.726984,367.804762 333.230159,367.403175 333.907937,366.936508 C334.584127,366.474603 335.244444,366.111111 335.911111,365.857143 C336.784127,365.484127 337.736508,365.296825 338.755556,365.296825 C340.001587,365.296825 341.120635,365.58254 342.128571,366.150794 C343.133333,366.706349 343.865079,367.477778 344.322222,368.465079 C344.793651,369.438095 345.026984,370.544444 345.026984,371.765079 C345.026984,372.069841 344.993651,372.450794 344.938095,372.890476 C344.150794,373.057143 343.433333,373.155556 342.803175,373.201587 C341.604762,373.279365 340.406349,373.32381 339.220635,373.32381 L333.88254,373.32381 C333.911111,374.914286 334.177778,376.206349 334.704762,377.184127 C335.231746,378.177778 335.95873,378.903175 336.88254,379.360317 C337.801587,379.831746 338.768254,380.066667 339.768254,380.066667 C340.444444,380.066667 341.120635,379.961905 341.793651,379.734921 C342.465079,379.525397 343.292063,379.114286 344.271429,378.528571 L344.544444,378.815873 L344.544444,378.815873 Z" id="Fill-33" fill="#000000"></path>
                <path d="M346.725397,381.390476 L346.725397,380.450794 C347.984127,380.422222 348.665079,380.407937 348.761905,380.374603 C348.955556,380.352381 349.095238,380.303175 349.192063,380.220635 C349.287302,380.153968 349.366667,380.05873 349.420635,379.919048 C349.528571,379.655556 349.603175,379.25873 349.619048,378.719048 C349.673016,375.761905 349.706349,374.214286 349.706349,374.080952 L349.706349,372.1 C349.706349,371.219048 349.68254,370.260317 349.657143,369.242857 C349.626984,368.584127 349.580952,368.196825 349.512698,368.08254 C349.436508,367.952381 349.31746,367.85873 349.133333,367.801587 C348.946032,367.744444 348.220635,367.712698 346.95873,367.720635 L346.95873,366.780952 C349.195238,366.465079 350.830159,366.065079 351.857143,365.569841 C352.085714,365.450794 352.234921,365.398413 352.31746,365.398413 C352.387302,365.398413 352.457143,365.430159 352.503175,365.484127 C352.549206,365.536508 352.563492,365.62381 352.563492,365.731746 C352.563492,365.814286 352.560317,365.890476 352.550794,366.003175 C352.484127,366.680952 352.461905,367.71746 352.452381,369.146032 C352.947619,368.566667 353.401587,367.995238 353.826984,367.425397 C354.252381,366.857143 354.550794,366.498413 354.74127,366.32381 C355.073016,366.049206 355.460317,365.815873 355.893651,365.638095 C356.32381,365.473016 356.769841,365.384127 357.24127,365.384127 C357.696825,365.384127 358.163492,365.484127 358.611111,365.680952 L358.711111,365.915873 C358.552381,367.384127 358.453968,368.684127 358.426984,369.798413 L357.684127,369.798413 C357.431746,369.268254 357.138095,368.879365 356.8,368.638095 C356.461905,368.395238 356.036508,368.279365 355.520635,368.279365 C354.67619,368.279365 353.934921,368.626984 353.344444,369.334921 C352.749206,370.031746 352.452381,371.090476 352.452381,372.498413 L352.452381,374.214286 C352.452381,374.949206 352.473016,376.273016 352.526984,378.22381 C352.549206,378.906349 352.566667,379.349206 352.611111,379.534921 C352.65873,379.725397 352.714286,379.861905 352.793651,379.934921 C352.857143,380.025397 352.98254,380.088889 353.146032,380.152381 C353.479365,380.253968 354.369841,380.352381 355.839683,380.450794 L355.839683,381.390476 C353.880952,381.320635 352.226984,381.279365 350.84127,381.279365 C349.433333,381.279365 348.060317,381.320635 346.725397,381.390476" id="Fill-34" fill="#000000"></path>
                <path d="M361.034921,376.369841 L362.038095,376.369841 C362.047619,377.020635 362.084127,377.522222 362.134921,377.903175 C362.190476,378.280952 362.287302,378.657143 362.422222,379.009524 C362.55873,379.361905 362.760317,379.67619 363.042857,379.92381 C363.322222,380.173016 363.622222,380.365079 363.952381,380.506349 C364.269841,380.647619 364.604762,380.739683 364.942857,380.785714 C365.280952,380.828571 365.801587,380.846032 366.484127,380.846032 C367.626984,380.846032 368.552381,380.547619 369.27619,379.944444 C370.006349,379.349206 370.37619,378.528571 370.37619,377.479365 C370.37619,377.02381 370.253968,376.607937 370.034921,376.257143 C369.803175,375.909524 369.474603,375.626984 369.044444,375.426984 C368.615873,375.230159 367.696825,374.961905 366.287302,374.649206 C364.880952,374.32381 363.969841,374.087302 363.565079,373.944444 C362.939683,373.709524 362.436508,373.422222 362.07619,373.103175 C361.703175,372.768254 361.412698,372.344444 361.204762,371.828571 C360.98254,371.328571 360.87619,370.763492 360.87619,370.171429 C360.87619,369.298413 361.109524,368.485714 361.563492,367.753968 C362.028571,367.019048 362.753968,366.412698 363.736508,365.960317 C364.733333,365.493651 365.804762,365.260317 366.968254,365.260317 C367.674603,365.260317 368.488889,365.355556 369.411111,365.552381 C370.328571,365.742857 371.073016,365.984127 371.649206,366.274603 C371.580952,367.512698 371.514286,368.766667 371.488889,370.036508 L370.536508,370.036508 C370.484127,369.220635 370.42381,368.690476 370.34127,368.439683 C370.277778,368.187302 370.18254,367.957143 370.052381,367.760317 C369.936508,367.55873 369.719048,367.353968 369.420635,367.120635 C369.12381,366.892063 368.736508,366.693651 368.261905,366.509524 C367.785714,366.342857 367.206349,366.250794 366.522222,366.250794 C365.546032,366.250794 364.750794,366.539683 364.160317,367.115873 C363.569841,367.695238 363.274603,368.371429 363.274603,369.146032 C363.274603,369.577778 363.352381,369.94127 363.530159,370.257143 C363.707937,370.561905 363.926984,370.811111 364.21746,371.003175 C364.506349,371.201587 364.91746,371.379365 365.430159,371.531746 L368.204762,372.212698 C369.606349,372.57619 370.569841,372.87619 371.098413,373.126984 C371.612698,373.388889 372.039683,373.787302 372.366667,374.319048 C372.693651,374.857143 372.850794,375.496825 372.850794,376.257143 C372.850794,377.752381 372.228571,379.05873 371,380.173016 C369.755556,381.284127 368.103175,381.849206 366.028571,381.849206 C365.069841,381.849206 363.801587,381.703175 362.215873,381.412698 C361.325397,381.242857 360.865079,381.131746 360.788889,381.055556 C360.742857,381.033333 360.726984,380.979365 360.726984,380.895238 C360.726984,380.812698 360.734921,380.71746 360.766667,380.611111 C360.865079,380.131746 360.92381,379.674603 360.963492,379.212698 C361.001587,378.765079 361.020635,377.812698 361.034921,376.369841" id="Fill-35" fill="#000000"></path>
                <path d="M378.511111,357.987302 C379.034921,357.987302 379.473016,358.160317 379.839683,358.533333 C380.193651,358.904762 380.377778,359.344444 380.377778,359.869841 C380.377778,360.373016 380.192063,360.806349 379.820635,361.179365 C379.463492,361.536508 379.025397,361.722222 378.511111,361.722222 C377.987302,361.722222 377.546032,361.536508 377.187302,361.179365 C376.815873,360.806349 376.630159,360.373016 376.630159,359.869841 C376.630159,359.344444 376.815873,358.904762 377.187302,358.533333 C377.546032,358.160317 377.987302,357.987302 378.511111,357.987302 L378.511111,357.987302 Z M374.453968,367.709524 L374.453968,366.757143 C376.611111,366.512698 378.411111,366.055556 379.871429,365.357143 L380.24127,365.633333 C380.149206,367.995238 380.107937,369.795238 380.107937,371.049206 L380.107937,374.080952 C380.15873,376.966667 380.195238,378.522222 380.203175,378.755556 C380.226984,379.304762 380.285714,379.703175 380.388889,379.968254 C380.444444,380.066667 380.52381,380.153968 380.611111,380.220635 C380.693651,380.303175 380.826984,380.355556 381.009524,380.4 C381.069841,380.409524 381.688889,380.422222 382.852381,380.450794 L382.852381,381.390476 C381.165079,381.320635 379.81746,381.279365 378.807937,381.279365 C377.925397,381.279365 376.473016,381.320635 374.453968,381.390476 L374.453968,380.450794 L376.044444,380.425397 C376.279365,380.419048 376.465079,380.373016 376.58254,380.306349 C376.71746,380.230159 376.814286,380.136508 376.874603,380.030159 C377.004762,379.815873 377.088889,379.411111 377.111111,378.855556 C377.111111,378.709524 377.146032,377.119048 377.2,374.080952 L377.2,371.147619 C377.2,369.498413 377.146032,368.522222 377.038095,368.203175 C376.963492,368.044444 376.852381,367.914286 376.674603,367.84127 C376.509524,367.753968 375.760317,367.709524 374.453968,367.709524 L374.453968,367.709524 Z" id="Fill-36" fill="#000000"></path>
                <path d="M383.561905,368.350794 L383.561905,367.660317 C384.626984,367.236508 385.469841,366.857143 386.096825,366.534921 L386.096825,361.474603 C387.250794,361.080952 388.196825,360.650794 388.919048,360.188889 L389.312698,360.52381 C389.184127,361.444444 389.061905,363.469841 388.919048,366.611111 C389.8,366.630159 390.333333,366.634921 390.515873,366.634921 C390.612698,366.634921 391.173016,366.614286 392.219048,366.596825 C392.8,366.588889 393.230159,366.55873 393.520635,366.534921 L393.630159,366.646032 L393.285714,368.192063 C392.592063,368.184127 391.94127,368.180952 391.355556,368.180952 C390.771429,368.180952 389.950794,368.184127 388.919048,368.192063 L388.831746,374.957143 C388.795238,376.607937 388.804762,377.601587 388.869841,377.914286 C388.922222,378.239683 389.025397,378.522222 389.17619,378.761905 C389.328571,379.001587 389.528571,379.195238 389.788889,379.338095 C390.036508,379.480952 390.447619,379.588889 391.052381,379.671429 C391.5,379.671429 391.874603,379.646032 392.157143,379.601587 C392.426984,379.57619 392.793651,379.47619 393.22381,379.311111 L393.420635,379.968254 C392.898413,380.371429 392.398413,380.8 391.912698,381.242857 C391.488889,381.409524 391.098413,381.507937 390.726984,381.55873 C390.368254,381.607937 389.944444,381.625397 389.465079,381.625397 C388.879365,381.625397 388.409524,381.563492 388.061905,381.426984 C387.71746,381.292063 387.393651,381.103175 387.104762,380.866667 C386.81746,380.639683 386.57619,380.326984 386.385714,379.968254 C386.195238,379.596825 386.077778,379.01746 386.02381,378.236508 C386.033333,377.47619 386.049206,376.649206 386.084127,375.761905 C386.093651,375.577778 386.096825,375.387302 386.096825,375.180952 L386.096825,368.279365 L385.41746,368.279365 C384.869841,368.279365 384.246032,368.298413 383.561905,368.350794" id="Fill-37" fill="#000000"></path>
                <path d="M395.665079,390.295238 L396.519048,387.736508 L396.912698,387.736508 C397.131746,387.904762 397.303175,388.046032 397.449206,388.149206 C397.612698,388.266667 397.769841,388.338095 397.933333,388.388889 C398.111111,388.444444 398.361905,388.47619 398.695238,388.47619 C399.038095,388.47619 399.37619,388.396825 399.704762,388.249206 C400.033333,388.101587 400.333333,387.863492 400.619048,387.550794 C400.903175,387.22381 401.239683,386.67619 401.626984,385.88254 C402.211111,384.7 402.74127,383.492063 403.196825,382.253968 C402.846032,381.265079 402.415873,380.134921 401.922222,378.904762 L399.271429,372.349206 C398.487302,370.404762 397.834921,368.909524 397.342857,367.865079 C397.14127,367.465079 396.922222,367.184127 396.703175,367.046032 C396.471429,366.922222 395.969841,366.8 395.174603,366.706349 L395.174603,365.768254 C396.557143,365.836508 397.912698,365.879365 399.260317,365.879365 C400.569841,365.879365 401.828571,365.836508 403.034921,365.768254 L403.034921,366.706349 C401.892063,366.790476 401.242857,366.855556 401.068254,366.930159 C400.779365,367.034921 400.636508,367.233333 400.636508,367.519048 C400.636508,367.701587 400.731746,368.057143 400.920635,368.614286 C401.355556,369.97619 401.774603,371.14127 402.161905,372.104762 L403.198413,374.706349 C403.844444,376.257143 404.377778,377.51746 404.812698,378.480952 L405.687302,376.512698 C406.030159,375.736508 406.626984,374.268254 407.490476,372.095238 C408.355556,369.91746 408.866667,368.569841 409.012698,368.057143 C409.05873,367.887302 409.074603,367.720635 409.074603,367.598413 C409.074603,367.379365 408.984127,367.222222 408.820635,367.096825 C408.64127,366.985714 407.971429,366.87619 406.809524,366.757143 L406.809524,365.768254 C408.1,365.836508 409.230159,365.879365 410.225397,365.879365 C411.212698,365.879365 412.209524,365.836508 413.180952,365.768254 L413.019048,366.757143 C412.450794,366.785714 412.011111,366.901587 411.695238,367.126984 C411.390476,367.355556 410.91746,368.093651 410.290476,369.361905 C409.666667,370.639683 408.504762,373.126984 406.809524,376.849206 L402.973016,385.830159 C402.353968,387.279365 401.81746,388.325397 401.353968,388.947619 C400.904762,389.571429 400.365079,390.031746 399.720635,390.35873 C399.090476,390.684127 398.401587,390.84127 397.644444,390.84127 C397.285714,390.84127 396.953968,390.796825 396.661905,390.711111 C396.368254,390.636508 396.038095,390.495238 395.665079,390.295238" id="Fill-38" fill="#000000"></path>
            </g>
        </g>
    </g>
</svg>