<?xml version="1.0" encoding="UTF-8"?>
<svg width="500px" height="188px" viewBox="0 0 500 188" version="1.1" xmlns="http://www.w3.org/2000/svg" xmlns:xlink="http://www.w3.org/1999/xlink">
    <!-- Generator: Sketch 41.2 (35397) - http://www.bohemiancoding.com/sketch -->
    <title>simple-black</title>
    <desc>Created with Sketch.</desc>
    <defs></defs>
    <g id="logos" stroke="none" stroke-width="1" fill="none" fill-rule="evenodd">
        <g id="simple-black" fill="#000000">
            <g id="logo" transform="translate(50.000000, 37.000000)">
                <path d="M112,58.5629276 C112,27.5670898 86.927946,2.43999863 56,2.43999863 C25.072054,2.43999863 0,27.5670898 0,58.5629276 C0,89.5587654 25.072054,114.685857 56,114.685857 C86.9153209,114.655331 111.969542,89.5461126 112,58.5629276 L112,58.5629276 Z M110.535767,58.5629276 C110.546943,80.6715227 97.2668172,100.609391 76.8890847,109.077745 C56.5113523,117.5461 33.0500166,112.876846 17.4471676,97.2476675 C1.84431857,81.6184892 -2.82659601,58.1080212 5.61288324,37.6812679 C14.0523625,17.2545147 33.9398277,3.93513623 56,3.93513339 C86.1066478,3.96565717 110.50531,28.4178785 110.535767,58.5906153 L110.535767,58.5629276 Z M107.773064,57.6769218 L104.816971,56.2094747 L107.579674,54.4651508 L107.579674,52.0563226 L102.827824,55.2680936 L99.6507153,55.4342197 L99.6507153,57.5107957 L102.827824,57.316982 L107.911199,59.919624 L107.773064,57.6769218 Z M105.259003,49.6474944 L106.944253,49.2321792 L105.424766,43.0578264 L103.711889,43.4731416 L104.236803,45.5497176 L98.0483473,47.0725401 L98.5456339,49.0937408 L104.73409,47.5709183 L105.259003,49.6474944 Z M96.6946226,42.8917003 L104.209176,39.8183677 L103.435619,37.9079177 L95.9210656,40.9812503 L96.6946226,42.8917003 Z M99.7335964,34.9176482 L101.418846,34.1423931 L101.418846,33.9208917 C101.275817,33.2954265 101.033282,32.697106 100.700543,32.1488801 C100.395897,31.471733 99.8170702,30.9573058 99.1098278,30.7351462 C98.4025854,30.5129866 97.6343261,30.604266 96.99852,30.9859975 C96.0107871,31.6792749 95.58584,32.9345002 95.9486926,34.0870178 C95.9486926,34.8622728 96.1144549,35.3052757 95.7829304,35.4990895 C95.451406,35.6929033 94.8712383,35.3329634 94.650222,34.9453359 C94.3866583,34.4706398 94.2442987,33.9379972 94.2358165,33.3948258 L94.2358165,32.9795105 L92.3848051,33.8378286 L92.3848051,34.2531439 C92.527445,34.8482278 92.7603826,35.4178433 93.075481,35.9420924 C93.5251399,36.9221316 94.4625344,37.5871372 95.5342871,37.6864163 C96.0277031,37.6499457 96.4990444,37.4667795 96.8880118,37.1603503 C97.9124198,36.4562203 98.3419521,35.1534662 97.9378392,33.9762671 C97.9378392,33.284075 97.772077,32.8410721 97.9378392,32.6749461 C98.0737458,32.6397781 98.2163381,32.6397781 98.3522447,32.6749461 C98.6588871,32.7125832 98.9274582,32.8989253 99.0705476,33.1733243 C99.3022188,33.5934527 99.4522175,34.053832 99.5125802,34.5300207 L99.7335964,34.9176482 Z M94.9264924,27.912665 C96.6669956,26.3621548 95.2856438,24.783957 94.2634435,23.5933868 L92.9373458,22.0705643 L86.8317711,27.4419744 L88.1854958,28.9924845 L90.5337938,26.9159084 L90.5337938,27.0820345 C90.8376912,27.4419744 90.8376912,27.5804128 90.5337938,28.0511034 L89.2629502,30.4599316 L90.7824371,32.1765678 L92.4124322,28.9371091 C92.5203769,28.728576 92.5949584,28.5043403 92.6334484,28.2726048 C93.3531374,28.5678707 94.1776569,28.4283605 94.7607301,27.912665 L94.9264924,27.912665 Z M93.4898865,25.9745273 C93.4712211,26.1426189 93.3804507,26.2942349 93.2412432,26.3898425 C93.123414,26.5077883 92.9656128,26.5769779 92.7992107,26.5836563 C92.4676862,26.5836563 92.0809077,26.2237164 91.8046374,25.9191519 L91.8046374,25.7530259 L92.9097188,24.783957 L93.047854,24.9500831 C93.3241243,25.2823353 93.6280217,25.6699628 93.6003947,25.9745273 L93.4898865,25.9745273 Z M88.6551554,20.4369911 L89.7326098,19.0526071 L85.8371978,16.0623376 L80.8367045,22.4858795 L84.7597435,25.5592121 L85.8371978,24.1748281 L83.5165269,22.3751288 L84.4834731,21.1291832 L86.5831278,22.7627563 L87.6605821,21.3783723 L85.5609275,19.7447991 L86.3621115,18.7203549 L88.6551554,20.4369911 Z M76.6373952,19.8832375 L82.7153429,13.8473231 L80.8643315,12.905942 L76.9412926,16.892968 L77.7977306,11.3554318 L75.8362111,10.3586753 L74.7863838,18.9418564 L76.6373952,19.8832375 Z M70.0897879,17.1144694 L72.5209669,9.33423114 L70.5594475,8.69741449 L68.1282684,16.4776528 L70.0897879,17.1144694 Z M65.3379378,15.67471 L66.4153922,7.58990725 L64.4538727,7.31303045 L63.8184509,12.0753115 L62.0779477,6.98077828 L59.8125308,6.67621379 L58.7350765,14.7610166 L60.696596,15.0378934 L61.3320178,10.2756123 L63.100148,15.3701456 L65.3379378,15.67471 Z M55.8618648,17.5297847 C33.260369,17.5756372 14.9710313,35.9670553 15.0015173,58.6181909 C15.0320032,81.2693265 33.37078,99.6112304 55.9723171,99.5959772 C78.5738541,99.5807239 96.8879655,81.2140838 96.8880118,58.5629276 C96.8576649,35.9351625 78.5781408,17.5907556 56,17.5297847 L55.8618648,17.5297847 Z M95.5342871,58.5629276 C95.5342871,74.588155 85.9020673,89.0354353 71.1291167,95.1680244 C56.3561661,101.300613 39.3517644,97.9108027 28.0450375,86.5792557 C16.7383106,75.2477088 13.3559248,58.2059797 19.4750813,43.4006001 C25.5942378,28.5952205 40.0098735,18.9418564 56,18.9418564 C77.821565,18.9723578 95.5038525,36.6934607 95.5342871,58.5629276 L95.5342871,58.5629276 Z M82.7153429,66.3154782 L82.7153429,30.8752468 L29.7266897,30.8752468 L29.7266897,65.6786616 C29.7266897,73.7634644 34.2575234,81.599078 42.8219043,88.3825598 C46.7955957,91.5072126 51.1380892,94.1295872 55.7513567,96.1904858 L56.2210163,96.3842996 L56.7183029,96.1904858 C61.3000073,94.1021284 65.6210257,91.4815231 69.5925012,88.3825598 C78.1568821,81.6544534 82.6877158,74.0126535 82.6877158,66.2324152 L82.7153429,66.3154782 Z M57.1603355,60.8333174 L57.6299951,60.6671913 C58.3446225,60.5642024 59.0702763,60.5642024 59.7849038,60.6671913 L61.6635422,60.8610051 C62.7133695,60.8610051 63.6250617,61.0548189 64.4262457,61.0825065 L67.050814,61.0825065 L67.050814,77.695115 L65.2274297,77.695115 C63.6803157,77.695115 62.6581154,77.695115 61.6359151,77.4736136 C60.5258599,77.3494391 59.4099817,77.2847424 58.2930439,77.2797998 C57.8839538,77.2779828 57.4791063,77.3629044 57.1050814,77.5289889 L57.1603355,60.8333174 Z M32.2960039,53.7729588 L55.1159349,53.7729588 L55.1159349,58.784429 C54.2638172,58.6625046 53.3987383,58.6625046 52.5466206,58.784429 L50.6403552,58.9782428 C49.6181549,58.9782428 48.7340898,59.1720566 47.8776517,59.1997443 L43.4573261,59.1997443 L43.4573261,64.0450884 L41.1919092,64.0450884 L41.1919092,66.8138565 L43.4573261,66.8138565 L43.4573261,71.6592006 L41.1919092,71.6592006 L41.1919092,74.2895303 L43.4573261,74.2895303 L43.4573261,79.688628 L44.3413912,79.688628 L47.1040947,79.688628 C48.5959546,79.688628 49.8667982,79.5501896 50.8061174,79.4671266 C51.7454366,79.3840636 52.7123828,79.3010005 53.9003453,79.3010005 C54.2623155,79.2672178 54.6097166,79.4521798 54.7844105,79.7716911 L54.7844105,79.9101295 L54.7844105,93.1448409 C49.2590035,90.3760728 31.9644795,80.7130722 31.9644795,65.7340369 L32.2960039,53.7729588 Z M54.1489887,77.2797998 L54.1489887,77.2797998 C52.850518,77.2797998 51.9111988,77.2797998 50.8613715,77.4459259 C49.8115442,77.612052 48.8169709,77.6397397 47.2698569,77.6674273 L45.4464726,77.6674273 L45.4464726,61.0548189 L48.0710409,61.0548189 C48.899852,61.0548189 49.8115442,61.0548189 50.8337444,60.8056297 L52.7400099,60.611816 C53.4367562,60.5178738 54.1429182,60.5178738 54.8396645,60.611816 L55.0883078,60.611816 L55.0883078,77.2244245 C54.78718,77.114889 54.4693375,77.058676 54.1489887,77.0582984 L54.1489887,77.2797998 Z M80.2565368,51.0318784 L32.2131228,51.0318784 L32.2131228,33.0625736 L80.3117908,33.0625736 L80.2565368,51.0318784 Z M80.2565368,65.9832261 C80.2565368,80.4915708 62.4647262,90.3206975 57.2432166,92.8956518 L57.2432166,79.688628 L57.4918599,79.4117512 C57.687404,79.0827268 58.0497355,78.8904831 58.4311791,78.913373 C59.6467686,78.913373 60.5584608,78.913373 61.5806611,79.0794991 C62.6028614,79.2456252 63.6803157,79.2733128 65.2826838,79.3010005 C66.8850518,79.3286882 68.0453873,79.3010005 68.0453873,79.3010005 L68.9294524,79.3010005 L68.9294524,74.3725933 L71.00148,74.3725933 L71.00148,71.6038253 L68.9847065,71.6038253 L68.9847065,66.8415442 L71.0567341,66.8415442 L71.0567341,64.2112145 L68.9847065,64.2112145 L68.9847065,59.310495 L64.5367538,59.310495 C63.7908239,59.310495 62.9067588,59.310495 61.7740503,59.0889935 L59.8954119,58.8951798 C58.9795443,58.758714 58.0485761,58.758714 57.1327084,58.8951798 L57.1327084,58.8951798 L57.1327084,53.7729588 L80.3117908,53.7729588 L80.2565368,65.9832261 Z M38.8159842,35.803654 L38.8159842,43.9161445 C39.0243291,45.1102381 39.7818551,46.1361692 40.8603848,46.6849125 C42.4627528,47.7647321 44.8939319,49.1768038 44.976813,49.2598669 L45.4464726,49.5367437 L45.9161322,49.2875545 C45.9161322,49.2875545 48.6788357,47.8201074 50.2535767,46.7126002 C51.8283177,45.605093 52.1874692,44.303772 52.1874692,43.9438321 L52.1874692,35.8313417 L52.1874692,34.8899605 L38.8712383,34.8899605 L38.8159842,35.803654 Z M50.3364578,39.181551 L40.7498767,39.181551 L40.7498767,36.7450351 L50.3640849,36.7450351 L50.3640849,39.181551 L50.3364578,39.181551 Z M40.7222496,41.0643133 L50.3640849,41.0643133 L50.3640849,43.8330814 C50.3640849,43.9992075 49.7562901,44.8021502 49.2590035,45.1344024 C48.098668,45.9096575 46.4963,46.906414 45.5293537,47.3494169 C44.7557967,46.8787263 43.1258017,45.9096575 41.9654662,45.1067147 C40.8051307,44.303772 40.7775037,44.1099582 40.7498767,43.7500184 C40.7222496,43.3900785 40.7498767,42.5040727 40.7498767,40.9812503 L40.7222496,41.0643133 Z M61.3596448,35.4437141 L61.3596448,43.7500184 C61.5959986,44.9480779 62.3707942,45.9697837 63.4592995,46.5187865 C65.1169216,47.6262937 67.5757277,49.0937408 67.6862358,49.1491161 L68.1558954,49.4259929 L68.625555,49.1768038 C68.625555,49.1768038 71.3882585,47.6539814 73.0735076,46.4080357 C74.7587568,45.1620901 75.0350271,43.9161445 75.0626542,43.6392676 C75.0902812,43.3623908 75.0626542,38.9877373 75.0626542,35.3329634 L75.0626542,34.3915823 L61.2491367,34.3915823 L61.3596448,35.4437141 Z M63.2382832,43.1408894 L67.9625062,39.9291184 L73.1563888,43.3900785 L73.1563888,43.9438321 C73.1563888,44.4422104 72.5209669,44.9405886 72.0236803,45.3005285 C70.8357178,46.1034712 69.0399605,47.1279154 68.1835224,47.598606 C67.3823384,47.1279154 65.6970893,46.1034712 64.5091268,45.3005285 C64.1499753,45.0513394 63.2935372,44.4145227 63.2382832,43.8607691 L63.2382832,43.3623908 L63.2382832,43.1408894 Z M63.2382832,36.6065967 L73.1563888,36.6065967 L73.1563888,41.1473764 L67.9348791,37.6587286 L63.2382832,41.0643133 L63.2382832,36.6342844 L63.2382832,36.6065967 Z M53.1820424,69.8595014 L53.1820424,67.9767391 L52.6847558,67.9767391 L51.7730636,67.9767391 L50.3364578,67.9767391 L47.5737543,67.9767391 L47.5737543,69.8595014 L50.3364578,69.8595014 L51.9388259,69.8595014 L52.822891,69.8595014 L53.2372965,69.8595014 L53.1820424,69.8595014 Z M53.2372965,64.6265297 L53.2372965,62.7437674 L52.6847558,62.7437674 L51.7454366,62.7437674 L50.3088308,62.7437674 L47.5461273,62.7437674 L47.5461273,64.6265297 L50.3088308,64.6265297 L51.9111988,64.6265297 L52.822891,64.6265297 L53.2649235,64.6265297 L53.2372965,64.6265297 Z M50.2259497,73.4312122 L47.4632462,73.4312122 L47.4632462,75.3139745 L50.2259497,75.3139745 L51.8283177,75.3139745 L52.7400099,75.3139745 L53.1544154,75.3139745 L53.1544154,73.1543354 L52.6847558,73.1543354 L51.7454366,73.1543354 C51.2392662,73.1800594 50.7321201,73.1800594 50.2259497,73.1543354 L50.2259497,73.4312122 Z M59.8677849,62.522266 L59.177109,62.522266 L59.177109,64.4050282 L59.6191416,64.4050282 L60.5032067,64.4050282 L62.1055747,64.4050282 L64.8682782,64.4050282 L64.8682782,62.522266 L62.1055747,62.522266 L60.6689689,62.522266 L59.8677849,62.522266 Z M64.9511593,69.9148767 L64.9511593,68.0321144 L64.2328564,68.0321144 L62.1884558,68.0321144 L60.8347311,68.0321144 L59.8677849,68.0321144 L59.177109,68.0321144 L59.177109,69.9148767 L59.6467686,69.9148767 L60.6137148,69.9148767 L62.1332018,69.9148767 L64.1776024,69.9148767 L64.9511593,69.9148767 Z M59.8401579,73.1543354 L59.149482,73.1543354 L59.149482,75.0370977 L59.5915146,75.0370977 L60.5308337,75.0370977 L62.0779477,75.0370977 L62.8515047,75.0370977 L64.8406512,75.0370977 L64.8406512,73.1543354 L62.8515047,73.1543354 L62.0779477,73.1543354 L60.696596,73.1543354 L59.7572768,73.1543354 L59.8401579,73.1543354 Z M55.0330538,14.0134492 C55.5468153,13.3445643 55.7663014,12.4946882 55.6408485,11.6599963 L55.3093241,6.70390147 L53.2649235,6.87002755 L53.651702,11.5215579 C53.651702,13.1551311 53.1267884,13.4320079 52.5466206,13.4873833 L52.4084854,13.4873833 C51.9388259,13.4873833 51.275777,13.2935695 51.1376418,11.7153717 L50.7508633,7.06384132 L48.7064628,7.2299674 L49.0932412,12.2414376 C49.0884544,13.031709 49.4208555,13.7863671 50.0067212,14.3153327 C50.592587,14.8442982 51.3760741,15.0971517 52.1598421,15.0102057 L52.6847558,15.0102057 C53.6114258,15.0014857 54.4963761,14.6228123 55.1435619,13.9580738 L55.0330538,14.0134492 Z M39.3408979,18.0835383 L44.0098668,16.3945897 L43.402072,14.7333289 L40.6393685,15.7300854 L38.4844598,9.72185868 L36.5505673,10.4140507 L39.3408979,18.0835383 Z M37.1859891,18.9972317 L36.3295511,17.4467216 L33.8154909,18.8587933 L30.6936359,13.3212572 L28.8978786,14.3457014 L32.8761717,21.4337477 L37.1859891,18.9972317 Z M26.1351751,22.2920658 L28.2072028,20.6031172 L27.1021214,19.2464209 L25.0300937,20.9353694 L24.2012827,19.9109252 L26.4666996,18.0835383 L25.3616182,16.7268419 L21.5214603,19.8555498 L26.6600888,26.1683411 L30.5278737,23.0119455 L29.4227923,21.6275614 L27.1573754,23.482636 L26.1351751,22.2920658 Z M24.449926,28.1895418 L18.2062161,22.9842578 L16.9353725,24.5347679 L20.6097681,27.6081005 L15.3882585,26.3898425 L13.9240257,28.1618541 L20.1677356,33.3671381 L21.4385792,31.8166279 L17.6813024,28.8540461 L22.902812,30.0446164 L24.449926,28.1895418 Z M13.5648742,32.9518229 C13.2107476,32.7483029 12.8124967,32.6342672 12.4045387,32.6195707 C11.078441,32.6195707 10.3877652,33.9485794 9.64183522,35.111462 L8.70251603,36.8834735 L15.8855451,40.7043735 L16.8524914,38.8769866 L14.0897879,37.3818518 L14.0897879,37.2157257 C14.3384312,36.7173475 14.5594475,36.7727228 14.973853,36.8280982 L17.7365565,37.188038 L18.8140109,35.1668373 L15.2224963,34.7792098 C14.9933674,34.7473651 14.7609493,34.7473651 14.5318204,34.7792098 C14.5626963,33.9890025 14.1308972,33.2533326 13.426739,32.8964475 L13.5648742,32.9518229 Z M12.9018254,35.2222127 C12.9323399,35.6242407 12.8251409,36.0246778 12.597928,36.3574076 L12.597928,36.5512214 L11.2994573,35.8590293 L11.2994573,35.6652156 C11.6309817,35.0560866 11.9901332,34.5577083 12.5426739,34.8622728 C12.7088753,34.9387344 12.8380346,35.0781345 12.9018254,35.2499004 L12.9018254,35.2222127 Z M9.44844598,41.6457546 C7.731124,41.5839623 6.20722188,42.7409678 5.80167736,44.4145227 C5.44627356,45.4629674 5.56573439,46.6147053 6.12870861,47.5674751 C6.69168283,48.5202449 7.64195748,49.1789125 8.73014307,49.3706176 C9.21542309,49.5104512 9.71711361,49.5849389 10.222003,49.592119 C11.9291124,49.6405649 13.4376944,48.4864477 13.8411445,46.8233509 C14.1607385,45.8426784 14.07106,44.7741599 13.5925012,43.8607691 C12.9780104,42.8549751 11.9798709,42.1447404 10.8297977,41.8949438 C10.3627507,41.7580331 9.87970363,41.683555 9.39319191,41.6734423 L9.44844598,41.6457546 Z M9.39319191,43.7777061 C9.72931023,43.7803447 10.0636514,43.826883 10.3877652,43.9161445 C11.1020996,44.066956 11.7278393,44.4949857 12.1282684,45.1067147 C12.2987725,45.5044533 12.2987725,45.9549218 12.1282684,46.3526604 C11.9057811,47.1461857 11.1519394,47.6692217 10.3325111,47.598606 C9.96736538,47.5941179 9.60466317,47.5381951 9.25505673,47.4324799 C8.17760237,47.1279154 7.07252097,46.3249727 7.43167242,45.0236517 C7.66684528,44.2300585 8.4336626,43.7177248 9.25505673,43.8053937 L9.39319191,43.7777061 Z M6.49235323,52.4162625 L4.58608781,52.1393857 L4.58608781,52.3331994 C4.33456691,52.8927552 4.18486866,53.4928627 4.14405525,54.105211 C3.95549636,55.2800206 4.29665105,56.4781307 5.07547099,57.3762743 C5.85429093,58.274418 6.99052541,58.7800491 8.17760237,58.7567414 L8.48149975,58.7567414 C9.57347418,58.7990337 10.6317088,58.3730735 11.3911308,57.5855578 C12.1505528,56.798042 12.5392259,55.7235682 12.4597928,54.6312769 C12.5295071,54.0334114 12.5295071,53.4294431 12.4597928,52.8315777 L12.4597928,52.6100762 L10.5259003,52.6100762 L10.7192896,53.0253914 C10.8851378,53.5148331 10.9509091,54.0327416 10.9126788,54.5482139 C10.8883985,55.1785936 10.5970679,55.7686898 10.1117725,56.170466 C9.62647722,56.5722422 8.993266,56.7475745 8.37099161,56.6524776 C7.73850672,56.677212 7.1251541,56.4323485 6.68287557,55.9785456 C6.24059704,55.5247426 6.01076734,54.904453 6.05032067,54.2713371 C6.07029336,53.7569951 6.23293354,53.2584154 6.51998027,52.8315777 L6.49235323,52.4162625 Z M13.371485,68.1428652 L5.71879625,70.3855673 L6.29896399,72.3790803 L9.47607301,71.4653868 L10.1943759,73.9295904 L11.8796251,73.4588999 L11.1889492,70.9946963 L12.4321658,70.6347564 L13.1780957,73.2097107 L14.8633448,72.7113325 L13.371485,68.1428652 Z M9.14454859,78.3596194 C8.83259452,79.3652119 8.94230459,80.4547254 9.44844598,81.3775766 C10.0146608,82.7443777 11.3422981,83.6386829 12.8189443,83.6479664 C13.5701586,83.631757 14.3075413,83.4422694 14.973853,83.0942128 C16.030482,82.6332081 16.8571072,81.7648435 17.2668969,80.6853846 C17.578851,79.679792 17.4691409,78.5902785 16.9629995,77.6674273 C16.40072,76.3098108 15.0866905,75.4173567 13.6201283,75.3970375 C12.8687779,75.4122499 12.1311718,75.6017949 11.4652195,75.9507911 C10.3999511,76.4083527 9.56346069,77.2766197 9.14454859,78.3596194 L9.14454859,78.3596194 Z M10.9126788,79.3563759 C11.2054818,78.685002 11.7518809,78.1573162 12.4321658,77.8889288 C12.869462,77.6659353 13.3506946,77.5429989 13.8411445,77.5289889 C14.3867858,77.5230658 14.9025935,77.7780459 15.2299975,78.2155427 C15.5574014,78.6530396 15.6572199,79.2206964 15.4987667,79.7440034 C15.2189802,80.404903 14.6939858,80.9310498 14.0345338,81.2114505 C13.5730792,81.4525432 13.0628829,81.5851067 12.5426739,81.599078 C11.8924391,81.6235875 11.2919802,81.2515799 11.023187,80.6576969 C10.8526829,80.2599583 10.8526829,79.8094898 11.023187,79.4117512 L10.9126788,79.3563759 Z M16.0789344,86.6105482 C15.3413742,87.1208686 14.8661983,87.9314542 14.7804637,88.8255627 C14.7917748,89.7078306 15.1260481,90.5552014 15.7197829,91.2067033 C16.1124309,92.0396312 16.8927177,92.6222971 17.8014079,92.761121 C18.710098,92.8999449 19.6281719,92.5767438 20.2506167,91.8988953 L24.2565368,88.714812 L22.9580661,87.0812388 L19.3112975,89.8500069 C18.3443513,90.625262 17.6260483,90.708325 17.0735076,89.9884453 C16.8571109,89.7573899 16.7469313,89.4462021 16.7696103,89.1301272 C16.909242,88.5938559 17.2444015,88.1295302 17.7089295,87.8288062 L21.328071,85.0600381 L20.0296004,83.426465 L16.0789344,86.6105482 Z M26.1904292,90.6806373 L21.0518007,96.9934285 L22.5989147,98.2670619 L25.6378885,94.5569126 L24.5051801,99.8452597 L26.2733103,101.312707 L31.4119388,94.9999155 L29.8648249,93.7262822 L26.825851,97.4364314 L27.9861865,92.1757721 L26.1904292,90.6806373 Z M33.7878638,96.4950503 L30.1410952,103.77691 L32.2407499,104.829042 C33.087521,105.299108 34.0356828,105.555674 35.0034534,105.57661 C36.4636003,105.551687 37.7633065,104.643179 38.2910705,103.278532 C39.5066601,100.869704 38.7331031,98.9315662 35.9703996,97.5471822 L33.7878638,96.4950503 Z M32.7932906,103.140094 L34.8653182,99.0146292 L35.3626048,99.2638184 C35.884249,99.5255622 36.2814809,99.9833816 36.4676862,100.537452 C36.6460101,101.127096 36.5864956,101.763311 36.301924,102.309463 C35.9557837,103.104637 35.1783068,103.624092 34.3127775,103.638472 C33.9660782,103.636802 33.6248993,103.55132 33.3182042,103.389283 L32.7932906,103.140094 Z M42.4627528,100.371326 L40.3630982,108.234627 L45.2254563,109.535948 L45.6674889,107.846999 L42.9047854,107.071744 L43.2915639,105.548922 L45.8885052,106.241114 L46.3581648,104.552165 L43.7612235,103.859973 L44.0927479,102.614028 L46.8554514,103.361595 L47.325111,101.672647 L42.4627528,100.371326 Z M50.0049334,102.171025 L49.5629008,110.311203 L51.8835718,110.311203 L52.4084854,110.311203 C53.5063456,110.475159 54.6203606,110.144227 55.4517336,109.407167 C56.2831066,108.670107 56.7467485,107.602357 56.7183029,106.490303 C56.8473886,105.427088 56.538075,104.357114 55.8618648,103.527721 C54.91274,102.6179 53.6383228,102.128966 52.3256043,102.171025 L50.0049334,102.171025 Z M51.7178096,108.67763 L51.9940799,104.053787 L52.5466206,104.053787 C53.7297818,104.2316 54.5841576,105.281715 54.5197749,106.478994 C54.4553923,107.676273 53.4933539,108.628283 52.2979773,108.67763 L51.7178096,108.67763 Z M63.7355698,101.783397 L62.3542181,110.394266 L64.4814998,109.923575 L64.7577701,108.096189 L67.3823384,107.514747 L68.3769117,109.092945 L70.6147015,108.594567 L65.8075974,101.312707 L63.7355698,101.783397 Z M65.1169216,106.379552 L65.3655649,104.247601 L66.4706463,106.074988 L65.1169216,106.379552 Z M73.4050321,105.410484 L71.4711396,106.130363 L72.1894425,108.096189 L74.150962,107.403997 L73.4050321,105.410484 Z M73.4050321,98.9869416 L77.272817,106.158051 L79.3172176,105.022856 C82.0799211,103.555409 82.7429699,101.617271 81.4444993,99.2361307 C80.1460286,96.8549901 78.1292551,96.4673626 75.4494327,97.8517466 L73.4050321,98.9869416 Z M76.1677356,99.5406952 L76.6650222,99.2638184 C76.9861118,99.0843872 77.3472242,98.989149 77.7148495,98.9869416 C78.549378,99.0031333 79.3055543,99.483452 79.676369,100.232887 C79.9911904,100.746285 80.080727,101.367106 79.9238478,101.948834 C79.7669685,102.530561 79.3775722,103.021657 78.847558,103.30622 L78.3502713,103.583097 L76.1677356,99.5406952 Z M84.8426246,99.2361307 L83.1297484,100.426701 L84.3177109,102.143337 L85.8371978,100.842016 L84.8426246,99.2361307 Z M86.0305871,93.2002163 L87.7987173,93.4494054 L87.9368525,92.1203967 L91.8046374,96.0520474 L93.2688703,94.5846003 L87.577701,88.797875 L86.3621115,90.016133 L86.0305871,93.2002163 Z M93.103108,88.4379352 C93.0000103,89.2177037 93.3280941,89.9919842 93.9595461,90.4591359 C94.3625382,90.7745691 94.8572498,90.9495565 95.3685249,90.9575141 C96.3219229,90.8828188 97.1832442,90.3587258 97.6891959,89.5454424 C98.2136257,88.9216485 98.4716973,88.1158914 98.4074988,87.3027403 C98.2971181,86.6730478 97.9387059,86.1142937 97.4129255,85.7522301 C96.7511371,85.2562405 95.8723696,85.1607433 95.1198816,85.503041 C95.1286813,84.7806341 94.802003,84.0951501 94.2358165,83.6479664 C93.2136162,82.900399 91.8598915,83.3157142 90.8929452,84.6724106 C90.4133044,85.1494052 90.164926,85.8122217 90.2126912,86.4877207 C90.2604563,87.1632196 90.5996207,87.7843079 91.1415886,88.188746 C91.7197083,88.6041418 92.4683763,88.6979307 93.1307351,88.4379352 L93.103108,88.4379352 Z M94.8712383,87.6349924 C95.451406,87.2473649 95.8934386,87.1919895 96.25259,87.4688663 C96.4155923,87.5757888 96.525958,87.7467285 96.5564874,87.9395569 C96.5804316,88.2673059 96.4214001,88.5814141 96.143336,88.7555857 C95.8652719,88.9297573 95.5138579,88.9353778 95.2303897,88.7701873 C94.8910582,88.5004 94.7582279,88.0455668 94.8988653,87.6349924 L94.8712383,87.6349924 Z M93.6003947,86.3336714 C93.3490981,86.5180876 93.0536528,86.6327045 92.7439566,86.6659236 C92.6360535,86.699932 92.5203353,86.699932 92.4124322,86.6659236 C92.2757661,86.5306691 92.1988427,86.3461943 92.1988427,86.1537015 C92.1988427,85.9612087 92.2757661,85.7767339 92.4124322,85.6414794 C92.5185727,85.4684851 92.7070843,85.3635265 92.9097188,85.3646026 C93.0711232,85.3705566 93.2262389,85.4288527 93.3517514,85.5307287 C93.5984936,85.7656083 93.7124234,86.1081481 93.6556487,86.4444222 L93.6003947,86.3336714 Z M97.9654662,82.5681468 C98.6840815,82.978258 99.4880297,83.2152324 100.313764,83.2603389 C101.315578,83.1484839 102.147793,82.4351579 102.413419,81.4606396 C102.77295,80.765355 102.821882,79.9500045 102.548095,79.2165452 C102.274308,78.4830859 101.703412,77.9001227 100.976813,77.612052 C100.39006,77.2498413 99.6752931,77.160793 99.0179097,77.3680046 C98.3605264,77.5752161 97.8253008,78.0582702 97.5510607,78.6918715 C97.3753099,79.0329975 97.2987279,79.4167484 97.3300444,79.7993788 C96.7072659,79.4077444 96.4708438,78.6139918 96.7775037,77.9443042 C96.963484,77.5697136 97.2272319,77.2393051 97.5510607,76.9752353 L97.827331,76.7260462 L96.3354711,75.6462266 L96.1697089,75.8123527 C95.7612595,76.2130992 95.4248075,76.6814195 95.1751357,77.1967368 C94.7820646,77.9175033 94.7021388,78.7685791 94.9541194,79.5501896 C95.4923014,80.7901862 96.4795423,81.7795943 97.7168229,82.3189577 L97.9654662,82.5681468 Z M98.8219043,80.214694 C98.7557049,80.0648107 98.7557049,79.8938867 98.8219043,79.7440034 C98.9332403,79.5118903 99.1731161,79.3698344 99.4296991,79.3840636 C99.6899413,79.3900648 99.9452586,79.4564035 100.175629,79.5778773 C100.481907,79.7031225 100.728942,79.9407964 100.866305,80.2423817 C100.924635,80.3842637 100.924635,80.5435025 100.866305,80.6853846 C100.759982,80.938328 100.50391,81.0945402 100.230883,81.0730121 C99.9976078,81.0623201 99.7702674,80.9958669 99.5678342,80.8791983 C99.2404353,80.7518832 98.9737126,80.5043756 98.8219043,80.1870063 L98.8219043,80.214694 Z M103.131722,74.2341549 L102.883078,74.5664071 L104.789344,75.2032238 L104.789344,74.9817223 C105.099864,74.4482812 105.350053,73.8817971 105.535274,73.2927738 C105.864053,72.4756517 105.864053,71.5626292 105.535274,70.7455071 C105.180234,70.0662424 104.560007,69.5649614 103.822398,69.3611231 C103.064891,69.1455139 102.251577,69.2641147 101.58679,69.6871285 C100.922002,70.1101423 100.468926,70.7973637 100.341391,71.5761376 L99.402072,71.2715731 L100.230883,68.502805 L98.600888,68.0321144 L97.2195363,72.7390202 L101.722743,74.1787796 L101.722743,73.791152 C101.71517,73.3607464 101.771026,72.9315773 101.888505,72.5175187 C101.888505,72.1298912 102.413419,71.1608224 103.297484,71.4100115 C104.181549,71.6592006 104.015787,72.6836448 103.932906,72.9882093 C103.773332,73.4592012 103.519507,73.8925921 103.186976,74.2618426 L103.131722,74.2341549 Z" id="Shape"></path>
                <g id="cornell-tech" transform="translate(266.055556, 56.000000) rotate(90.000000) translate(-266.055556, -56.000000) translate(210.055556, -77.500000)">
                    <path d="M47.4927268,249.925926 C47.6216049,254.583894 45.8402977,259.091321 42.5639751,262.397661 C37.9075301,267.091618 32.1073968,266.955166 24.1560404,266.955166 C16.204684,266.955166 10.540704,266.955166 5.74810565,262.397661 C2.42187356,259.114303 0.59018312,254.60398 0.683200541,249.925926 C0.289193956,241.274359 6.6855793,233.811474 15.2788411,232.896686 L15.2788411,242.066277 C11.4349407,242.620328 8.62071115,245.981314 8.74347965,249.871345 C8.65888392,252.058401 9.5346381,254.172804 11.1397788,255.65692 C13.0731566,257.403509 15.2788411,257.922027 24.183271,257.922027 C33.087701,257.922027 35.2661548,257.403509 37.2267632,255.65692 C38.831904,254.172804 39.7076582,252.058401 39.6230624,249.871345 C39.7316112,245.976625 36.9088025,242.619383 33.0604703,242.066277 L33.0604703,232.896686 C41.6537321,233.811474 48.0501175,241.274359 47.6561109,249.925926" id="Shape"></path>
                    <path d="M10.6768574,205.524366 C9.04030854,207.004083 8.13438735,209.12919 8.19886619,211.337232 C8.14031949,213.55997 9.043886,215.699457 10.6768574,217.204678 C12.6374658,218.978558 14.788689,219.415205 23.6931189,219.415205 C32.5975489,219.415205 34.748772,218.951267 36.7093805,217.204678 C38.3423519,215.699457 39.2459184,213.55997 39.1873717,211.337232 C39.2518505,209.12919 38.3459293,207.004083 36.7093805,205.524366 C34.748772,203.750487 32.5975489,203.231969 23.6931189,203.231969 C14.788689,203.231969 12.6374658,203.750487 10.6768574,205.524366 M42.1827457,198.810916 C48.9475748,205.806954 48.9475748,216.922091 42.1827457,223.918129 C37.49907,228.612086 31.6989367,228.475634 23.6931189,228.475634 C15.6873012,228.475634 9.8871679,228.475634 5.2034922,223.918129 C-1.56133695,216.922091 -1.56133695,205.806954 5.2034922,198.810916 C9.8871679,194.116959 15.6873012,194.17154 23.6931189,194.17154 C31.6989367,194.17154 37.49907,194.17154 42.1827457,198.810916" id="Shape"></path>
                    <path d="M8.60732628,170.292398 L8.60732628,178.752437 L20.779437,178.752437 L20.779437,170.292398 C20.9317876,168.005941 19.8010644,165.824712 17.8467694,164.635115 C15.8924743,163.445518 13.4398276,163.445518 11.4855325,164.635115 C9.53123747,165.824712 8.40051435,168.005941 8.55286494,170.292398 L8.60732628,170.292398 Z M46.8391907,163.251462 L28.4040253,172.311891 L28.4040253,178.752437 L46.893652,178.752437 L46.893652,187.812865 L0.601508523,187.812865 L0.601508523,169.692008 C0.310282936,165.762113 1.68192718,161.890699 4.38087754,159.024881 C7.0798279,156.159063 10.857129,154.56319 14.788689,154.62768 C20.2658959,154.469799 25.2043695,157.913282 26.9607997,163.11501 L46.9481134,152.744639 L46.8391907,163.251462 Z" id="Shape"></path>
                    <polygon id="Shape" points="0.547047178 111.426901 0.547047178 120.51462 28.9214081 120.51462 0.547047178 138.908382 0.547047178 146.986355 46.893652 146.986355 46.893652 137.925926 18.4375991 137.925926 46.893652 119.532164 46.893652 111.426901"></polygon>
                    <polygon id="Shape" points="38.8061423 72.6744639 38.8061423 94.2066277 27.5598745 94.2066277 27.5598745 75.8674464 19.4995953 75.8674464 19.4995953 94.2066277 8.60732628 94.2066277 8.60732628 72.6744639 0.547047178 72.6744639 0.547047178 103.267057 46.893652 103.267057 46.893652 72.6744639"></polygon>
                    <polygon id="Shape" points="38.8061423 35.3411306 38.8061423 56.4093567 0.547047178 56.4093567 0.547047178 65.4697856 46.893652 65.4697856 46.893652 35.3411306"></polygon>
                    <polygon id="Shape" points="38.8061423 -2.27373675e-13 38.8061423 21.0682261 0.547047178 21.0682261 0.547047178 30.128655 46.893652 30.128655 46.893652 -2.27373675e-13"></polygon>
                    <polygon id="Shape" points="64.2668212 233.251462 64.2668212 266.60039 72.3271003 266.60039 72.3271003 254.45614 110.613426 254.45614 110.613426 245.395712 72.3271003 245.395712 72.3271003 233.251462"></polygon>
                    <polygon id="Shape" points="102.525916 196.654971 102.525916 218.187135 91.2796485 218.187135 91.2796485 199.875244 83.1921387 199.875244 83.1921387 218.187135 72.3271003 218.187135 72.3271003 196.654971 64.2668212 196.654971 64.2668212 227.274854 110.613426 227.274854 110.613426 196.654971"></polygon>
                    <path d="M110.994655,174.467836 C111.093034,179.162921 109.261671,183.692175 105.92975,186.994152 C101.246075,191.688109 95.4459414,191.551657 87.4401236,191.551657 C79.4343059,191.551657 73.6341726,191.551657 68.9504969,186.994152 C65.6058492,183.698628 63.7638996,179.167554 63.8583611,174.467836 C63.4367038,165.776658 69.8714967,158.272898 78.508463,157.384016 L78.508463,166.580897 C74.6559384,167.146677 71.8356905,170.512602 71.9458709,174.413255 C71.863847,176.613342 72.7499032,178.738559 74.3694007,180.226121 C76.3300092,182 78.5356937,182.518519 87.4673543,182.518519 C96.3990149,182.518519 98.6046994,182 100.538077,180.226121 C102.157575,178.738559 103.043631,176.613342 102.961607,174.413255 C103.071787,170.512602 100.25154,167.146677 96.3990149,166.580897 L96.3990149,157.384016 C105.035981,158.272898 111.470774,165.776658 111.049117,174.467836" id="Shape"></path>
                    <polygon id="Shape" points="64.2668212 117.239766 64.2668212 126.300195 83.1921387 126.300195 83.1921387 142.046784 64.2668212 142.046784 64.2668212 151.107212 110.613426 151.107212 110.613426 142.046784 91.1979564 142.046784 91.1979564 126.300195 110.613426 126.300195 110.613426 117.239766"></polygon>
                </g>
            </g>
        </g>
    </g>
</svg>