<?xml version="1.0" encoding="UTF-8"?>
<svg width="250px" height="730px" viewBox="0 0 250 730" version="1.1" xmlns="http://www.w3.org/2000/svg" xmlns:xlink="http://www.w3.org/1999/xlink">
    <!-- Generator: Sketch 40.1 (33804) - http://www.bohemiancoding.com/sketch -->
    <title>vertical-black</title>
    <desc>Created with Sketch.</desc>
    <defs></defs>
    <g id="logos" stroke="none" stroke-width="1" fill="none" fill-rule="evenodd">
        <g id="vertical-black" fill="#231F20">
            <g id="Vertical-Cornell-+-Jacobs---Black" transform="translate(50.000000, 66.000000)">
                <g id="Layer_1">
                    <path d="M150.439661,357.315789 L150.439661,353.473684 L140.198983,353.473684 L140.198983,348.210526 L148.864172,348.210526 L148.864172,344.368421 L140.198983,344.368421 L140.198983,339.105263 L150.387145,339.105263 L150.387145,335.263158 L135.918905,335.263158 L135.918905,357.263158 L150.439661,357.315789 Z M132.321538,339.131579 L132.321538,335.289474 L116.566649,335.289474 L116.566649,339.131579 L122.317184,339.131579 L122.317184,357.315789 L126.597262,357.315789 L126.597262,339.131579 L132.321538,339.131579 Z M113.179348,349.657895 L113.179348,335.184211 L108.925528,335.184211 L108.925528,349.5 C108.925528,351.607402 107.220883,353.315789 105.118096,353.315789 C103.01531,353.315789 101.310665,351.607402 101.310665,349.5 L101.310665,335.184211 L97.1356193,335.184211 L97.1356193,349.657895 C97.3798324,353.947994 100.922337,357.301505 105.21,357.301505 C109.497663,357.301505 113.040168,353.947994 113.284381,349.657895 L113.179348,349.657895 Z M93.7483181,339.131579 L93.7483181,335.289474 L77.9934289,335.289474 L77.9934289,339.131579 L83.7439635,339.131579 L83.7439635,357.315789 L88.0240417,357.315789 L88.0240417,339.131579 L93.7483181,339.131579 Z M74.5536115,335.289474 L70.2210169,335.289474 L70.2210169,357.289474 L74.5536115,357.289474 L74.5536115,335.289474 Z M66.6761669,339.131579 L66.6761669,335.289474 L50.9212777,335.289474 L50.9212777,339.131579 L56.6455541,339.131579 L56.6455541,357.315789 L60.9256323,357.315789 L60.9256323,339.131579 L66.6761669,339.131579 Z M48.2954628,350.815789 C48.4035225,349.091977 47.7842419,347.401926 46.5886832,346.157895 C45.4068828,345.151991 43.9343349,344.552455 42.3873794,344.447368 L39.7615645,344.078947 C39.0078316,344.000198 38.294693,343.697824 37.7134289,343.210526 C37.2842529,342.799141 37.0462426,342.226662 37.0569752,341.631579 C37.0569752,340.131579 38.1598175,338.842105 40.4442764,338.842105 C42.0937195,338.718101 43.7229795,339.268709 44.960678,340.368421 L47.5864928,337.736842 C45.6948851,335.903926 43.1233643,334.94942 40.4967927,335.105263 C35.7440678,335.105263 32.8556714,337.736842 32.8556714,341.789474 C32.7600297,343.392778 33.3302547,344.964338 34.4311604,346.131579 C35.6203593,347.174779 37.1104515,347.810842 38.6849804,347.947368 L41.3107953,348.315789 C42.0240928,348.351537 42.7062926,348.619472 43.2538983,349.078947 C43.7352221,349.576754 43.983331,350.255769 43.9366102,350.947368 C43.9366102,352.710526 42.5711864,353.578947 40.0504042,353.578947 C38.1242001,353.695581 36.2319852,353.031852 34.7987744,351.736842 L32.0154107,354.526316 C34.1449272,356.601327 37.0632955,357.656164 40.024146,357.421053 C44.619322,357.421053 48.1641721,355.026316 48.1641721,350.736842 L48.2954628,350.815789 Z M28.6281095,357.236842 L28.6281095,335.236842 L24.3742894,335.236842 L24.3742894,348.684211 L15.6828422,335.210526 L11.8491525,335.210526 L11.8491525,357.210526 L16.1292308,357.210526 L16.1292308,343.710526 L24.820678,357.210526 L28.6281095,357.236842 Z M6.88636245,335.236842 L2.63254237,335.236842 L2.63254237,357.236842 L6.9126206,357.236842 L6.88636245,335.236842 Z" id="Shape"></path>
                    <path d="M111.472568,321.131579 C111.584853,319.399305 110.965495,317.699493 109.765789,316.447368 C108.583988,315.441465 107.111441,314.841929 105.564485,314.736842 L102.93867,314.368421 C102.184533,314.29125 101.47095,313.988687 100.890535,313.5 C100.461359,313.088614 100.223348,312.516136 100.234081,311.921053 C100.234081,310.394737 101.336923,309.131579 103.621382,309.131579 C105.270825,309.007575 106.900085,309.558183 108.137784,310.657895 L110.763598,308.026316 C108.871991,306.1934 106.30047,305.238894 103.673898,305.394737 C98.9211734,305.394737 96.0327771,308.026316 96.0327771,312.078947 C95.9444876,313.673302 96.514189,315.233904 97.608266,316.394737 C98.7974649,317.437937 100.287557,318.073999 101.862086,318.210526 L104.487901,318.578947 C105.201609,318.612776 105.884398,318.880943 106.431004,319.342105 C106.905357,319.833595 107.152913,320.501555 107.113716,321.184211 C107.113716,322.947368 105.748292,323.815789 103.22751,323.815789 C101.2976,323.925293 99.4049027,323.251911 97.9758801,321.947368 L95.323807,325 C97.4533235,327.075011 100.371692,328.129848 103.332542,327.894737 C107.927718,327.894737 111.472568,325.473684 111.472568,321.210526 L111.472568,321.131579 Z M88.3391395,321.210526 C88.3421406,321.951507 88.0332951,322.659419 87.4884777,323.160349 C86.9436604,323.661278 86.2133637,323.9088 85.4770013,323.842105 L81.013116,323.842105 L81.013116,318.421053 L85.4770013,318.421053 C86.2133637,318.354358 86.9436604,318.60188 87.4884777,319.102809 C88.0332951,319.603739 88.3421406,320.311651 88.3391395,321.052632 L88.3391395,321.210526 Z M88.0240417,311.973684 C88.0263958,312.709678 87.721103,313.413027 87.1822401,313.913069 C86.6433771,314.413111 85.9201927,314.664147 85.1881617,314.605263 L80.9868579,314.605263 L80.9868579,309.526316 L85.1881617,309.526316 C85.9201927,309.467432 86.6433771,309.718467 87.1822401,310.21851 C87.721103,310.718552 88.0263958,311.421901 88.0240417,312.157895 L88.0240417,311.973684 Z M92.6192177,321.473684 C92.735748,319.356046 91.533761,317.386745 89.5995306,316.526316 C91.2472959,315.611967 92.2571805,313.861031 92.2253455,311.973684 C92.2951535,310.203895 91.581168,308.493618 90.2746239,307.300936 C88.9680797,306.108254 87.2024866,305.555042 85.4507432,305.789474 L76.7330378,305.789474 L76.7330378,327.631579 L85.9233898,327.631579 C87.6891853,327.826424 89.4514524,327.235686 90.7449267,326.015328 C92.038401,324.79497 92.7330499,323.067675 92.6454759,321.289474 L92.6192177,321.473684 Z M68.1203651,316.631579 C68.1203651,320.868421 67.8840417,321.894737 67.043781,322.815789 C66.373126,323.562351 65.4202791,323.992074 64.4179661,324 C63.3629818,324.027102 62.3479328,323.595239 61.6346023,322.815789 C60.7943416,321.894737 60.5842764,320.868421 60.5842764,316.631579 C60.5842764,312.394737 60.7943416,311.368421 61.6346023,310.447368 C62.3458729,309.665002 63.3623185,309.232545 64.4179661,309.263158 C65.4202791,309.271084 66.373126,309.700806 67.043781,310.447368 C67.8840417,311.368421 68.1203651,312.394737 68.1203651,316.631579 L68.1203651,316.631579 Z M72.4004433,316.631579 C72.4004433,312.815789 72.4004433,310.078947 70.2210169,307.842105 C66.9124726,304.633589 61.6608781,304.633589 58.3523338,307.842105 C56.1466493,310.052632 56.1991656,312.815789 56.1991656,316.631579 C56.1991656,320.447368 56.1991656,323.184211 58.3523338,325.421053 C61.6608781,328.629569 66.9124726,328.629569 70.2210169,325.421053 C72.4267014,323.210526 72.4004433,320.447368 72.4004433,316.631579 L72.4004433,316.631579 Z M52.916897,320.868421 L48.5580443,320.868421 C48.303923,322.707205 46.7070151,324.057908 44.8556454,324 C43.8566785,324.002077 42.9032075,323.581629 42.2298305,322.842105 C41.3895698,321.921053 41.1532464,320.868421 41.1532464,316.631579 C41.1532464,312.394737 41.3895698,311.368421 42.2298305,310.421053 C42.9032075,309.681529 43.8566785,309.26108 44.8556454,309.263158 C46.7070151,309.205249 48.303923,310.555953 48.5580443,312.394737 L52.916897,312.394737 C52.4285954,308.326413 48.9157236,305.30877 44.8293872,305.447368 C42.6159853,305.401554 40.4806066,306.267092 38.9213038,307.842105 C36.7156193,310.052632 36.7681356,312.815789 36.7681356,316.631579 C36.7681356,320.447368 36.7681356,323.184211 38.9213038,325.421053 C40.4761735,327.005722 42.6121135,327.881002 44.8293872,327.842105 C48.9157236,327.980703 52.4285954,324.963061 52.916897,320.894737 L52.916897,320.868421 Z M28.0766884,320.157895 L22.6149935,320.157895 L25.3983572,312.263158 L28.0766884,320.157895 Z M34.9825815,327.631579 L26.9738462,305.631579 L23.6128031,305.631579 L15.7353585,327.631579 L20.1992438,327.631579 L21.5121512,323.736842 L29.3895958,323.736842 L30.6762451,327.631579 L34.9825815,327.631579 Z M13.5296741,320.394737 L13.5296741,305.605263 L9.24959583,305.605263 L9.24959583,320.184211 C9.24959583,322.815789 7.8841721,323.947368 5.78352021,323.947368 C4.70747619,323.987665 3.6722605,323.531946 2.97389831,322.710526 L0.138018253,325.526316 C2.35396061,327.709729 5.64363676,328.383504 8.53667732,327.246488 C11.4297179,326.109472 13.385428,323.374167 13.5296741,320.263158 L13.5296741,320.394737 Z" id="Shape"></path>
                    <rect id="Rectangle-path" x="2.36996089" y="271.026316" width="106.581825" height="1.23684211"></rect>
                    <path d="M113.625737,296.789474 L113.625737,296.052632 L107.113716,296.052632 L107.113716,291.078947 L112.680443,291.078947 L112.680443,290.263158 L107.113716,290.263158 L107.113716,285.394737 L113.651995,285.394737 L113.651995,284.578947 L106.06339,284.578947 L106.06339,296.894737 L113.625737,296.789474 Z M102.045893,296.789474 L102.045893,284.473684 L101.126858,284.473684 L101.126858,290.157895 L94.7198696,290.157895 L94.7198696,284.473684 L93.8008344,284.473684 L93.8008344,296.789474 L94.7198696,296.789474 L94.7198696,291 L101.126858,291 L101.126858,296.789474 L102.045893,296.789474 Z M90.6498566,285.289474 L90.6498566,284.473684 L82.4310561,284.473684 L82.4310561,285.289474 L86.0809387,285.289474 L86.0809387,296.789474 L87.0262321,296.789474 L87.0262321,285.289474 L90.6498566,285.289474 Z M76.8643286,285.289474 L76.8643286,284.473684 L69.3019817,284.473684 L69.3019817,296.789474 L70.2210169,296.789474 L70.2210169,291.210526 L75.7877445,291.210526 L75.7877445,290.368421 L70.3260495,290.368421 L70.3260495,285.289474 L76.8643286,285.289474 Z M64.7330639,290.552632 C64.7330639,293.184211 64.7330639,294.157895 63.7877705,295.026316 C62.4904222,296.303578 60.4111684,296.303578 59.1138201,295.026316 C58.2473012,294.131579 58.1685267,293.184211 58.1685267,290.552632 C58.1685267,287.921053 58.1685267,286.947368 59.1138201,286.078947 C60.4111684,284.801685 62.4904222,284.801685 63.7877705,286.078947 C64.6542894,286.973684 64.7330639,287.921053 64.7330639,290.552632 L64.7330639,290.552632 Z M65.6520991,290.552632 C65.6520991,287.763158 65.6520991,286.684211 64.5229987,285.552632 C62.8172374,283.874167 60.0843532,283.874167 58.3785919,285.552632 C57.2494915,286.684211 57.2494915,287.763158 57.2494915,290.552632 C57.2494915,293.342105 57.2494915,294.421053 58.3785919,295.552632 C60.0843532,297.231096 62.8172374,297.231096 64.5229987,295.552632 C65.6520991,294.421053 65.6520991,293.342105 65.6520991,290.552632 L65.6520991,290.552632 Z M50.448631,296.710526 L50.448631,296.052632 L43.910352,296.052632 L43.910352,291.078947 L49.4770795,291.078947 L49.4770795,290.263158 L43.910352,290.263158 L43.910352,285.394737 L50.448631,285.394737 L50.448631,284.578947 L43.0438331,284.578947 L43.0438331,296.894737 L50.448631,296.710526 Z M38.8687875,296.710526 L38.8687875,284.473684 L37.7922034,284.473684 L33.6171578,293.973684 L29.3370795,284.473684 L28.4180443,284.473684 L28.4180443,296.789474 L29.3370795,296.789474 L29.3370795,286.631579 L33.1445111,295.052632 L34.0635463,295.052632 L37.7922034,286.631579 L37.7922034,296.789474 L38.8687875,296.710526 Z M23.8753846,290.552632 C23.8753846,293.184211 23.8753846,294.157895 22.9300913,295.026316 C21.6327429,296.303578 19.5534891,296.303578 18.2561408,295.026316 C17.3896219,294.131579 17.3108475,293.184211 17.3108475,290.552632 C17.3108475,287.921053 17.3108475,286.947368 18.2561408,286.078947 C19.5534891,284.801685 21.6327429,284.801685 22.9300913,286.078947 C23.7966102,286.973684 23.8753846,287.921053 23.8753846,290.552632 L23.8753846,290.552632 Z M24.7944198,290.552632 C24.7944198,287.763158 24.7944198,286.684211 23.6653194,285.552632 C21.9595582,283.874167 19.2266739,283.874167 17.5209126,285.552632 C16.3918123,286.684211 16.3918123,287.763158 16.3918123,290.552632 C16.3918123,293.342105 16.3918123,294.421053 17.5209126,295.552632 C19.2266739,297.231096 21.9595582,297.231096 23.6653194,295.552632 C24.7944198,294.421053 24.7944198,293.342105 24.7944198,290.552632 L24.7944198,290.552632 Z M12.6106389,296.710526 L12.6106389,284.473684 L11.6916037,284.473684 L11.6916037,290.157895 L5.25835724,290.157895 L5.25835724,284.473684 L4.33932203,284.473684 L4.33932203,296.789474 L5.25835724,296.789474 L5.25835724,291 L11.6653455,291 L11.6653455,296.789474 L12.6106389,296.710526 Z" id="Shape"></path>
                    <path d="M104.330352,432.894737 L104.330352,418.157895 L106.956167,418.157895 C107.554705,423.060841 107.43972,428.024908 106.614811,432.894737 L104.330352,432.894737 Z M101.704537,447.763158 L99.2625293,446.526316 L93.7483181,445.631579 L93.7483181,445.631579 L100.706728,449.578947 C100.155306,450.552632 99.551369,451.5 98.9211734,452.421053 L89.8621121,446.078947 C91.8138758,443.134205 93.3595897,439.938619 94.4572881,436.578947 L105.511969,438.210526 C104.583567,441.487672 103.325474,444.661852 101.757053,447.684211 L101.704537,447.763158 Z M91.8577314,460.842105 L84.2428683,452.789474 C84.7855367,452.263158 85.3106997,451.72807 85.8183572,451.184211 L94.2209648,458.421053 C93.4682312,459.245614 92.6804867,460.052632 91.8577314,460.842105 L91.8577314,460.842105 Z M19.7528553,436.5 C20.7416594,439.859237 22.1721573,443.071649 24.0066754,446.052632 L14.7112907,452.552632 C14.1073533,451.631579 13.5034159,450.684211 12.9519948,449.710526 L19.700339,445.868421 L19.700339,445.868421 L14.2123859,446.763158 L11.9804433,447.868421 C10.4261295,444.870178 9.17694532,441.722729 8.25178618,438.473684 L19.7528553,436.5 Z M6.28242503,424.473684 C6.27838797,422.389182 6.4011537,420.306371 6.65003911,418.236842 L9.27585398,418.236842 L9.27585398,432.894737 L7.07016949,432.894737 C6.57562819,430.114388 6.31214271,427.297706 6.28242503,424.473684 L6.28242503,424.473684 Z M14.396193,432.894737 L11.3502477,432.894737 L11.3502477,418.157895 L14.396193,418.157895 L14.396193,432.894737 Z M57.6433638,463.815789 L59.8753064,463.815789 L61.0044068,474.947368 C59.9015645,474.947368 58.7724641,475.078947 57.6433638,475.105263 L57.6433638,463.815789 Z M53.2582529,463.657895 L55.4639374,463.815789 L55.4639374,475 C54.334837,475 53.2319948,475 52.1028944,474.815789 L53.2582529,463.657895 Z M15.9454237,454.210526 L25.2145502,447.736842 C25.6346806,448.342105 26.1073272,448.894737 26.5537158,449.473684 L17.9935593,456.868421 C17.2758366,456.008772 16.5931247,455.131579 15.9454237,454.236842 L15.9454237,454.210526 Z M19.4114993,458.526316 L27.9716558,451.157895 C28.4705606,451.710526 28.9957236,452.210526 29.5208866,452.736842 L21.643442,460.947368 C20.8381921,460.175439 20.0592003,459.368421 19.3064668,458.526316 L19.4114993,458.526316 Z M48.0066232,466.421053 L45.0919687,471.184211 L44.4880313,473.631579 C38.390074,472.088615 32.635892,469.410529 27.5252673,465.736842 L28.8381747,463.815789 L30.5449544,458.552632 L30.5449544,458.552632 L25.9235202,464.473684 C25.0482486,463.789474 24.172977,463.078947 23.2977053,462.342105 L31.1751499,454.131579 C36.8139054,459.072594 43.7493603,462.287626 51.157601,463.394737 L50.0285007,474.552632 C48.9256584,474.394737 47.8315689,474.210526 46.7462321,474 L48.2429465,466.315789 L48.0066232,466.421053 Z M84.2166102,463.789474 L85.6345502,465.868421 C80.4524838,469.568467 74.6158644,472.247596 68.4354628,473.763158 L67.7790091,471.131579 L64.8643546,466.368421 L64.8643546,466.368421 L66.4135854,474.131579 C65.3107432,474.342105 64.2341591,474.526316 63.1050587,474.684211 L61.9759583,463.552632 C69.5339839,462.580063 76.6437121,459.41528 82.4310561,454.447368 L90.0721773,462.5 C89.2319166,463.236842 88.3653977,463.947368 87.4463625,464.631579 L82.6411213,458.473684 L82.6411213,458.473684 L84.2166102,463.789474 Z M95.323807,456.947368 L86.9474576,449.710526 C87.4201043,449.131579 87.8839983,448.54386 88.3391395,447.947368 L97.4244589,454.289474 C96.7680052,455.210526 96.0590352,456.078947 95.3500652,456.921053 L95.323807,456.947368 Z M80.4354368,434.605263 L91.9365059,436.315789 C86.8410451,451.407017 72.7131584,461.56342 56.8162321,461.56342 C40.9193057,461.56342 26.7914191,451.407017 21.6959583,436.315789 L32.9869622,434.631579 L33.7747066,432.894737 L16.4443286,432.894737 L16.4443286,418.157895 L40.0766623,418.157895 L39.2626597,416.342105 L28.6806258,416.342105 C32.5862676,404.13079 43.9159765,395.84675 56.7111995,395.84675 C69.5064225,395.84675 80.8361313,404.13079 84.7417731,416.342105 L75.4726467,416.342105 L74.6586441,418.157895 L96.9780704,418.157895 L96.9780704,432.894737 L79.8052412,432.894737 L80.4354368,434.605263 Z M102.072151,432.868421 L99.026206,432.868421 L99.026206,418.131579 L102.072151,418.131579 L102.072151,432.868421 Z M56.7768449,373.868421 C81.5819195,373.862096 102.722238,391.904265 106.667327,416.447368 L87.0787484,416.447368 C83.2669539,402.813153 70.8657333,393.388389 56.7374576,393.388389 C42.6091819,393.388389 30.2079613,402.813153 26.3961669,416.447368 L6.9126206,416.447368 C10.8577098,391.904265 31.9980283,373.862096 56.803103,373.868421 L56.7768449,373.868421 Z M56.803103,371.236842 C27.4511055,371.236842 3.65661017,395.08357 3.65661017,424.5 C3.65661017,453.91643 27.4511055,477.763158 56.803103,477.763158 C86.1551005,477.763158 109.949596,453.91643 109.949596,424.5 C109.949596,395.08357 86.1551005,371.236842 56.803103,371.236842 L56.803103,371.236842 Z" id="Shape"></path>
                    <path d="M24.6631291,408.684211 L16.0241982,404.473684 L17.1532986,402.157895 C17.2292377,401.99057 17.159664,401.793011 16.9957497,401.710526 L15.2364537,400.842105 C15.0694951,400.765999 14.8723696,400.835726 14.7900652,401 L11.2977314,408.210526 C11.2217923,408.377851 11.291366,408.57541 11.4552803,408.657895 L13.2145763,409.526316 C13.3815349,409.602422 13.5786604,409.532695 13.6609648,409.368421 L14.7900652,407.052632 L23.4289961,411.263158 C23.5959547,411.339264 23.7930802,411.269537 23.8753846,411.105263 L24.6631291,409.210526 C24.7390682,409.043201 24.6694945,408.845643 24.5055802,408.763158" id="Shape"></path>
                    <path d="M26.8688136,404.631579 C27.0008855,404.758567 27.2093883,404.758567 27.3414602,404.631579 L32.2254759,398.973684 C32.3521861,398.841322 32.3521861,398.632362 32.2254759,398.5 L30.7287614,397.210526 C30.5966895,397.083538 30.3881866,397.083538 30.2561147,397.210526 L27.0001043,401 L25.1620339,399.421053 L27.7878488,396.315789 C27.914559,396.183428 27.914559,395.974467 27.7878488,395.842105 L26.3173924,394.552632 C26.1853205,394.425643 25.9768177,394.425643 25.8447458,394.552632 L23.2189309,397.657895 L21.5384094,396.184211 L24.6631291,392.421053 C24.7898393,392.288691 24.7898393,392.07973 24.6631291,391.947368 L23.1664146,390.657895 C23.0343427,390.530906 22.8258398,390.530906 22.6937679,390.657895 L17.8097523,396.315789 C17.6830421,396.448151 17.6830421,396.657112 17.8097523,396.789474 L26.8688136,404.631579 Z" id="Shape"></path>
                    <path d="M38.9213038,394.447368 C40.3091327,393.598986 41.3087484,392.238036 41.7046675,390.657895 C41.7415146,390.478146 41.6407549,390.298625 41.4683442,390.236842 L39.4989831,389.710526 C39.3285798,389.687437 39.1649725,389.785817 39.1051108,389.947368 C38.8174171,390.779268 38.2515226,391.485864 37.5033638,391.947368 C35.7776287,393.02287 33.5086872,392.492681 32.4355411,390.763158 C31.3623949,389.033635 31.8914227,386.759712 33.6171578,385.684211 C34.3988291,385.193264 35.3361065,385.014791 36.2429726,385.184211 C36.3266633,385.207989 36.4164393,385.196035 36.4910316,385.151181 C36.565624,385.106328 36.6183958,385.032565 36.6368449,384.947368 L37.0569752,382.973684 C37.0802139,382.878897 37.0619465,382.778675 37.0067706,382.698243 C36.9515947,382.617811 36.8647651,382.564829 36.7681356,382.552632 C35.1821963,382.211956 33.5261828,382.524919 32.1729596,383.421053 C30.0528092,384.569343 28.7427674,386.801088 28.7712147,389.216156 C28.799662,391.631224 30.1619072,393.831353 32.3085147,394.929164 C34.4551221,396.026976 37.0321019,395.841432 39.0000782,394.447368" id="Shape"></path>
                    <path d="M44.5930639,391.236842 L46.6937158,390.815789 C46.8728462,390.776279 46.9888023,390.601963 46.9562973,390.421053 L46.0110039,385.763158 L50.9212777,384.736842 L51.8665711,389.394737 C51.9059949,389.57426 52.0799291,389.690471 52.2604433,389.657895 L54.3610952,389.236842 C54.5327551,389.186761 54.6435726,389.02017 54.6236767,388.842105 L52.2341851,377.131579 C52.1947613,376.952055 52.0208271,376.835845 51.8403129,376.868421 L49.739661,377.289474 C49.5605306,377.328984 49.4445745,377.5033 49.4770795,377.684211 L50.3698566,382.131579 L45.328292,383.157895 L44.435515,378.710526 C44.3960911,378.531003 44.2221569,378.414792 44.0416428,378.447368 L41.9409909,378.868421 C41.7618605,378.907931 41.6459043,379.082247 41.6784094,379.263158 L44.0679009,390.947368 C44.1073248,391.126892 44.281259,391.243103 44.4617731,391.210526" id="Shape"></path>
                    <path d="M57.8796871,389.184211 L59.980339,389.552632 C60.0710322,389.567718 60.1639634,389.545505 60.2380995,389.491019 C60.3122355,389.436533 60.3613084,389.354382 60.3742112,389.263158 L61.4245372,382.631579 L61.4245372,382.631579 L67.1750717,390.921053 L67.3851369,390.921053 L67.6739765,390.921053 C67.8544907,390.953629 68.0284249,390.837418 68.0678488,390.657895 L70.1685007,378.710526 C70.1859613,378.524598 70.061851,378.354986 69.879661,378.315789 L67.752751,377.947368 C67.6620578,377.932282 67.5691265,377.954495 67.4949905,378.008981 C67.4208544,378.063467 67.3717816,378.145618 67.3588787,378.236842 L66.2560365,384.552632 L66.2560365,384.552632 L60.3742112,376.473684 L59.9278227,376.473684 C59.7473085,376.441108 59.5733743,376.557318 59.5339505,376.736842 L57.4332986,388.710526 C57.415838,388.896454 57.5399482,389.066067 57.7221382,389.105263" id="Shape"></path>
                    <path d="M71.113794,392.578947 L73.056897,393.526316 C73.2238556,393.602422 73.4209811,393.532695 73.5032855,393.368421 L78.7549153,382.605263 C78.8308544,382.437938 78.7612807,382.24038 78.5973664,382.157895 L76.6542634,381.210526 C76.4873047,381.13442 76.2901793,381.204147 76.2078748,381.368421 L70.9562451,392.131579 C70.893226,392.299257 70.9597165,392.48806 71.113794,392.578947" id="Shape"></path>
                    <path d="M81.7483442,391.421053 C82.7100816,390.325142 84.2362198,389.918438 85.6140779,390.390865 C86.9919359,390.863292 87.9496739,392.121644 88.0400443,393.578291 C88.1304146,395.034938 87.3355881,396.402497 86.0267352,397.04234 C84.7178823,397.682183 83.153229,397.468075 82.063442,396.5 C80.594552,395.176133 80.4544003,392.917079 81.7483442,391.421053 M80.1465971,398.684211 C82.1060407,400.440679 84.9296406,400.838 87.2959639,399.690229 C89.6622872,398.542458 91.1032208,396.07665 90.9444139,393.446794 C90.7856069,390.816938 89.058475,388.543279 86.5713087,387.689879 C84.0841424,386.83648 81.3289602,387.572163 79.595176,389.552632 C78.4545983,390.834352 77.8714014,392.519157 77.9749188,394.233414 C78.0784363,395.947672 78.8601122,397.549696 80.1465971,398.684211" id="Shape"></path>
                    <path d="M86.2384876,404.657895 L87.2362973,406.552632 C87.2757391,406.638576 87.34893,406.704317 87.438478,406.734232 C87.528026,406.764146 87.6259366,406.755565 87.7089439,406.710526 L93.6695437,403.605263 L93.6695437,403.605263 L90.6235984,413.236842 C90.6024546,413.323282 90.6024546,413.41356 90.6235984,413.5 L90.7548892,413.763158 C90.8371936,413.927432 91.0343191,413.997158 91.2012777,413.921053 L101.94086,408.315789 C102.026617,408.276261 102.092213,408.202909 102.122063,408.113165 C102.151912,408.02342 102.143349,407.925295 102.098409,407.842105 L101.1006,405.921053 C101.061158,405.835108 100.987967,405.769367 100.898419,405.739453 C100.808871,405.709538 100.71096,405.718119 100.627953,405.763158 L94.956193,408.736842 L94.956193,408.736842 L97.7658149,399.157895 L97.5557497,398.763158 C97.4734452,398.598884 97.2763198,398.529157 97.1093611,398.605263 L86.3697784,404.236842 C86.2022315,404.32956 86.1337008,404.535603 86.2122295,404.710526" id="Shape"></path>
                    <path d="M42.7549935,406.815789 C43.915643,404.890478 46.0570651,403.781817 48.2954628,403.947368 C49.9215622,404.079664 51.5309204,404.370513 53.100704,404.815789 C55.0544398,405.369351 57.061315,405.713386 59.0875619,405.842105 C61.5115732,405.732915 63.915898,405.35338 66.2560365,404.710526 C66.2560365,404.894737 65.7571317,405.078947 65.4945502,405.473684 C65.4208783,405.635504 65.3594365,405.802641 65.3107432,405.973684 L65.3107432,406.184211 L65.0219035,406.342105 L64.8643546,406.342105 C64.3269037,406.570223 63.8567929,406.932641 63.4989309,407.394737 C63.3339175,407.639595 63.2015078,407.904995 63.1050587,408.184211 L63.1050587,408.526316 C63.0208536,408.713261 62.8714635,408.862979 62.6849283,408.947368 C61.848876,409.270978 60.9541775,409.414444 60.0591134,409.368421 L60.0591134,409.368421 C58.9202014,409.304334 57.796742,409.07383 56.7243286,408.684211 L55.0963233,408.026316 L54.9125163,408.026316 C53.331931,407.249321 51.6043119,406.818711 49.8446936,406.763158 L49.8446936,406.763158 C48.4439273,406.837346 47.213942,407.72077 46.6937158,409.026316 L42.1773142,409.026316 C42.2464606,408.296272 42.4419408,407.583875 42.7549935,406.921053 L42.7549935,406.815789 Z M48.6630769,410.736842 C48.4299148,410.3173 48.236509,409.876776 48.0853977,409.421053 C48.3827303,408.816149 49.0160123,408.451993 49.6871447,408.5 C51.2487012,408.563535 52.7790691,408.958178 54.1772881,409.657895 L54.5186441,409.815789 L56.0153585,410.421053 C57.2481024,410.865717 58.5403152,411.122953 59.8490482,411.184211 L59.8490482,411.184211 C60.9649172,411.215947 62.0747741,411.009635 63.1050587,410.578947 C63.5975396,410.314635 63.9930718,409.899797 64.2341591,409.394737 L64.2341591,409.210526 L64.2341591,409.026316 L64.2341591,409.026316 C64.2765473,408.878425 64.3383573,408.736835 64.4179661,408.605263 C64.6602984,408.331777 64.9672787,408.123658 65.3107432,408 C65.6170081,407.873659 65.8940798,407.685553 66.1247458,407.447368 C66.2546879,407.307622 66.3611074,407.147643 66.4398435,406.973684 L66.5711343,406.631579 C66.6508101,406.451201 66.7209294,406.266734 66.7811995,406.078947 C66.8419564,405.802835 67.0258889,405.56999 67.2801043,405.447368 C67.6343139,405.224112 67.9456066,404.938877 68.1991395,404.605263 C68.442764,404.247923 68.6124103,403.845247 68.6980443,403.421053 L68.6980443,403.421053 C68.6980443,403.421053 69.0131421,402.631579 68.6980443,402.263158 C68.3829465,401.894737 67.5689439,402.421053 67.5689439,402.421053 L67.4376532,402.421053 L67.1225554,402.578947 C64.4606363,403.589552 61.6447746,404.132595 58.7987223,404.184211 C56.879175,404.044623 54.9787923,403.709562 53.1269622,403.184211 L53.1269622,403.184211 C51.4709662,402.725394 49.773168,402.434459 48.0591395,402.315789 C45.2394774,402.190742 42.589456,403.666208 41.2057627,406.131579 C40.7090849,407.216557 40.4238822,408.386669 40.365502,409.578947 L41.074472,410.842105 L48.6630769,410.736842 Z" id="Shape"></path>
                    <path d="M24.820678,420.763158 L23.2977053,420.763158 L20.8819557,422.368421 C20.8615236,422.437103 20.8615236,422.510266 20.8819557,422.578947 L20.8819557,423.473684 C20.8955732,423.623198 21.0209896,423.737464 21.1707953,423.736842 L22.7725424,423.736842 L22.7725424,430.078947 C22.7791983,430.155846 22.8162234,430.226897 22.8753908,430.276311 C22.9345582,430.325725 23.0109672,430.349411 23.0876402,430.342105 L24.9257106,430.342105 C25.0755162,430.342727 25.2009327,430.228462 25.2145502,430.078947 L25.2145502,421.052632 C25.2009327,420.903117 25.0755162,420.788852 24.9257106,420.789474" id="Shape"></path>
                    <path d="M31.5952803,425.210526 C30.8854789,425.085435 30.3949015,424.429019 30.4747402,423.71119 C30.5545789,422.993361 31.1773398,422.461318 31.8972039,422.495936 C32.617068,422.530555 33.1861364,423.119913 33.1970274,423.842105 C33.1273287,424.660985 32.4130981,425.271174 31.5952803,425.210526 M31.5952803,420.552632 C29.6593652,420.415471 27.9685296,421.852914 27.7878488,423.789474 C27.8002998,424.641672 28.1617061,425.451282 28.7873608,426.028546 C29.4130155,426.60581 30.2479153,426.899979 31.0963755,426.842105 C31.6327974,426.822977 32.1635585,426.725457 32.6718644,426.552632 C32.3305085,428 30.0460495,428.657895 29.3370795,428.868421 C28.9957236,428.868421 28.9694654,429.105263 29.0219817,429.289474 L29.4946284,430.368421 C29.5298065,430.472 29.6063037,430.556299 29.7058623,430.601198 C29.8054209,430.646098 29.9191086,430.64757 30.0197914,430.605263 C33.0525499,430.015935 35.3258553,427.479719 35.5865189,424.394737 C35.6448781,423.330719 35.2373607,422.294095 34.4705187,421.555906 C33.7036767,420.817717 32.6537577,420.451363 31.5952803,420.552632" id="Shape"></path>
                    <path d="M83.5338983,420.763158 L82.0109257,420.763158 L79.595176,422.368421 C79.5747439,422.437103 79.5747439,422.510266 79.595176,422.578947 L79.595176,423.473684 C79.6087935,423.623198 79.73421,423.737464 79.8840156,423.736842 L81.4857627,423.736842 L81.4857627,430.078947 C81.4924186,430.155846 81.5294437,430.226897 81.5886111,430.276311 C81.6477785,430.325725 81.7241875,430.349411 81.8008605,430.342105 L83.6389309,430.342105 C83.7887366,430.342727 83.914153,430.228462 83.9277705,430.078947 L83.9277705,421.052632 C83.914153,420.903117 83.7887366,420.788852 83.6389309,420.789474" id="Shape"></path>
                    <path d="M93.2756714,423.473684 C93.2756714,421.894737 91.8839896,420.631579 89.5207562,420.631579 C88.2845323,420.673985 87.1070042,421.170381 86.2122295,422.026316 C86.1567097,422.071281 86.1244446,422.138987 86.1244446,422.210526 C86.1244446,422.282066 86.1567097,422.349772 86.2122295,422.394737 L87.2100391,423.263158 C87.3467109,423.378112 87.546014,423.378112 87.6826858,423.263158 C88.1197165,422.849562 88.6851079,422.598758 89.2844329,422.552632 C90.2034681,422.552632 90.7548892,423.026316 90.7548892,423.578947 C90.7306473,423.973728 90.5837384,424.351009 90.3347588,424.657895 C89.3632073,425.921053 86.8949413,428.763158 85.949648,429.921053 L85.949648,430.210526 C85.9563039,430.287425 85.993329,430.358476 86.0524964,430.40789 C86.1116638,430.457304 86.1880728,430.48099 86.2647458,430.473684 L92.9343155,430.473684 C93.0897364,430.47586 93.2235225,430.364127 93.2494133,430.210526 L93.2494133,428.947368 C93.2235225,428.793767 93.0897364,428.682034 92.9343155,428.684211 L90.019661,428.684211 C90.8074055,427.763158 92.1465711,426.236842 92.6454759,425.447368 C93.050156,424.916713 93.2796275,424.272782 93.3019296,423.605263" id="Shape"></path>
                    <path d="M61.0044068,434.657895 L57.8534289,441.605263 L54.4923859,434.657895 L44.4880313,413.947368 L48.1116558,413.947368 L57.7483963,433.947368 L65.4945502,417.105263 L65.6258409,416.815789 L55.1225815,416.815789 L53.7046415,413.894737 L70.3523077,413.894737 L61.0044068,434.657895 Z M54.1772881,418.368421 L63.0525424,418.368421 L57.8009126,430.210526 L49.2407562,412.473684 L49.2407562,412.473684 L41.9409909,412.473684 L52.73309,434.763158 L57.6958801,445.026316 L57.8796871,445.421053 L62.7111864,434.763158 L62.7111864,434.605263 L72.5579922,412.815789 L71.6126988,412.368421 L51.2101173,412.368421 L54.1772881,418.368421 Z" id="Shape"></path>
                    <path d="M75.9190352,438.157895 L72.3216688,438.736842 L72.3216688,439.394737 C72.2292226,440.286475 72.0533959,441.167538 71.7965059,442.026316 L71.6126988,442.657895 L74.7111604,444.578947 L74.4485789,445.184211 L70.9037288,444.315789 L70.588631,444.894737 C70.1570591,445.683454 69.6561707,446.432032 69.0919166,447.131579 L68.6717862,447.631579 L70.7986962,450.605263 L70.3260495,451.078947 L67.3326206,448.684211 L66.8337158,449.105263 C66.1369786,449.67249 65.3898786,450.174586 64.6017731,450.605263 L64.050352,450.921053 L64.8906128,454.5 L64.2604172,454.736842 L62.3435724,451.605263 L61.7133768,451.789474 C60.8553208,452.042239 59.9766181,452.218365 59.0875619,452.315789 L58.4573664,452.315789 L57.8534289,455.947368 L57.1969752,455.947368 L56.619296,452.315789 L55.9628422,452.315789 C55.0737016,452.218914 54.1949506,452.042778 53.3370274,451.789474 L52.7068318,451.605263 L50.9212777,454.815789 L50.3173403,454.578947 L51.1838592,451.026316 L50.6061799,450.710526 C49.8255033,450.281181 49.0870007,449.778955 48.4004954,449.210526 L47.7702999,448.684211 L44.8031291,450.815789 L44.3304824,450.342105 L46.4836506,447.368421 L46.0635202,446.868421 C45.5013253,446.176674 45.000516,445.437019 44.5668057,444.657895 L44.251708,444.078947 L40.6805997,444.921053 L40.4180183,444.289474 L43.5427379,442.368421 L43.3589309,441.736842 C43.1072502,440.876772 42.9315191,439.996187 42.8337679,439.105263 L42.8337679,438.447368 L39.2101434,437.868421 L39.2101434,437.210526 L42.8337679,436.631579 L42.8337679,435.973684 C42.8337679,435.473684 42.8337679,435 43.0700913,434.5 C43.3064146,434 43.2538983,433.736842 43.3589309,433.342105 L43.5427379,432.710526 L40.4180183,430.947368 L40.6805997,430.315789 L44.2254498,431.157895 L44.5405476,430.578947 C44.7404947,430.199593 44.9595966,429.830694 45.1970013,429.473684 L45.3808083,429.236842 L47.2188787,433.052632 L47.0350717,433.447368 C45.7407915,436.675552 46.0039301,440.321485 47.7482891,443.329397 C49.4926481,446.337309 52.5233728,448.3712 55.9628422,448.842105 C56.4783729,448.884825 56.9965424,448.884825 57.512073,448.842105 L57.512073,448.842105 C58.0272288,448.893121 58.5461479,448.893121 59.0613038,448.842105 C64.6105003,448.043211 68.7289933,443.276358 68.7243025,437.657895 C68.707482,436.635761 68.566398,435.619494 68.3041721,434.631579 C68.1794325,434.182858 68.0032015,433.750144 67.7790091,433.342105 L67.7790091,433.342105 L69.6695958,429.394737 C69.9361917,429.784716 70.1816236,430.188811 70.404824,430.605263 L70.7199218,431.184211 L74.2647718,430.342105 L74.5273533,430.973684 L71.4026336,432.894737 L71.5864407,433.526316 C71.5864407,433.894737 71.7965059,434.289474 71.8752803,434.684211 C71.9807475,435.170764 72.0596393,435.662724 72.1116037,436.157895 L72.1116037,436.815789 L75.70897,437.394737 L75.9190352,438.157895 Z M73.7396089,434.763158 C73.7396089,434.421053 73.6083181,434.078947 73.5295437,433.763158 L76.7855541,431.763158 L75.4201304,428.473684 L71.7177314,429.342105 C71.450974,428.897783 71.161758,428.467399 70.8512125,428.052632 L70.6411473,427.789474 L72.1641199,424.657895 L70.6148892,423.684211 L65.993455,433.473684 L65.7571317,434.052632 C65.9832774,434.23781 66.1860824,434.449897 66.3610691,434.684211 C66.5722752,434.983617 66.7402351,435.311415 66.8599739,435.657895 L66.8599739,435.657895 C66.9116694,435.813473 66.9554888,435.971569 66.9912647,436.131579 C67.0952192,436.686951 67.1479578,437.250731 67.1488136,437.815789 C67.0598945,442.578281 63.5106731,446.560346 58.7987223,447.184211 L58.7987223,447.184211 C58.3971453,447.225382 57.9924245,447.225382 57.5908475,447.184211 C57.1626405,447.218344 56.7324051,447.218344 56.3041982,447.184211 L56.3041982,447.184211 C51.5544271,446.527762 48.014073,442.463137 48.0066232,437.657895 C47.9872653,436.768465 48.1023542,435.881222 48.3479791,435.026316 C48.4930714,434.3351 48.8404662,433.702919 49.3457888,433.210526 L44.7243546,423.421053 L43.1751239,424.394737 L44.5930639,427.342105 C44.251708,427.815789 43.7002868,428.631579 43.4377053,429.078947 L39.7090482,428.184211 L38.3436245,431.473684 L41.5996349,433.5 C41.5996349,433.842105 41.442086,434.157895 41.3895698,434.5 C41.3370535,434.842105 41.3895698,434.921053 41.3895698,435.157895 L37.6083963,435.736842 L37.6083963,439.315789 L41.3895698,439.947368 C41.3895698,440.5 41.5733768,441.052632 41.7309257,441.605263 L38.4749153,443.605263 L39.840339,446.894737 L43.5689961,446.026316 C43.8578357,446.5 44.1729335,446.973684 44.5142894,447.421053 L42.2560887,450.526316 L44.8819035,453.157895 L47.9803651,450.921053 C48.4273228,451.261136 48.8918615,451.577364 49.3720469,451.868421 L48.2954628,455.578947 L51.5777314,456.947368 L53.5470926,453.684211 C54.092103,453.820778 54.6444137,453.926211 55.2013559,454 L55.8052934,457.789474 L59.3238853,457.789474 L59.9278227,454 C60.4792438,454 61.0306649,453.815789 61.582086,453.684211 L63.5777053,456.947368 L66.8599739,455.578947 L65.993455,451.868421 C66.4740171,451.577953 66.9385867,451.261704 67.3851369,450.921053 L70.4835984,453.184211 L73.1094133,450.552632 L70.8774707,447.447368 C71.2162295,446.999013 71.5317444,446.533485 71.822764,446.052632 L75.525163,446.947368 L76.8905867,443.657895 L73.6345763,441.631579 C73.7760192,441.085031 73.8899484,440.531701 73.9759322,439.973684 L77.7308475,439.368421 L77.7308475,435.815789 L73.9759322,435.210526 L73.9759322,434.552632 L73.7396089,434.763158 Z" id="Shape"></path>
                    <path d="M109.923338,545.342105 C109.923338,515.882074 86.0935738,492 56.6980704,492 C27.302567,492 3.47280313,515.882074 3.47280313,545.342105 C3.47280313,574.802137 27.302567,598.684211 56.6980704,598.684211 C86.0815743,598.655198 109.894388,574.790111 109.923338,545.342105 L109.923338,545.342105 Z M108.531656,545.342105 C108.542277,566.355246 95.9201663,585.305217 76.5521261,593.353974 C57.1840858,601.402732 34.8852311,596.964834 20.0554845,582.110063 C5.22573793,567.255292 0.786261554,544.909739 8.80757475,525.495107 C16.8288879,506.080475 35.7309531,493.421055 56.6980704,493.421053 C85.31297,493.450064 108.502708,516.690707 108.531656,545.368421 L108.531656,545.342105 Z M105.905841,544.5 L103.096219,543.105263 L105.722034,541.447368 L105.722034,539.157895 L101.205632,542.210526 L98.1859452,542.368421 L98.1859452,544.342105 L101.205632,544.157895 L106.037132,546.631579 L105.905841,544.5 Z M103.516349,536.868421 L105.118096,536.473684 L103.673898,530.605263 L102.045893,531 L102.544798,532.973684 L96.6629726,534.421053 L97.1356193,536.342105 L103.017445,534.894737 L103.516349,536.868421 Z M95.3763233,530.447368 L102.51854,527.526316 L101.783312,525.710526 L94.6410952,528.631579 L95.3763233,530.447368 Z M98.2647197,522.868421 L99.8664668,522.131579 L99.8664668,521.921053 C99.7305254,521.326578 99.5000074,520.757904 99.1837549,520.236842 C98.894204,519.593247 98.3440574,519.104309 97.671858,518.893157 C96.9996586,518.682005 96.2694657,518.768762 95.665163,519.131579 C94.7263711,519.790505 94.3224795,520.983536 94.6673533,522.078947 C94.6673533,522.815789 94.8249022,523.236842 94.5098044,523.421053 C94.1947066,523.605263 93.6432855,523.263158 93.4332203,522.894737 C93.1827159,522.443561 93.0474101,521.937311 93.0393481,521.421053 L93.0393481,521.026316 L91.2800522,521.842105 L91.2800522,522.236842 C91.4156244,522.80244 91.6370202,523.343832 91.9365059,523.842105 C92.3638847,524.773585 93.2548325,525.40564 94.2734811,525.5 C94.7424489,525.465336 95.1904358,525.291246 95.5601304,525 C96.5337801,524.330759 96.9420297,523.092555 96.55794,521.973684 C96.55794,521.315789 96.4003911,520.894737 96.55794,520.736842 C96.6871126,520.703417 96.8226397,520.703417 96.9518123,520.736842 C97.2432609,520.772614 97.4985247,520.949723 97.6345241,521.210526 C97.8547163,521.609838 97.9972827,522.047406 98.0546545,522.5 L98.2647197,522.868421 Z M93.6958018,516.210526 C95.3500652,514.736842 94.0371578,513.236842 93.0656063,512.105263 L91.8052151,510.657895 L86.0021643,515.763158 L87.2888136,517.236842 L89.5207562,515.263158 L89.5207562,515.421053 C89.8095958,515.763158 89.8095958,515.894737 89.5207562,516.342105 L88.3128814,518.631579 L89.7570795,520.263158 L91.3063103,517.184211 C91.4089065,516.98601 91.4797926,516.772885 91.5163755,516.552632 C92.2004047,516.833267 92.9840702,516.70067 93.5382529,516.210526 L93.6958018,516.210526 Z M92.3303781,514.368421 C92.3126375,514.528184 92.2263647,514.672288 92.0940548,514.763158 C91.9820638,514.87526 91.8320815,514.941021 91.6739244,514.947368 C91.3588266,514.947368 90.9912125,514.605263 90.728631,514.315789 L90.728631,514.157895 L91.778957,513.236842 L91.9102477,513.394737 C92.1728292,513.710526 92.4616688,514.078947 92.4354107,514.368421 L92.3303781,514.368421 Z M87.7352021,509.105263 L88.7592699,507.789474 L85.0568709,504.947368 L80.304146,511.052632 L84.0328031,513.973684 L85.0568709,512.657895 L82.8511864,510.947368 L83.7702216,509.763158 L85.7658409,511.315789 L86.7899087,510 L84.7942894,508.447368 L85.5557757,507.473684 L87.7352021,509.105263 Z M76.3129074,508.578947 L82.0897001,502.842105 L80.3304042,501.947368 L76.6017471,505.736842 L77.4157497,500.473684 L75.5514211,499.526316 L74.5536115,507.684211 L76.3129074,508.578947 Z M70.0897262,505.947368 L72.4004433,498.552632 L70.5361147,497.947368 L68.2253977,505.342105 L70.0897262,505.947368 Z M65.5733246,504.578947 L66.5973924,496.894737 L64.7330639,496.631579 L64.1291265,501.157895 L62.4748631,496.315789 L60.3216949,496.026316 L59.2976271,503.710526 L61.1619557,503.973684 L61.7658931,499.447368 L63.4464146,504.289474 L65.5733246,504.578947 Z M56.5667797,506.342105 C35.0851608,506.385686 17.7020378,523.865831 17.7310132,545.39463 C17.7599887,566.923429 35.1901011,584.356514 56.6717591,584.342017 C78.1534172,584.327519 95.5600864,566.870924 95.5601304,545.342105 C95.5312871,523.835519 78.1574914,506.400055 56.6980704,506.342105 L56.5667797,506.342105 Z M94.2734811,545.342105 C94.2734811,560.573302 85.1185262,574.304737 71.0775575,580.133463 C57.0365889,585.96219 40.8747349,582.74034 30.1282427,571.970258 C19.3817505,561.200176 16.1669579,545.002844 21.9829175,530.931053 C27.7988772,516.859262 41.5002354,507.684211 56.6980704,507.684211 C77.4384031,507.713201 94.2445545,524.556244 94.2734811,545.342105 L94.2734811,545.342105 Z M82.0897001,552.710526 L82.0897001,519.026316 L31.7265711,519.026316 L31.7265711,552.105263 C31.7265711,559.789474 36.0329074,567.236842 44.1729335,573.684211 C47.9497333,576.654041 52.0770614,579.14648 56.4617471,581.105263 L56.9081356,581.289474 L57.3807823,581.105263 C61.7354687,579.120381 65.8423858,576.629624 69.6170795,573.684211 C77.7571056,567.289474 82.063442,560.026316 82.063442,552.631579 L82.0897001,552.710526 Z M57.8009126,547.5 L58.2473012,547.342105 C58.9265197,547.244219 59.6162182,547.244219 60.2954368,547.342105 L62.0809909,547.526316 C63.0788005,547.526316 63.9453194,547.710526 64.7068057,547.736842 L67.2013299,547.736842 L67.2013299,563.526316 L65.468292,563.526316 C63.9978357,563.526316 63.0262842,563.526316 62.0547327,563.315789 C60.9996794,563.197768 59.9390916,563.136277 58.8774967,563.131579 C58.4886766,563.129852 58.1038888,563.210566 57.7483963,563.368421 L57.8009126,547.5 Z M34.1685789,540.789474 L55.8578096,540.789474 L55.8578096,545.552632 C55.0479133,545.436748 54.2256981,545.436748 53.4158018,545.552632 L51.6039896,545.736842 C50.6324381,545.736842 49.7921773,545.921053 48.9781747,545.947368 L44.7768709,545.947368 L44.7768709,550.552632 L42.6237027,550.552632 L42.6237027,553.184211 L44.7768709,553.184211 L44.7768709,557.789474 L42.6237027,557.789474 L42.6237027,560.289474 L44.7768709,560.289474 L44.7768709,565.421053 L45.6171317,565.421053 L48.2429465,565.421053 C49.6608866,565.421053 50.8687614,565.289474 51.7615385,565.210526 C52.6543155,565.131579 53.5733507,565.052632 54.7024511,565.052632 C55.0464861,565.020523 55.3766738,565.19632 55.5427119,565.5 L55.5427119,565.631579 L55.5427119,578.210526 C50.2910821,575.578947 33.8534811,566.394737 33.8534811,552.157895 L34.1685789,540.789474 Z M54.9387744,563.131579 L54.9387744,563.131579 C53.7046415,563.131579 52.8118644,563.131579 51.8140548,563.289474 C50.8162451,563.447368 49.8709518,563.473684 48.4004954,563.5 L46.6674576,563.5 L46.6674576,547.710526 L49.1619817,547.710526 C49.9497262,547.710526 50.8162451,547.710526 51.7877966,547.473684 L53.5996089,547.289474 C54.2618322,547.200186 54.9330048,547.200186 55.5952282,547.289474 L55.8315515,547.289474 L55.8315515,563.078947 C55.5453442,562.974839 55.2432504,562.921412 54.9387744,562.921053 L54.9387744,563.131579 Z M79.7527249,538.184211 L34.0898044,538.184211 L34.0898044,521.105263 L79.8052412,521.105263 L79.7527249,538.184211 Z M79.7527249,552.394737 C79.7527249,566.184211 62.8424772,575.526316 57.8796871,577.973684 L57.8796871,565.421053 L58.1160104,565.157895 C58.3018655,564.845173 58.646244,564.662455 59.0087875,564.684211 C60.164146,564.684211 61.0306649,564.684211 62.0022164,564.842105 C62.9737679,565 63.9978357,565.026316 65.5208083,565.052632 C67.043781,565.078947 68.1466232,565.052632 68.1466232,565.052632 L68.986884,565.052632 L68.986884,560.368421 L70.9562451,560.368421 L70.9562451,557.736842 L69.0394003,557.736842 L69.0394003,553.210526 L71.0087614,553.210526 L71.0087614,550.710526 L69.0394003,550.710526 L69.0394003,546.052632 L64.8118383,546.052632 C64.1028683,546.052632 63.2626076,546.052632 62.1860235,545.842105 L60.4004694,545.657895 C59.5299818,545.528191 58.645142,545.528191 57.7746545,545.657895 L57.7746545,545.657895 L57.7746545,540.789474 L79.8052412,540.789474 L79.7527249,552.394737 Z M40.365502,523.710526 L40.365502,531.421053 C40.5635236,532.55598 41.2835151,533.531078 42.308605,534.052632 C43.8315776,535.078947 46.1422947,536.421053 46.2210691,536.5 L46.6674576,536.763158 L47.1138462,536.526316 C47.1138462,536.526316 49.739661,535.131579 51.2363755,534.078947 C52.73309,533.026316 53.0744459,531.789474 53.0744459,531.447368 L53.0744459,523.736842 L53.0744459,522.842105 L40.4180183,522.842105 L40.365502,523.710526 Z M51.3151499,526.921053 L42.2035724,526.921053 L42.2035724,524.605263 L51.3414081,524.605263 L51.3414081,526.921053 L51.3151499,526.921053 Z M42.1773142,528.710526 L51.3414081,528.710526 L51.3414081,531.342105 C51.3414081,531.5 50.7637288,532.263158 50.2910821,532.578947 C49.1882399,533.315789 47.6652673,534.263158 46.7462321,534.684211 C46.0110039,534.236842 44.4617731,533.315789 43.3589309,532.552632 C42.2560887,531.789474 42.2298305,531.605263 42.2035724,531.263158 C42.1773142,530.921053 42.2035724,530.078947 42.2035724,528.631579 L42.1773142,528.710526 Z M61.7921512,523.368421 L61.7921512,531.263158 C62.016794,532.401855 62.7531994,533.372937 63.7877705,533.894737 C65.3632595,534.947368 67.7002347,536.342105 67.8052673,536.394737 L68.2516558,536.657895 L68.6980443,536.421053 C68.6980443,536.421053 71.3238592,534.973684 72.9256063,533.789474 C74.5273533,532.605263 74.7899348,531.421053 74.816193,531.157895 C74.8424511,530.894737 74.816193,526.736842 74.816193,523.263158 L74.816193,522.368421 L61.6871186,522.368421 L61.7921512,523.368421 Z M63.5777053,530.684211 L68.0678488,527.631579 L73.0043807,530.921053 L73.0043807,531.447368 C73.0043807,531.921053 72.4004433,532.394737 71.9277966,532.736842 C70.7986962,533.5 69.0919166,534.473684 68.277914,534.921053 C67.5164276,534.473684 65.9146806,533.5 64.7855802,532.736842 C64.4442243,532.5 63.6302216,531.894737 63.5777053,531.368421 L63.5777053,530.894737 L63.5777053,530.684211 Z M63.5777053,524.473684 L73.0043807,524.473684 L73.0043807,528.789474 L68.0415906,525.473684 L63.5777053,528.710526 L63.5777053,524.5 L63.5777053,524.473684 Z M54.0197392,556.078947 L54.0197392,554.289474 L53.5470926,554.289474 L52.6805737,554.289474 L51.3151499,554.289474 L48.6893351,554.289474 L48.6893351,556.078947 L51.3151499,556.078947 L52.8381226,556.078947 L53.6783833,556.078947 L54.0722555,556.078947 L54.0197392,556.078947 Z M54.0722555,551.105263 L54.0722555,549.315789 L53.5470926,549.315789 L52.6543155,549.315789 L51.2888918,549.315789 L48.6630769,549.315789 L48.6630769,551.105263 L51.2888918,551.105263 L52.8118644,551.105263 L53.6783833,551.105263 L54.0985137,551.105263 L54.0722555,551.105263 Z M51.2101173,559.473684 L48.5843025,559.473684 L48.5843025,561.263158 L51.2101173,561.263158 L52.73309,561.263158 L53.5996089,561.263158 L53.9934811,561.263158 L53.9934811,559.210526 L53.5470926,559.210526 L52.6543155,559.210526 C52.1732252,559.234976 51.6912077,559.234976 51.2101173,559.210526 L51.2101173,559.473684 Z M60.3742112,549.105263 L59.7177575,549.105263 L59.7177575,550.894737 L60.1378879,550.894737 L60.9781486,550.894737 L62.5011213,550.894737 L65.1269361,550.894737 L65.1269361,549.105263 L62.5011213,549.105263 L61.1356975,549.105263 L60.3742112,549.105263 Z M65.2057106,556.131579 L65.2057106,554.342105 L64.5229987,554.342105 L62.5798957,554.342105 L61.2932464,554.342105 L60.3742112,554.342105 L59.7177575,554.342105 L59.7177575,556.131579 L60.164146,556.131579 L61.0831812,556.131579 L62.5273794,556.131579 L64.4704824,556.131579 L65.2057106,556.131579 Z M60.3479531,559.210526 L59.6914993,559.210526 L59.6914993,561 L60.1116297,561 L61.0044068,561 L62.4748631,561 L63.2100913,561 L65.100678,561 L65.100678,559.210526 L63.2100913,559.210526 L62.4748631,559.210526 L61.1619557,559.210526 L60.2691786,559.210526 L60.3479531,559.210526 Z M55.7790352,503 C56.2673404,502.364258 56.4759513,501.556492 56.3567145,500.763158 L56.0416167,496.052632 L54.0985137,496.210526 L54.4661278,500.631579 C54.4661278,502.184211 53.9672229,502.447368 53.4158018,502.5 L53.2845111,502.5 C52.8381226,502.5 52.207927,502.315789 52.0766362,500.815789 L51.7090222,496.394737 L49.7659192,496.552632 L50.1335332,501.315789 C50.1289835,502.066904 50.4449146,502.78417 51.0017514,503.286925 C51.5585882,503.789681 52.3032545,504.030006 53.0481877,503.947368 L53.5470926,503.947368 C54.4278472,503.93908 55.2689493,503.57917 55.8840678,502.947368 L55.7790352,503 Z M40.8644068,506.868421 L45.3020339,505.263158 L44.7243546,503.684211 L42.0985398,504.631579 L40.0504042,498.921053 L38.2123338,499.578947 L40.8644068,506.868421 Z M38.8162712,507.736842 L38.0022686,506.263158 L35.6127771,507.605263 L32.6456063,502.342105 L30.9388266,503.315789 L34.72,510.052632 L38.8162712,507.736842 Z M28.3130117,510.868421 L30.2823729,509.263158 L29.2320469,507.973684 L27.2626858,509.578947 L26.4749413,508.605263 L28.6281095,506.868421 L27.5777836,505.578947 L23.9279009,508.552632 L28.8119166,514.552632 L32.4880574,511.552632 L31.4377314,510.236842 L29.2845632,512 L28.3130117,510.868421 Z M26.7112647,516.473684 L20.7769231,511.526316 L19.5690482,513 L23.061382,515.921053 L18.0985919,514.763158 L16.70691,516.447368 L22.6412516,521.394737 L23.8491265,519.921053 L20.2780183,517.105263 L25.2408083,518.236842 L26.7112647,516.473684 Z M16.3655541,521 C16.0289741,520.806564 15.650456,520.698179 15.2627119,520.684211 C14.0023207,520.684211 13.345867,521.947368 12.636897,523.052632 L11.7441199,524.736842 L18.5712386,528.368421 L19.4902738,526.631579 L16.8644589,525.210526 L16.8644589,525.052632 C17.1007823,524.578947 17.3108475,524.631579 17.7047197,524.684211 L20.3305346,525.026316 L21.3546023,523.105263 L17.941043,522.736842 C17.7232672,522.706575 17.5023652,522.706575 17.2845893,522.736842 C17.3139354,521.985789 16.9035313,521.28657 16.2342634,520.947368 L16.3655541,521 Z M15.7353585,523.157895 C15.7643612,523.540003 15.6624737,523.920599 15.4465189,524.236842 L15.4465189,524.421053 L14.2123859,523.763158 L14.2123859,523.578947 C14.5274837,523 14.8688396,522.526316 15.3940026,522.815789 C15.5519689,522.888462 15.6747286,523.020955 15.7353585,523.184211 L15.7353585,523.157895 Z M12.45309,529.263158 C10.8208592,529.204427 9.37246463,530.304105 8.98701434,531.894737 C8.64922038,532.891232 8.76276206,533.985903 9.29784159,534.891464 C9.83292111,535.797025 10.7361108,536.423057 11.7703781,536.605263 C12.2316131,536.738168 12.7084454,536.808965 13.1883181,536.815789 C14.8108424,536.861835 16.2446759,535.764903 16.6281356,534.184211 C16.9318941,533.252129 16.846659,532.236554 16.3918123,531.368421 C15.8077687,530.412463 14.8590858,529.73742 13.7659974,529.5 C13.322092,529.369873 12.8629793,529.299085 12.4005737,529.289474 L12.45309,529.263158 Z M12.4005737,531.289474 C12.7200377,531.291982 13.0378127,531.336214 13.345867,531.421053 C14.024807,531.564392 14.6195421,531.971213 15.0001304,532.552632 C15.1621862,532.930663 15.1621862,533.358811 15.0001304,533.736842 C14.7886671,534.491049 14.0721774,534.988169 13.2933507,534.921053 C12.9462975,534.916787 12.6015668,534.863635 12.2692829,534.763158 C11.2452151,534.473684 10.1948892,533.710526 10.5362451,532.473684 C10.7597654,531.719413 11.4885879,531.232464 12.2692829,531.315789 L12.4005737,531.289474 Z M9.64346806,539.5 L7.8316558,539.236842 L7.8316558,539.421053 C7.59259745,539.952883 7.45031658,540.523256 7.41152542,541.105263 C7.2323094,542.221862 7.55656028,543.360608 8.29679063,544.214249 C9.03702098,545.067891 10.1169564,545.548469 11.2452151,545.526316 L11.5340548,545.526316 C12.5719232,545.566513 13.5777236,545.161658 14.2995171,544.413163 C15.0213107,543.664668 15.3907254,542.643433 15.3152282,541.605263 C15.3814882,541.037021 15.3814882,540.462979 15.3152282,539.894737 L15.3152282,539.684211 L13.4771578,539.684211 L13.6609648,540.078947 C13.8185955,540.544138 13.8811078,541.036385 13.8447718,541.526316 C13.8216946,542.125461 13.544799,542.686319 13.0835495,543.068187 C12.6223,543.450056 12.0204636,543.616701 11.4290222,543.526316 C10.8278761,543.549825 10.2449144,543.317094 9.82455024,542.885776 C9.40418608,542.454459 9.18574417,541.864904 9.22333768,541.263158 C9.24232074,540.774301 9.3969023,540.300425 9.66972621,539.894737 L9.64346806,539.5 Z M16.1817471,554.447368 L8.9082399,556.578947 L9.45966102,558.473684 L12.4793481,557.605263 L13.16206,559.947368 L14.763807,559.5 L14.1073533,557.157895 L15.28897,556.815789 L15.99794,559.263158 L17.5996871,558.789474 L16.1817471,554.447368 Z M12.1642503,564.157895 C11.8677532,565.113661 11.9720273,566.149191 12.45309,567.026316 C12.9912495,568.325394 14.253104,569.175387 15.6565841,569.184211 C16.3705767,569.168804 17.0714229,568.988706 17.7047197,568.657895 C18.708994,568.219732 19.4946609,567.394394 19.884146,566.368421 C20.1806431,565.412654 20.0763691,564.377125 19.5953064,563.5 C19.0608871,562.209652 17.8119662,561.361418 16.4180704,561.342105 C15.7039485,561.356564 15.0028899,561.536717 14.3699348,561.868421 C13.3574492,562.303311 12.5624058,563.128556 12.1642503,564.157895 L12.1642503,564.157895 Z M13.8447718,565.105263 C14.1230668,564.467155 14.6423925,563.965615 15.28897,563.710526 C15.7045988,563.498582 16.1619869,563.381737 16.6281356,563.368421 C17.1467409,563.362791 17.6369911,563.605138 17.9481725,564.020957 C18.259354,564.436776 18.3542266,564.976306 18.2036245,565.473684 C17.9377011,566.101837 17.4387196,566.601914 16.8119426,566.868421 C16.3733525,567.097568 15.8884359,567.223563 15.3940026,567.236842 C14.7759861,567.260137 14.2052792,566.906562 13.9498044,566.342105 C13.7877486,565.964074 13.7877486,565.535926 13.9498044,565.157895 L13.8447718,565.105263 Z M18.7550456,572 C18.0540307,572.485035 17.6023992,573.255457 17.5209126,574.105263 C17.5316633,574.943816 17.8493737,575.7492 18.4136897,576.368421 C18.7868824,577.160078 19.528507,577.713874 20.3921726,577.845819 C21.2558383,577.977765 22.1284227,577.670578 22.7200261,577.026316 L26.5274576,574 L25.2933246,572.447368 L21.827249,575.078947 C20.9082138,575.815789 20.225502,575.894737 19.700339,575.210526 C19.4946644,574.990919 19.3899441,574.695151 19.4114993,574.394737 C19.5442125,573.885037 19.8627652,573.443718 20.3042764,573.157895 L23.7440939,570.526316 L22.5099609,568.973684 L18.7550456,572 Z M28.365528,575.868421 L23.4815124,581.868421 L24.9519687,583.078947 L27.8403651,579.552632 L26.763781,584.578947 L28.4443025,585.973684 L33.3283181,579.973684 L31.8578618,578.763158 L28.9694654,582.289474 L30.0723077,577.289474 L28.365528,575.868421 Z M35.5865189,581.394737 L32.1204433,588.315789 L34.1160626,589.315789 C34.9208772,589.762564 35.8220587,590.006417 36.7418774,590.026316 C38.1296758,590.002628 39.3649831,589.139136 39.8665971,587.842105 C41.0219557,585.552632 40.2867275,583.710526 37.6609126,582.394737 L35.5865189,581.394737 Z M34.6412256,587.710526 L36.6105867,583.789474 L37.0832334,584.026316 C37.5790307,584.275091 37.9565802,584.710226 38.1335593,585.236842 C38.3030475,585.79727 38.2464819,586.401961 37.9760104,586.921053 C37.6470209,587.676826 36.9080671,588.170543 36.0854237,588.184211 C35.7559029,588.182624 35.4316291,588.101377 35.1401304,587.947368 L34.6412256,587.710526 Z M43.8315776,585.078947 L41.8359583,592.552632 L46.4573924,593.789474 L46.8775228,592.184211 L44.251708,591.447368 L44.619322,590 L47.087588,590.657895 L47.5339765,589.052632 L45.0657106,588.394737 L45.3808083,587.210526 L48.0066232,587.921053 L48.4530117,586.315789 L43.8315776,585.078947 Z M51.0000522,586.789474 L50.5799218,594.526316 L52.7856063,594.526316 L53.2845111,594.526316 C54.3279736,594.682148 55.3867904,594.367613 56.1769699,593.667074 C56.9671494,592.966534 57.4078184,591.95169 57.3807823,590.894737 C57.503472,589.884203 57.2094844,588.867245 56.5667797,588.078947 C55.6646828,587.214206 54.4534114,586.749499 53.2057366,586.789474 L51.0000522,586.789474 Z M52.6280574,592.973684 L52.8906389,588.578947 L53.4158018,588.578947 C54.5403388,588.74795 55.3523813,589.746033 55.2911887,590.883988 C55.2299961,592.021944 54.3156256,592.926782 53.1794785,592.973684 L52.6280574,592.973684 Z M64.050352,586.421053 L62.7374446,594.605263 L64.759322,594.157895 L65.0219035,592.421053 L67.5164276,591.868421 L68.461721,593.368421 L70.588631,592.894737 L66.0197132,585.973684 L64.050352,586.421053 Z M65.3632595,590.789474 L65.5995828,588.763158 L66.6499087,590.5 L65.3632595,590.789474 Z M73.240704,589.868421 L71.4026336,590.552632 L72.0853455,592.421053 L73.9496741,591.763158 L73.240704,589.868421 Z M73.240704,583.763158 L76.9168449,590.578947 L78.8599478,589.5 C81.4857627,588.105263 82.1159583,586.263158 80.8818253,584 C79.6476923,581.736842 77.7308475,581.368421 75.183807,582.684211 L73.240704,583.763158 Z M75.8665189,584.289474 L76.3391656,584.026316 C76.6443456,583.855775 76.9875653,583.765256 77.3369752,583.763158 C78.1301539,583.778547 78.8488625,584.235067 79.2013038,584.947368 C79.5005261,585.435328 79.5856263,586.025389 79.4365202,586.578292 C79.2874142,587.131195 78.917312,587.597958 78.4135593,587.868421 L77.9409126,588.131579 L75.8665189,584.289474 Z M84.1115776,584 L82.4835724,585.131579 L83.6126728,586.763158 L85.0568709,585.526316 L84.1115776,584 Z M85.240678,578.263158 L86.9211995,578.5 L87.0524902,577.236842 L90.728631,580.973684 L92.1203129,579.578947 L86.7111343,574.078947 L85.5557757,575.236842 L85.240678,578.263158 Z M91.962764,573.736842 C91.8647746,574.477974 92.1766023,575.21389 92.7767666,575.657895 C93.1597909,575.957699 93.6299902,576.124016 94.1159322,576.131579 C95.0220905,576.060585 95.8407343,575.56246 96.3216167,574.789474 C96.8200617,574.196588 97.0653461,573.430755 97.0043286,572.657895 C96.8994171,572.059403 96.5587638,571.528334 96.0590352,571.184211 C95.4300376,570.712797 94.594812,570.622031 93.8796089,570.947368 C93.8879725,570.260756 93.5774808,569.609237 93.0393481,569.184211 C92.0677966,568.473684 90.7811473,568.868421 89.8621121,570.157895 C89.4062369,570.611255 89.1701654,571.24123 89.2155638,571.883258 C89.2609623,572.525287 89.5833215,573.115601 90.0984355,573.5 C90.6479101,573.894813 91.3594825,573.983955 91.9890222,573.736842 L91.962764,573.736842 Z M93.6432855,572.973684 C94.1947066,572.605263 94.614837,572.552632 94.956193,572.815789 C95.1111186,572.917414 95.2160159,573.079884 95.2450326,573.263158 C95.2677904,573.574667 95.1166387,573.873212 94.8523523,574.038753 C94.5880659,574.204295 94.2540641,574.209637 93.9846415,574.052632 C93.6621234,573.796212 93.5358747,573.363915 93.6695437,572.973684 L93.6432855,572.973684 Z M92.4354107,571.736842 C92.1965656,571.912121 91.9157593,572.021058 91.6214081,572.052632 C91.5188515,572.084955 91.4088669,572.084955 91.3063103,572.052632 C91.1764159,571.924079 91.103304,571.748745 91.103304,571.565789 C91.103304,571.382834 91.1764159,571.2075 91.3063103,571.078947 C91.4071917,570.914525 91.5863628,570.814767 91.778957,570.815789 C91.932364,570.821448 92.0797939,570.876856 92.1990874,570.973684 C92.4336038,571.196926 92.5418886,571.522493 92.487927,571.842105 L92.4354107,571.736842 Z M96.5841982,568.157895 C97.267207,568.547685 98.0313205,568.772918 98.8161408,568.815789 C99.7683156,568.709477 100.559296,568.031495 100.81176,567.105263 C101.153477,566.444429 101.199984,565.669478 100.939763,564.972361 C100.679542,564.275244 100.136933,563.721166 99.4463364,563.447368 C98.8886562,563.103105 98.2093052,563.018469 97.5844944,563.215413 C96.9596836,563.412358 96.4509778,563.871477 96.1903259,564.473684 C96.0232834,564.797908 95.9504959,565.162644 95.9802608,565.526316 C95.3883402,565.154086 95.1636325,564.399663 95.4550978,563.763158 C95.631863,563.407128 95.8825425,563.093091 96.1903259,562.842105 L96.4529074,562.605263 L95.0349674,561.578947 L94.8774185,561.736842 C94.4892073,562.117732 94.169426,562.562848 93.9321252,563.052632 C93.5585303,563.737685 93.4825648,564.546591 93.72206,565.289474 C94.2335757,566.46803 95.1719,567.408414 96.3478748,567.921053 L96.5841982,568.157895 Z M97.3982008,565.921053 C97.3352815,565.778596 97.3352815,565.616141 97.3982008,565.473684 C97.5040202,565.253072 97.7320104,565.118055 97.9758801,565.131579 C98.2232276,565.137283 98.4658942,565.200335 98.6848501,565.315789 C98.9759527,565.434829 99.2107472,565.660726 99.3413038,565.947368 C99.3967439,566.08222 99.3967439,566.233569 99.3413038,566.368421 C99.240249,566.608831 98.9968649,566.757304 98.7373664,566.736842 C98.5156496,566.72668 98.2995736,566.663519 98.1071708,566.552632 C97.7959941,566.431625 97.5424872,566.196381 97.3982008,565.894737 L97.3982008,565.921053 Z M101.494472,560.236842 L101.258149,560.552632 L103.069961,561.157895 L103.069961,560.947368 C103.365095,560.440359 103.602888,559.901943 103.778931,559.342105 C104.091419,558.565471 104.091419,557.697687 103.778931,556.921053 C103.441482,556.275445 102.851987,555.799001 102.150926,555.605263 C101.430953,555.400337 100.657937,555.513061 100.026089,555.915115 C99.3942413,556.317169 98.9636148,556.97034 98.842399,557.710526 L97.9496219,557.421053 L98.7373664,554.789474 L97.1881356,554.342105 L95.8752282,558.815789 L100.155306,560.184211 L100.155306,559.815789 C100.148108,559.40671 100.201197,558.998806 100.312855,558.605263 C100.312855,558.236842 100.81176,557.315789 101.652021,557.552632 C102.492282,557.789474 102.334733,558.763158 102.255958,559.052632 C102.104291,559.500286 101.863043,559.912203 101.546988,560.263158 L101.494472,560.236842 Z" id="Shape"></path>
                    <path d="M47.796558,241 C47.9208333,245.491612 46.2031442,249.83806 43.0438331,253.026316 C38.5536897,257.552632 32.960704,257.421053 25.2933246,257.421053 C17.6259452,257.421053 12.1642503,257.421053 7.54281617,253.026316 C4.33537807,249.860221 2.56910515,245.510981 2.65880052,241 C2.2788656,232.657417 8.44680861,225.461064 16.7331682,224.578947 L16.7331682,233.421053 C13.02655,233.955316 10.3128286,237.196267 10.4312125,240.947368 C10.3496381,243.056315 11.1941153,245.095204 12.7419296,246.526316 C14.6062581,248.210526 16.7331682,248.710526 25.3195828,248.710526 C33.9059974,248.710526 36.0066493,248.210526 37.897236,246.526316 C39.4450503,245.095204 40.2895275,243.056315 40.2079531,240.947368 C40.3126251,237.191746 37.590631,233.954405 33.8797392,233.421053 L33.8797392,224.578947 C42.1660988,225.461064 48.3340418,232.657417 47.9541069,241" id="Shape"></path>
                    <path d="M12.2955411,198.184211 C10.7174404,199.61108 9.84387352,201.660291 9.90604954,203.789474 C9.84959379,205.932828 10.7208901,207.995905 12.2955411,209.447368 C14.1861278,211.157895 16.2605215,211.578947 24.8469361,211.578947 C33.4333507,211.578947 35.5077445,211.131579 37.3983312,209.447368 C38.9729822,207.995905 39.8442784,205.932828 39.7878227,203.789474 C39.8499987,201.660291 38.9764319,199.61108 37.3983312,198.184211 C35.5077445,196.473684 33.4333507,195.973684 24.8469361,195.973684 C16.2605215,195.973684 14.1861278,196.473684 12.2955411,198.184211 M42.676219,191.710526 C49.1994471,198.456705 49.1994471,209.174873 42.676219,215.921053 C38.1598175,220.447368 32.5668318,220.315789 24.8469361,220.315789 C17.1270404,220.315789 11.5340548,220.315789 7.01765319,215.921053 C0.494425081,209.174873 0.494425081,198.456705 7.01765319,191.710526 C11.5340548,187.184211 17.1270404,187.236842 24.8469361,187.236842 C32.5668318,187.236842 38.1598175,187.236842 42.676219,191.710526" id="Shape"></path>
                    <path d="M10.2999218,164.210526 L10.2999218,172.368421 L22.0373142,172.368421 L22.0373142,164.210526 C22.1842237,162.005729 21.0938836,159.902401 19.2093848,158.75529 C17.324886,157.608178 14.9598337,157.608178 13.0753349,158.75529 C11.1908361,159.902401 10.100496,162.005729 10.2474055,164.210526 L10.2999218,164.210526 Z M47.1663625,157.421053 L29.3895958,166.157895 L29.3895958,172.368421 L47.2188787,172.368421 L47.2188787,181.105263 L2.58002608,181.105263 L2.58002608,163.631579 C2.2992014,159.842037 3.62185835,156.108888 6.22441763,153.345421 C8.8269769,150.581954 12.4693744,149.043076 16.2605215,149.105263 C21.5421139,148.953021 26.3042135,152.273522 27.997914,157.289474 L47.271395,147.289474 L47.1663625,157.421053 Z" id="Shape"></path>
                    <polygon id="Shape" points="2.52750978 107.447368 2.52750978 116.210526 29.8885007 116.210526 2.52750978 133.947368 2.52750978 141.736842 47.2188787 141.736842 47.2188787 133 19.7791134 133 47.2188787 115.263158 47.2188787 107.447368"></polygon>
                    <polygon id="Shape" points="39.4202086 70.0789474 39.4202086 90.8421053 28.5755932 90.8421053 28.5755932 73.1578947 20.8031812 73.1578947 20.8031812 90.8421053 10.2999218 90.8421053 10.2999218 70.0789474 2.52750978 70.0789474 2.52750978 99.5789474 47.2188787 99.5789474 47.2188787 70.0789474"></polygon>
                    <polygon id="Shape" points="39.4202086 34.0789474 39.4202086 54.3947368 2.52750978 54.3947368 2.52750978 63.1315789 47.2188787 63.1315789 47.2188787 34.0789474"></polygon>
                    <polygon id="Shape" points="39.4202086 0 39.4202086 20.3157895 2.52750978 20.3157895 2.52750978 29.0526316 47.2188787 29.0526316 47.2188787 0"></polygon>
                    <polygon id="Shape" points="63.9715776 224.921053 63.9715776 257.078947 71.7439896 257.078947 71.7439896 245.368421 108.662947 245.368421 108.662947 236.631579 71.7439896 236.631579 71.7439896 224.921053"></polygon>
                    <polygon id="Shape" points="100.864276 189.631579 100.864276 210.394737 90.019661 210.394737 90.019661 192.736842 82.2209909 192.736842 82.2209909 210.394737 71.7439896 210.394737 71.7439896 189.631579 63.9715776 189.631579 63.9715776 219.157895 108.662947 219.157895 108.662947 189.631579"></polygon>
                    <path d="M109.030561,168.236842 C109.125426,172.764245 107.359468,177.13174 104.146545,180.315789 C99.6301434,184.842105 94.0371578,184.710526 86.3172621,184.710526 C78.5973664,184.710526 73.0043807,184.710526 68.4879791,180.315789 C65.2627831,177.137963 63.4866175,172.768713 63.5777053,168.236842 C63.1711073,159.856063 69.3760861,152.620294 77.7045893,151.763158 L77.7045893,160.631579 C73.9896549,161.177153 71.2701301,164.422867 71.3763755,168.184211 C71.2972811,170.305723 72.1516924,172.355039 73.7133507,173.789474 C75.6039374,175.5 77.7308475,176 86.3435202,176 C94.956193,176 97.083103,175.5 98.9474316,173.789474 C100.50909,172.355039 101.363501,170.305723 101.284407,168.184211 C101.390652,164.422867 98.6711274,161.177153 94.956193,160.631579 L94.956193,151.763158 C103.284696,152.620294 109.489675,159.856063 109.083077,168.236842" id="Shape"></path>
                    <polygon id="Shape" points="63.9715776 113.052632 63.9715776 121.789474 82.2209909 121.789474 82.2209909 136.973684 63.9715776 136.973684 63.9715776 145.710526 108.662947 145.710526 108.662947 136.973684 89.9408866 136.973684 89.9408866 121.789474 108.662947 121.789474 108.662947 113.052632"></polygon>
                </g>
            </g>
        </g>
    </g>
</svg>